{
.appVersion = "1075";
DisplayStrings = (
"Hepta Slab\012ABCDEFGHIJKLMNOPQRSTUVWXYZ\012/a.sc/b.sc/c.sc/d.sc/e.sc/f.sc/g.sc/h.sc/i.sc/j.sc/k.sc/l.sc/m.sc/n.sc/o.sc/p.sc/q.sc/r.sc/s.sc/t.sc/u.sc/v.sc/w.sc/x.sc/y.sc/z.sc \012a/a.ss02 bcdetf/f.ss01 g/g.ss02 h/idotless i/jdotless jklmnopqrst/t.ss01 uvwxyz\012f/f_f/f_f_i/f_f_l/fi/fl/fi.ss01/fl.ss01  & 0123456789 /uniE0FF"
);
classes = (
{
automatic = 1;

glyphs = (
{
glyphname = A;
lastChange = "2018-03-27 15:00:53 +0000";
layers = (
{
anchors = (
{
name = bottom;
position = "{446, 0}";
},
{
name = ogonek;
position = "{774, 0}";
},
{
name = top;
position = "{446, 732}";
}
);
layerId = "67AEAADB-8447-4819-9D92-8BB76BD22042";
paths = (
{
closed = 1;
nodes = (
"239 278 LINE",
"239 273 LINE",
"653 273 LINE",
"653 278 LINE"
);
},
{
closed = 1;
nodes = (
"450 752 LINE",
"442 752 LINE",
"119 5 LINE",
"30 5 LINE",
"30 0 LINE",
"351 0 LINE",
"351 5 LINE",
"125 5 LINE",
"448 752 LINE",
"442 746 LINE",
"451 746 LINE",
"444 752 LINE",
"767 5 LINE",
"541 5 LINE",
"541 0 LINE",
"862 0 LINE",
"862 5 LINE",
"773 5 LINE"
);
}
);
width = 892;
},
{
anchors = (
{
name = bottom;
position = "{402, 0}";
},
{
name = ogonek;
position = "{698, 0}";
},
{
name = top;
position = "{402, 772}";
}
);
layerId = "BE4E587A-F76C-447B-AA28-A45E40876AAF";
leftMetricsKey = "=H-8";
paths = (
{
closed = 1;
nodes = (
"171 416 LINE",
"171 277 LINE",
"627 277 LINE",
"627 416 LINE"
);
},
{
closed = 1;
nodes = (
"583 772 LINE",
"265 772 LINE",
"62 207 LINE",
"10 207 LINE",
"10 0 LINE",
"362 0 LINE",
"362 207 LINE",
"287 207 LINE",
"438 720 LINE",
"353 560 LINE",
"451 560 LINE",
"349 720 LINE",
"500 207 LINE",
"437 207 LINE",
"437 0 LINE",
"833 0 LINE",
"833 207 LINE",
"786 207 LINE"
);
}
);
width = 843;
},
{
anchors = (
{
name = bottom;
position = "{395, 0}";
},
{
name = ogonek;
position = "{686, 0}";
},
{
name = top;
position = "{395, 732}";
}
);
layerId = "2C5E45D0-97E8-45AA-A5B2-946753DF54E1";
leftMetricsKey = "=H-16";
paths = (
{
closed = 1;
nodes = (
"198 320 LINE",
"198 231 LINE",
"598 231 LINE",
"598 320 LINE"
);
},
{
closed = 1;
nodes = (
"458 752 LINE",
"340 752 LINE",
"75 93 LINE",
"9 93 LINE",
"9 0 LINE",
"324 0 LINE",
"324 93 LINE",
"177 93 LINE",
"408 670 LINE",
"346 628 LINE",
"444 628 LINE",
"382 670 LINE",
"613 93 LINE",
"466 93 LINE",
"466 0 LINE",
"789 0 LINE",
"789 93 LINE",
"723 93 LINE"
);
}
);
width = 798;
}
);
leftKerningGroup = A;
rightKerningGroup = A;
rightMetricsKey = "=|";
unicode = 0041;
},
{
glyphname = AE;
lastChange = "2018-03-27 15:00:03 +0000";
layers = (
{
anchors = (
{
name = top;
position = "{737, 752}";
}
);
layerId = "67AEAADB-8447-4819-9D92-8BB76BD22042";
leftMetricsKey = "=A-16";
paths = (
{
closed = 1;
nodes = (
"1262 0 LINE",
"1262 187 LINE",
"1257 187 LINE",
"1257 5 LINE",
"712 5 LINE",
"712 747 LINE",
"1248 747 LINE",
"1248 565 LINE",
"1253 565 LINE",
"1253 752 LINE",
"330 752 LINE",
"330 747 LINE",
"707 747 LINE",
"707 5 LINE",
"558 5 LINE",
"558 0 LINE"
);
},
{
closed = 1;
nodes = (
"355 0 LINE",
"355 5 LINE",
"129 5 LINE",
"620 752 LINE",
"614 752 LINE",
"123 5 LINE",
"14 5 LINE",
"14 0 LINE"
);
},
{
closed = 1;
nodes = (
"710 273 LINE",
"710 278 LINE",
"308 278 LINE",
"308 273 LINE"
);
},
{
closed = 1;
nodes = (
"1063 377 LINE",
"1063 382 LINE",
"709 382 LINE",
"709 377 LINE"
);
}
);
width = 1306;
},
{
anchors = (
{
name = top;
position = "{627, 732}";
}
);
layerId = "2C5E45D0-97E8-45AA-A5B2-946753DF54E1";
leftMetricsKey = "=A-11";
paths = (
{
closed = 1;
nodes = (
"1148 0 LINE",
"1148 227 LINE",
"1046 227 LINE",
"1046 93 LINE",
"650 93 LINE",
"650 659 LINE",
"1037 659 LINE",
"1037 525 LINE",
"1139 525 LINE",
"1139 752 LINE",
"200 752 LINE",
"200 659 LINE",
"548 659 LINE",
"548 93 LINE",
"438 93 LINE",
"438 0 LINE"
);
},
{
closed = 1;
nodes = (
"304 0 LINE",
"304 93 LINE",
"176 93 LINE",
"477 722 LINE",
"365 722 LINE",
"64 93 LINE",
"-2 93 LINE",
"-2 0 LINE"
);
},
{
closed = 1;
nodes = (
"612 230 LINE",
"612 320 LINE",
"202 320 LINE",
"202 230 LINE"
);
},
{
closed = 1;
nodes = (
"948 334 LINE",
"948 424 LINE",
"606 424 LINE",
"606 334 LINE"
);
}
);
width = 1180;
},
{
anchors = (
{
name = top;
position = "{719, 772}";
}
);
layerId = "BE4E587A-F76C-447B-AA28-A45E40876AAF";
leftMetricsKey = "=A-7";
paths = (
{
closed = 1;
nodes = (
"1322 0 LINE",
"1322 327 LINE",
"1064 327 LINE",
"1064 207 LINE",
"844 207 LINE",
"844 565 LINE",
"1055 565 LINE",
"1055 445 LINE",
"1313 445 LINE",
"1313 772 LINE",
"160 772 LINE",
"160 565 LINE",
"586 565 LINE",
"586 207 LINE",
"529 207 LINE",
"529 0 LINE"
);
},
{
closed = 1;
nodes = (
"419 0 LINE",
"419 207 LINE",
"356 207 LINE",
"653 772 LINE",
"419 772 LINE",
"70 207 LINE",
"3 207 LINE",
"3 0 LINE"
);
},
{
closed = 1;
nodes = (
"699 252 LINE",
"699 429 LINE",
"243 429 LINE",
"243 252 LINE"
);
},
{
closed = 1;
nodes = (
"997 300 LINE",
"997 477 LINE",
"713 477 LINE",
"713 300 LINE"
);
}
);
width = 1352;
},
{
anchors = (
{
name = top;
position = "{629, 732}";
}
);
associatedMasterId = "2C5E45D0-97E8-45AA-A5B2-946753DF54E1";
layerId = "77E4ACB9-B57D-420A-BA58-EB5078A5F5A8";
leftMetricsKey = "=A-11";
name = "Mar 14 18, 13:56";
paths = (
{
closed = 1;
nodes = (
"1113 0 LINE",
"1113 227 LINE",
"1011 227 LINE",
"1011 93 LINE",
"762 93 LINE",
"569 659 LINE",
"1002 659 LINE",
"1002 525 LINE",
"1104 525 LINE",
"1104 752 LINE",
"202 752 LINE",
"202 659 LINE",
"467 659 LINE",
"660 93 LINE",
"530 93 LINE",
"530 0 LINE"
);
},
{
closed = 1;
nodes = (
"349 0 LINE",
"349 93 LINE",
"222 93 LINE",
"471 722 LINE",
"354 722 LINE",
"116 93 LINE",
"50 93 LINE",
"50 0 LINE"
);
},
{
closed = 1;
nodes = (
"614 242 LINE",
"614 332 LINE",
"224 332 LINE",
"224 242 LINE"
);
},
{
closed = 1;
nodes = (
"913 339 LINE",
"913 429 LINE",
"608 429 LINE",
"608 339 LINE"
);
}
);
width = 1205;
}
);
leftKerningGroup = A;
leftMetricsKey = "A-16";
rightKerningGroup = E;
rightMetricsKey = E;
unicode = 00C6;
},
{
color = 6;
glyphname = B;
lastChange = "2018-03-27 15:26:46 +0000";
layers = (
{
layerId = "67AEAADB-8447-4819-9D92-8BB76BD22042";
paths = (
{
closed = 1;
nodes = (
"418 747 LINE SMOOTH",
"573 747 OFFCURVE",
"667 691 OFFCURVE",
"667 565 CURVE SMOOTH",
"667 446 OFFCURVE",
"583 388 OFFCURVE",
"427 388 CURVE SMOOTH",
"184 388 LINE",
"184 385 LINE",
"425 385 LINE SMOOTH",
"586 385 OFFCURVE",
"672 442 OFFCURVE",
"672 565 CURVE SMOOTH",
"672 694 OFFCURVE",
"576 752 OFFCURVE",
"418 752 CURVE SMOOTH",
"305 752 LINE",
"303 747 LINE"
);
},
{
closed = 1;
nodes = (
"315 0 LINE",
"432 0 LINE SMOOTH",
"599 0 OFFCURVE",
"700 67 OFFCURVE",
"700 195 CURVE SMOOTH",
"700 348 OFFCURVE",
"559 386 OFFCURVE",
"426 386 CURVE SMOOTH",
"184 386 LINE",
"184 383 LINE",
"426 383 LINE SMOOTH",
"556 383 OFFCURVE",
"695 344 OFFCURVE",
"695 195 CURVE SMOOTH",
"695 70 OFFCURVE",
"596 5 OFFCURVE",
"432 5 CURVE SMOOTH",
"315 5 LINE"
);
},
{
closed = 1;
nodes = (
"181 747 LINE",
"181 5 LINE",
"32 5 LINE",
"32 0 LINE",
"335 0 LINE",
"335 5 LINE",
"186 5 LINE",
"186 747 LINE",
"335 747 LINE",
"335 752 LINE",
"32 752 LINE",
"32 747 LINE"
);
}
);
width = 764;
},
{
layerId = "BE4E587A-F76C-447B-AA28-A45E40876AAF";
rightMetricsKey = "=O-4";
paths = (
{
closed = 1;
nodes = (
"451 565 LINE SMOOTH",
"493 565 OFFCURVE",
"514 548 OFFCURVE",
"514 517 CURVE SMOOTH",
"514 486 OFFCURVE",
"493 469 OFFCURVE",
"451 469 CURVE SMOOTH",
"248 469 LINE",
"248 386 LINE",
"456 386 LINE SMOOTH",
"663 386 OFFCURVE",
"773 445 OFFCURVE",
"773 574 CURVE SMOOTH",
"773 705 OFFCURVE",
"661 772 OFFCURVE",
"477 772 CURVE SMOOTH",
"375 772 LINE",
"375 565 LINE"
);
},
{
closed = 1;
nodes = (
"365 0 LINE",
"510 0 LINE SMOOTH",
"691 0 OFFCURVE",
"801 75 OFFCURVE",
"801 211 CURVE SMOOTH",
"801 356 OFFCURVE",
"683 411 OFFCURVE",
"471 411 CURVE SMOOTH",
"248 411 LINE",
"248 312 LINE",
"471 312 LINE SMOOTH",
"518 312 OFFCURVE",
"542 293 OFFCURVE",
"542 260 CURVE SMOOTH",
"542 227 OFFCURVE",
"515 207 OFFCURVE",
"470 207 CURVE SMOOTH",
"365 207 LINE"
);
},
{
closed = 1;
nodes = (
"75 565 LINE",
"75 207 LINE",
"18 207 LINE",
"18 0 LINE",
"403 0 LINE",
"403 207 LINE",
"333 207 LINE",
"333 565 LINE",
"403 565 LINE",
"403 772 LINE",
"18 772 LINE",
"18 565 LINE"
);
}
);
width = 808;
},
{
layerId = "2C5E45D0-97E8-45AA-A5B2-946753DF54E1";
rightMetricsKey = "=O+8";
paths = (
{
closed = 1;
nodes = (
"400 659 LINE SMOOTH",
"486 659 OFFCURVE",
"544 622 OFFCURVE",
"544 547 CURVE SMOOTH",
"544 483 OFFCURVE",
"507 424 OFFCURVE",
"407 424 CURVE SMOOTH",
"208 424 LINE",
"208 374 LINE",
"405 374 LINE SMOOTH",
"567 374 OFFCURVE",
"653 430 OFFCURVE",
"653 558 CURVE SMOOTH",
"653 685 OFFCURVE",
"565 752 OFFCURVE",
"420 752 CURVE SMOOTH",
"325 752 LINE",
"325 659 LINE"
);
},
{
closed = 1;
nodes = (
"315 0 LINE",
"453 0 LINE SMOOTH",
"595 0 OFFCURVE",
"681 76 OFFCURVE",
"681 207 CURVE SMOOTH",
"681 348 OFFCURVE",
"583 399 OFFCURVE",
"406 399 CURVE SMOOTH",
"208 399 LINE",
"208 334 LINE",
"406 334 LINE SMOOTH",
"526 334 OFFCURVE",
"572 282 OFFCURVE",
"572 215 CURVE SMOOTH",
"572 135 OFFCURVE",
"508 93 OFFCURVE",
"412 93 CURVE SMOOTH",
"315 93 LINE"
);
},
{
closed = 1;
nodes = (
"135 659 LINE",
"135 93 LINE",
"25 93 LINE",
"25 0 LINE",
"347 0 LINE",
"347 93 LINE",
"237 93 LINE",
"237 659 LINE",
"347 659 LINE",
"347 752 LINE",
"25 752 LINE",
"25 659 LINE"
);
}
);
width = 729;
}
);
leftKerningGroup = H;
leftMetricsKey = H;
rightKerningGroup = B;
unicode = 0042;
},
{
color = 5;
glyphname = C;
lastChange = "2018-03-27 15:34:07 +0000";
layers = (
{
anchors = (
{
name = bottom;
position = "{436, 0}";
},
{
name = top;
position = "{426, 732}";
}
);
layerId = "67AEAADB-8447-4819-9D92-8BB76BD22042";
rightMetricsKey = "=O-12";
paths = (
{
closed = 1;
nodes = (
"604 -7 OFFCURVE",
"743 114 OFFCURVE",
"779 297 CURVE",
"774 298 LINE",
"739 117 OFFCURVE",
"601 -2 OFFCURVE",
"418 -2 CURVE SMOOTH",
"207 -2 OFFCURVE",
"53 154 OFFCURVE",
"53 378 CURVE SMOOTH",
"53 599 OFFCURVE",
"196 754 OFFCURVE",
"421 754 CURVE SMOOTH",
"604 754 OFFCURVE",
"733 654 OFFCURVE",
"768 457 CURVE",
"772 480 LINE",
"767 480 LINE",
"730 655 OFFCURVE",
"607 759 OFFCURVE",
"421 759 CURVE SMOOTH",
"193 759 OFFCURVE",
"48 602 OFFCURVE",
"48 378 CURVE SMOOTH",
"48 151 OFFCURVE",
"204 -7 OFFCURVE",
"418 -7 CURVE SMOOTH"
);
},
{
closed = 1;
nodes = (
"773 457 LINE",
"773 752 LINE",
"768 752 LINE",
"768 457 LINE"
);
}
);
width = 815;
},
{
anchors = (
{
name = bottom;
position = "{421, 0}";
},
{
name = top;
position = "{426, 772}";
}
);
layerId = "BE4E587A-F76C-447B-AA28-A45E40876AAF";
rightMetricsKey = "=O-2";
paths = (
{
closed = 1;
nodes = (
"649 -14 OFFCURVE",
"810 123 OFFCURVE",
"837 327 CURVE",
"573 364 LINE",
"563 283 OFFCURVE",
"505 229 OFFCURVE",
"426 229 CURVE SMOOTH",
"339 229 OFFCURVE",
"278 294 OFFCURVE",
"278 388 CURVE SMOOTH",
"278 480 OFFCURVE",
"339 543 OFFCURVE",
"430 543 CURVE SMOOTH",
"497 543 OFFCURVE",
"552 508 OFFCURVE",
"573 452 CURVE",
"613 549 LINE",
"565 549 LINE",
"555 709 OFFCURVE",
"487 786 OFFCURVE",
"361 786 CURVE SMOOTH",
"181 786 OFFCURVE",
"11 622 OFFCURVE",
"11 388 CURVE SMOOTH",
"11 151 OFFCURVE",
"181 -14 OFFCURVE",
"426 -14 CURVE SMOOTH"
);
},
{
closed = 1;
nodes = (
"831 452 LINE",
"831 772 LINE",
"573 772 LINE",
"573 452 LINE"
);
}
);
width = 846;
},
{
anchors = (
{
name = bottom;
position = "{420, 0}";
},
{
name = top;
position = "{420, 732}";
}
);
layerId = "2C5E45D0-97E8-45AA-A5B2-946753DF54E1";
rightMetricsKey = "=O-8";
paths = (
{
closed = 1;
nodes = (
"610 -12 OFFCURVE",
"750 102 OFFCURVE",
"787 277 CURVE",
"682 299 LINE",
"655 171 OFFCURVE",
"555 88 OFFCURVE",
"420 88 CURVE SMOOTH",
"260 88 OFFCURVE",
"149 207 OFFCURVE",
"149 378 CURVE SMOOTH",
"149 547 OFFCURVE",
"260 663 OFFCURVE",
"420 663 CURVE SMOOTH",
"555 663 OFFCURVE",
"656 582 OFFCURVE",
"685 457 CURVE",
"712 546 LINE",
"681 546 LINE",
"659 684 OFFCURVE",
"570 763 OFFCURVE",
"417 763 CURVE SMOOTH",
"197 763 OFFCURVE",
"40 604 OFFCURVE",
"40 378 CURVE SMOOTH",
"40 151 OFFCURVE",
"198 -12 OFFCURVE",
"420 -12 CURVE SMOOTH"
);
},
{
closed = 1;
nodes = (
"787 457 LINE",
"787 752 LINE",
"685 752 LINE",
"685 457 LINE"
);
}
);
width = 819;
},
{
associatedMasterId = "2C5E45D0-97E8-45AA-A5B2-946753DF54E1";
layerId = "ABEBCFEB-F4FD-4F73-B8D5-68177E2D0DDB";
rightMetricsKey = "=O+2";
name = "Jan 3 18, 14:47";
paths = (
{
closed = 1;
nodes = (
"788 457 LINE",
"788 752 LINE",
"686 752 LINE",
"686 457 LINE"
);
},
{
closed = 1;
nodes = (
"686 4 LINE",
"788 4 LINE",
"788 285 LINE",
"686 285 LINE"
);
},
{
closed = 1;
nodes = (
"262 93 OFFCURVE",
"150 209 OFFCURVE",
"150 378 CURVE SMOOTH",
"150 547 OFFCURVE",
"261 663 OFFCURVE",
"421 663 CURVE SMOOTH",
"556 663 OFFCURVE",
"657 582 OFFCURVE",
"686 457 CURVE",
"713 546 LINE",
"682 546 LINE",
"660 684 OFFCURVE",
"571 763 OFFCURVE",
"418 763 CURVE SMOOTH",
"198 763 OFFCURVE",
"41 604 OFFCURVE",
"41 378 CURVE SMOOTH",
"41 152 OFFCURVE",
"199 -7 OFFCURVE",
"422 -7 CURVE SMOOTH",
"572 -7 OFFCURVE",
"660 67 OFFCURVE",
"682 196 CURVE",
"713 196 LINE",
"686 285 LINE",
"657 168 OFFCURVE",
"557 93 OFFCURVE",
"425 93 CURVE SMOOTH"
);
}
);
width = 831;
},
{
anchors = (
{
name = bottom;
position = "{436, 0}";
},
{
name = top;
position = "{426, 732}";
}
);
associatedMasterId = "67AEAADB-8447-4819-9D92-8BB76BD22042";
layerId = "51254500-A0C0-4125-AB1B-C82D69DD8A34";
rightMetricsKey = "=O-12";
name = "Light [9]";
paths = (
{
closed = 1;
nodes = (
"608 -7 OFFCURVE",
"745 113 OFFCURVE",
"779 297 CURVE",
"774 298 LINE",
"739 117 OFFCURVE",
"603 -2 OFFCURVE",
"421 -2 CURVE SMOOTH",
"209 -2 OFFCURVE",
"53 154 OFFCURVE",
"53 378 CURVE SMOOTH",
"53 599 OFFCURVE",
"194 754 OFFCURVE",
"422 754 CURVE SMOOTH",
"601 754 OFFCURVE",
"732 654 OFFCURVE",
"768 457 CURVE",
"772 507 LINE",
"767 507 LINE",
"719 663 OFFCURVE",
"602 759 OFFCURVE",
"422 759 CURVE SMOOTH",
"191 759 OFFCURVE",
"48 602 OFFCURVE",
"48 378 CURVE SMOOTH",
"48 151 OFFCURVE",
"206 -7 OFFCURVE",
"421 -7 CURVE SMOOTH"
);
},
{
closed = 1;
nodes = (
"773 457 LINE",
"773 752 LINE",
"768 752 LINE",
"768 457 LINE"
);
}
);
width = 815;
}
);
leftKerningGroup = O;
leftMetricsKey = O;
rightKerningGroup = C;
unicode = 0043;
},
{
color = 6;
glyphname = D;
lastChange = "2018-03-27 15:26:46 +0000";
layers = (
{
anchors = (
{
name = top;
position = "{404, 732}";
}
);
layerId = "67AEAADB-8447-4819-9D92-8BB76BD22042";
paths = (
{
closed = 1;
nodes = (
"393 0 LINE SMOOTH",
"636 0 OFFCURVE",
"790 155 OFFCURVE",
"790 378 CURVE SMOOTH",
"790 598 OFFCURVE",
"636 752 OFFCURVE",
"393 752 CURVE SMOOTH",
"300 752 LINE",
"300 747 LINE",
"393 747 LINE SMOOTH",
"634 747 OFFCURVE",
"785 595 OFFCURVE",
"785 378 CURVE SMOOTH",
"785 158 OFFCURVE",
"634 5 OFFCURVE",
"393 5 CURVE SMOOTH",
"298 5 LINE",
"298 0 LINE"
);
},
{
closed = 1;
nodes = (
"309 0 LINE",
"309 5 LINE",
"186 5 LINE",
"186 747 LINE",
"309 747 LINE",
"309 752 LINE",
"32 752 LINE",
"32 747 LINE",
"181 747 LINE",
"181 5 LINE",
"32 5 LINE",
"32 0 LINE"
);
}
);
width = 838;
},
{
anchors = (
{
name = top;
position = "{393, 772}";
}
);
layerId = "BE4E587A-F76C-447B-AA28-A45E40876AAF";
paths = (
{
closed = 1;
nodes = (
"408 0 LINE",
"663 0 OFFCURVE",
"833 159 OFFCURVE",
"833 388 CURVE SMOOTH",
"833 613 OFFCURVE",
"663 771 OFFCURVE",
"408 772 CURVE",
"331 772 LINE",
"331 565 LINE",
"402 565 LINE",
"505 565 OFFCURVE",
"566 493 OFFCURVE",
"566 388 CURVE SMOOTH",
"566 281 OFFCURVE",
"505 206 OFFCURVE",
"402 207 CURVE",
"331 207 LINE",
"331 0 LINE"
);
},
{
closed = 1;
nodes = (
"370 0 LINE",
"370 207 LINE",
"333 207 LINE",
"333 565 LINE",
"370 565 LINE",
"370 772 LINE",
"18 772 LINE",
"18 565 LINE",
"75 565 LINE",
"75 207 LINE",
"18 207 LINE",
"18 0 LINE"
);
}
);
width = 844;
},
{
anchors = (
{
name = top;
position = "{384, 732}";
}
);
layerId = "2C5E45D0-97E8-45AA-A5B2-946753DF54E1";
paths = (
{
closed = 1;
nodes = (
"393 0 LINE SMOOTH",
"624 0 OFFCURVE",
"783 155 OFFCURVE",
"783 378 CURVE SMOOTH",
"783 598 OFFCURVE",
"624 752 OFFCURVE",
"393 752 CURVE SMOOTH",
"335 752 LINE",
"335 659 LINE",
"393 659 LINE SMOOTH",
"560 659 OFFCURVE",
"675 545 OFFCURVE",
"675 378 CURVE SMOOTH",
"675 210 OFFCURVE",
"560 93 OFFCURVE",
"393 93 CURVE SMOOTH",
"335 93 LINE",
"335 0 LINE"
);
},
{
closed = 1;
nodes = (
"367 0 LINE",
"367 93 LINE",
"237 93 LINE",
"237 659 LINE",
"367 659 LINE",
"367 752 LINE",
"25 752 LINE",
"25 659 LINE",
"135 659 LINE",
"135 93 LINE",
"25 93 LINE",
"25 0 LINE"
);
}
);
width = 823;
}
);
leftKerningGroup = H;
leftMetricsKey = H;
rightKerningGroup = O;
rightMetricsKey = O;
unicode = 0044;
},
{
glyphname = Eth;
lastChange = "2018-03-27 14:50:39 +0000";
layers = (
{
components = (
{
name = D;
transform = "{1, 0, 0, 1, 12, 0}";
}
);
layerId = "67AEAADB-8447-4819-9D92-8BB76BD22042";
leftMetricsKey = "=D+12";
paths = (
{
closed = 1;
nodes = (
"75 382 LINE",
"75 377 LINE",
"456 377 LINE",
"456 382 LINE"
);
}
);
width = 850;
},
{
components = (
{
name = D;
transform = "{1, 0, 0, 1, 14, 0}";
}
);
layerId = "2C5E45D0-97E8-45AA-A5B2-946753DF54E1";
leftMetricsKey = "=D+14";
paths = (
{
closed = 1;
nodes = (
"63 424 LINE",
"63 334 LINE",
"458 334 LINE",
"458 424 LINE"
);
}
);
width = 837;
},
{
components = (
{
name = D;
transform = "{1, 0, 0, 1, 2, 0}";
}
);
layerId = "BE4E587A-F76C-447B-AA28-A45E40876AAF";
paths = (
{
closed = 1;
nodes = (
"18 477 LINE",
"18 300 LINE",
"426 300 LINE",
"426 477 LINE"
);
}
);
width = 846;
}
);
leftKerningGroup = H;
leftMetricsKey = D;
rightKerningGroup = O;
rightMetricsKey = D;
unicode = 00D0;
},
{
glyphname = E;
lastChange = "2018-03-27 03:01:22 +0000";
layers = (
{
anchors = (
{
name = bottom;
position = "{482, 0}";
},
{
name = ogonek;
position = "{813, 0}";
},
{
name = top;
position = "{443, 732}";
}
);
layerId = "67AEAADB-8447-4819-9D92-8BB76BD22042";
rightMetricsKey = "=H+12";
paths = (
{
closed = 1;
nodes = (
"183 382 LINE",
"183 377 LINE",
"524 377 LINE",
"524 382 LINE"
);
},
{
closed = 1;
nodes = (
"718 5 LINE",
"186 5 LINE",
"186 747 LINE",
"709 747 LINE",
"709 565 LINE",
"714 565 LINE",
"714 752 LINE",
"32 752 LINE",
"32 747 LINE",
"181 747 LINE",
"181 5 LINE",
"32 5 LINE",
"32 0 LINE",
"723 0 LINE",
"723 187 LINE",
"718 187 LINE"
);
}
);
width = 767;
},
{
anchors = (
{
name = bottom;
position = "{424, 0}";
},
{
name = ogonek;
position = "{811, 0}";
},
{
name = top;
position = "{424, 772}";
}
);
layerId = "BE4E587A-F76C-447B-AA28-A45E40876AAF";
rightMetricsKey = "=H+12";
paths = (
{
closed = 1;
nodes = (
"202 477 LINE",
"202 300 LINE",
"486 300 LINE",
"486 477 LINE"
);
},
{
closed = 1;
nodes = (
"553 207 LINE",
"333 207 LINE",
"333 565 LINE",
"544 565 LINE",
"544 445 LINE",
"802 445 LINE",
"802 772 LINE",
"18 772 LINE",
"18 565 LINE",
"75 565 LINE",
"75 207 LINE",
"18 207 LINE",
"18 0 LINE",
"811 0 LINE",
"811 327 LINE",
"553 327 LINE"
);
}
);
width = 841;
},
{
anchors = (
{
name = bottom;
position = "{404, 0}";
},
{
name = ogonek;
position = "{735, 0}";
},
{
name = top;
position = "{404, 732}";
}
);
layerId = "2C5E45D0-97E8-45AA-A5B2-946753DF54E1";
leftMetricsKey = "=H";
rightMetricsKey = "=H+7";
paths = (
{
closed = 1;
nodes = (
"193 424 LINE",
"193 334 LINE",
"535 334 LINE",
"535 424 LINE"
);
},
{
closed = 1;
nodes = (
"633 93 LINE",
"237 93 LINE",
"237 659 LINE",
"624 659 LINE",
"624 525 LINE",
"726 525 LINE",
"726 752 LINE",
"25 752 LINE",
"25 659 LINE",
"135 659 LINE",
"135 93 LINE",
"25 93 LINE",
"25 0 LINE",
"735 0 LINE",
"735 227 LINE",
"633 227 LINE"
);
}
);
width = 767;
}
);
leftKerningGroup = H;
leftMetricsKey = H;
rightKerningGroup = E;
unicode = 0045;
},
{
glyphname = F;
lastChange = "2018-03-27 03:01:22 +0000";
layers = (
{
layerId = "67AEAADB-8447-4819-9D92-8BB76BD22042";
rightMetricsKey = "=H-14";
paths = (
{
closed = 1;
nodes = (
"183 382 LINE",
"183 377 LINE",
"507 377 LINE",
"507 382 LINE"
);
},
{
closed = 1;
nodes = (
"32 752 LINE",
"32 747 LINE",
"181 747 LINE",
"181 5 LINE",
"32 5 LINE",
"32 0 LINE",
"349 0 LINE",
"349 5 LINE",
"186 5 LINE",
"186 747 LINE",
"677 747 LINE",
"677 565 LINE",
"682 565 LINE",
"682 752 LINE"
);
}
);
width = 700;
},
{
layerId = "BE4E587A-F76C-447B-AA28-A45E40876AAF";
rightMetricsKey = "=H-12";
paths = (
{
closed = 1;
nodes = (
"202 477 LINE",
"202 300 LINE",
"468 300 LINE",
"468 477 LINE"
);
},
{
closed = 1;
nodes = (
"18 772 LINE",
"18 565 LINE",
"75 565 LINE",
"75 207 LINE",
"18 207 LINE",
"18 0 LINE",
"448 0 LINE",
"448 207 LINE",
"333 207 LINE",
"333 565 LINE",
"520 565 LINE",
"520 435 LINE",
"778 435 LINE",
"778 772 LINE"
);
}
);
width = 784;
},
{
layerId = "2C5E45D0-97E8-45AA-A5B2-946753DF54E1";
leftMetricsKey = "=H";
rightMetricsKey = "=H-16";
paths = (
{
closed = 1;
nodes = (
"193 424 LINE",
"193 334 LINE",
"490 334 LINE",
"490 424 LINE"
);
},
{
closed = 1;
nodes = (
"25 752 LINE",
"25 659 LINE",
"135 659 LINE",
"135 93 LINE",
"25 93 LINE",
"25 0 LINE",
"375 0 LINE",
"375 93 LINE",
"237 93 LINE",
"237 659 LINE",
"582 659 LINE",
"582 525 LINE",
"684 525 LINE",
"684 752 LINE"
);
}
);
width = 693;
}
);
leftKerningGroup = H;
leftMetricsKey = H;
rightKerningGroup = F;
unicode = 0046;
},
{
color = 7;
glyphname = G;
lastChange = "2018-03-27 15:34:19 +0000";
layers = (
{
anchors = (
{
name = bottom;
position = "{364, 0}";
},
{
name = top;
position = "{419, 732}";
}
);
layerId = "67AEAADB-8447-4819-9D92-8BB76BD22042";
rightMetricsKey = "=H-8";
paths = (
{
closed = 1;
nodes = (
"611 -7 OFFCURVE",
"757 132 OFFCURVE",
"778 340 CURVE",
"774 341 LINE",
"752 134 OFFCURVE",
"608 -2 OFFCURVE",
"418 -2 CURVE SMOOTH",
"207 -2 OFFCURVE",
"53 154 OFFCURVE",
"53 378 CURVE SMOOTH",
"53 599 OFFCURVE",
"198 754 OFFCURVE",
"426 754 CURVE SMOOTH",
"609 754 OFFCURVE",
"733 654 OFFCURVE",
"768 457 CURVE",
"772 480 LINE",
"767 480 LINE",
"731 655 OFFCURVE",
"613 759 OFFCURVE",
"426 759 CURVE SMOOTH",
"195 759 OFFCURVE",
"48 602 OFFCURVE",
"48 378 CURVE SMOOTH",
"48 151 OFFCURVE",
"204 -7 OFFCURVE",
"418 -7 CURVE SMOOTH"
);
},
{
closed = 1;
nodes = (
"779 0 LINE",
"779 343 LINE",
"774 343 LINE",
"774 324 LINE",
"774 0 LINE"
);
},
{
closed = 1;
nodes = (
"873 340 LINE",
"873 345 LINE",
"479 345 LINE",
"479 340 LINE"
);
},
{
closed = 1;
nodes = (
"773 457 LINE",
"773 752 LINE",
"768 752 LINE",
"768 457 LINE"
);
}
);
width = 897;
},
{
anchors = (
{
name = bottom;
position = "{420, 0}";
},
{
name = top;
position = "{428, 732}";
}
);
layerId = "BE4E587A-F76C-447B-AA28-A45E40876AAF";
paths = (
{
closed = 1;
nodes = (
"605 -14 OFFCURVE",
"713 91 OFFCURVE",
"737 327 CURVE",
"625 334 LINE",
"594 267 OFFCURVE",
"520 223 OFFCURVE",
"439 223 CURVE SMOOTH",
"337 223 OFFCURVE",
"278 290 OFFCURVE",
"278 388 CURVE SMOOTH",
"278 480 OFFCURVE",
"341 543 OFFCURVE",
"434 543 CURVE SMOOTH",
"500 543 OFFCURVE",
"553 512 OFFCURVE",
"573 462 CURVE",
"613 559 LINE",
"565 559 LINE",
"555 712 OFFCURVE",
"487 786 OFFCURVE",
"363 786 CURVE SMOOTH",
"181 786 OFFCURVE",
"11 622 OFFCURVE",
"11 388 CURVE SMOOTH",
"11 151 OFFCURVE",
"181 -14 OFFCURVE",
"418 -14 CURVE SMOOTH"
);
},
{
closed = 1;
nodes = (
"837 0 LINE",
"837 368 LINE",
"579 368 LINE",
"579 226 LINE",
"693 0 LINE"
);
},
{
closed = 1;
nodes = (
"892 277 LINE",
"892 436 LINE",
"404 436 LINE",
"404 277 LINE"
);
},
{
closed = 1;
nodes = (
"831 462 LINE",
"831 772 LINE",
"573 772 LINE",
"573 462 LINE"
);
}
);
width = 902;
},
{
anchors = (
{
name = bottom;
position = "{419, 0}";
},
{
name = top;
position = "{427, 732}";
}
);
layerId = "2C5E45D0-97E8-45AA-A5B2-946753DF54E1";
rightMetricsKey = "=H-19";
paths = (
{
closed = 1;
nodes = (
"597 -11 OFFCURVE",
"732 103 OFFCURVE",
"769 277 CURVE",
"691 299 LINE",
"661 172 OFFCURVE",
"559 89 OFFCURVE",
"420 89 CURVE SMOOTH",
"260 89 OFFCURVE",
"149 208 OFFCURVE",
"149 378 CURVE SMOOTH",
"149 547 OFFCURVE",
"260 663 OFFCURVE",
"420 663 CURVE SMOOTH",
"555 663 OFFCURVE",
"656 582 OFFCURVE",
"685 457 CURVE",
"712 546 LINE",
"681 546 LINE",
"659 684 OFFCURVE",
"570 763 OFFCURVE",
"417 763 CURVE SMOOTH",
"197 763 OFFCURVE",
"40 604 OFFCURVE",
"40 378 CURVE SMOOTH",
"40 153 OFFCURVE",
"197 -11 OFFCURVE",
"415 -11 CURVE SMOOTH"
);
},
{
closed = 1;
nodes = (
"791 0 LINE",
"791 368 LINE",
"689 368 LINE",
"689 116 LINE",
"726 0 LINE"
);
},
{
closed = 1;
nodes = (
"900 278 LINE",
"900 371 LINE",
"493 371 LINE",
"493 278 LINE"
);
},
{
closed = 1;
nodes = (
"787 457 LINE",
"787 752 LINE",
"685 752 LINE",
"685 457 LINE"
);
}
);
width = 906;
},
{
associatedMasterId = "2C5E45D0-97E8-45AA-A5B2-946753DF54E1";
layerId = "5EAA0A0D-DF81-4506-9706-629629C5BCC5";
rightMetricsKey = "=H-20";
name = "Dec 25 17, 01:58";
paths = (
{
closed = 1;
nodes = (
"789 0 LINE",
"789 368 LINE",
"687 368 LINE",
"687 0 LINE"
);
},
{
closed = 1;
nodes = (
"902 278 LINE",
"902 371 LINE",
"495 371 LINE",
"495 278 LINE"
);
},
{
closed = 1;
nodes = (
"789 457 LINE",
"789 752 LINE",
"687 752 LINE",
"687 457 LINE"
);
},
{
closed = 1;
nodes = (
"263 89 OFFCURVE",
"152 206 OFFCURVE",
"151 376 CURVE SMOOTH",
"151 546 OFFCURVE",
"262 663 OFFCURVE",
"422 663 CURVE SMOOTH",
"557 663 OFFCURVE",
"658 582 OFFCURVE",
"687 457 CURVE",
"714 546 LINE",
"683 546 LINE",
"661 684 OFFCURVE",
"572 763 OFFCURVE",
"419 763 CURVE SMOOTH",
"199 763 OFFCURVE",
"42 603 OFFCURVE",
"42 376 CURVE SMOOTH",
"42 149 OFFCURVE",
"199 -11 OFFCURVE",
"419 -11 CURVE SMOOTH",
"572 -11 OFFCURVE",
"661 68 OFFCURVE",
"683 206 CURVE",
"714 206 LINE",
"687 295 LINE",
"658 170 OFFCURVE",
"557 89 OFFCURVE",
"422 89 CURVE SMOOTH"
);
}
);
width = 912;
},
{
anchors = (
{
name = bottom;
position = "{364, 0}";
},
{
name = top;
position = "{419, 732}";
}
);
associatedMasterId = "67AEAADB-8447-4819-9D92-8BB76BD22042";
layerId = "6F48D09F-76B3-4A76-9440-FF62DA06DCD1";
rightMetricsKey = "=H-8";
name = "Light [9]";
paths = (
{
closed = 1;
nodes = (
"613 -7 OFFCURVE",
"757 130 OFFCURVE",
"778 340 CURVE",
"774 341 LINE",
"752 134 OFFCURVE",
"608 -2 OFFCURVE",
"418 -2 CURVE SMOOTH",
"207 -2 OFFCURVE",
"53 154 OFFCURVE",
"53 378 CURVE SMOOTH",
"53 599 OFFCURVE",
"198 754 OFFCURVE",
"426 754 CURVE SMOOTH",
"607 754 OFFCURVE",
"733 654 OFFCURVE",
"768 457 CURVE",
"772 507 LINE",
"767 507 LINE",
"733 657 OFFCURVE",
"613 759 OFFCURVE",
"426 759 CURVE SMOOTH",
"195 759 OFFCURVE",
"48 602 OFFCURVE",
"48 378 CURVE SMOOTH",
"48 151 OFFCURVE",
"204 -7 OFFCURVE",
"418 -7 CURVE SMOOTH"
);
},
{
closed = 1;
nodes = (
"779 0 LINE",
"779 343 LINE",
"774 343 LINE",
"774 324 LINE",
"774 0 LINE"
);
},
{
closed = 1;
nodes = (
"873 340 LINE",
"873 345 LINE",
"479 345 LINE",
"479 340 LINE"
);
},
{
closed = 1;
nodes = (
"773 457 LINE",
"773 752 LINE",
"768 752 LINE",
"768 457 LINE"
);
}
);
width = 897;
}
);
leftKerningGroup = O;
leftMetricsKey = O;
rightKerningGroup = G;
rightMetricsKey = "=H-8";
unicode = 0047;
},
{
glyphname = H;
lastChange = "2018-03-27 14:27:27 +0000";
layers = (
{
anchors = (
{
name = top;
position = "{468, 752}";
}
);
layerId = "67AEAADB-8447-4819-9D92-8BB76BD22042";
leftMetricsKey = "=l-18";
paths = (
{
closed = 1;
nodes = (
"183 382 LINE",
"183 377 LINE",
"752 377 LINE",
"752 382 LINE"
);
},
{
closed = 1;
nodes = (
"181 747 LINE",
"181 5 LINE",
"32 5 LINE",
"32 0 LINE",
"334 0 LINE",
"334 5 LINE",
"186 5 LINE",
"186 747 LINE",
"334 747 LINE",
"334 752 LINE",
"32 752 LINE",
"32 747 LINE"
);
},
{
closed = 1;
nodes = (
"751 747 LINE",
"751 5 LINE",
"602 5 LINE",
"602 0 LINE",
"904 0 LINE",
"904 5 LINE",
"756 5 LINE",
"756 747 LINE",
"904 747 LINE",
"904 752 LINE",
"602 752 LINE",
"602 747 LINE"
);
}
);
width = 936;
},
{
anchors = (
{
name = top;
position = "{435, 772}";
}
);
layerId = "BE4E587A-F76C-447B-AA28-A45E40876AAF";
leftMetricsKey = "=l+4";
rightMetricsKey = "=|l+4";
paths = (
{
closed = 1;
nodes = (
"202 477 LINE",
"202 300 LINE",
"658 300 LINE",
"658 477 LINE"
);
},
{
closed = 1;
nodes = (
"75 565 LINE",
"75 207 LINE",
"18 207 LINE",
"18 0 LINE",
"390 0 LINE",
"390 207 LINE",
"333 207 LINE",
"333 565 LINE",
"390 565 LINE",
"390 772 LINE",
"18 772 LINE",
"18 565 LINE"
);
},
{
closed = 1;
nodes = (
"537 565 LINE",
"537 207 LINE",
"480 207 LINE",
"480 0 LINE",
"852 0 LINE",
"852 207 LINE",
"795 207 LINE",
"795 565 LINE",
"852 565 LINE",
"852 772 LINE",
"480 772 LINE",
"480 565 LINE"
);
}
);
width = 870;
},
{
anchors = (
{
name = top;
position = "{429, 732}";
}
);
layerId = "2C5E45D0-97E8-45AA-A5B2-946753DF54E1";
leftMetricsKey = "=l-6";
rightMetricsKey = "=|";
paths = (
{
closed = 1;
nodes = (
"193 424 LINE",
"193 334 LINE",
"679 334 LINE",
"679 424 LINE"
);
},
{
closed = 1;
nodes = (
"135 659 LINE",
"135 93 LINE",
"25 93 LINE",
"25 0 LINE",
"347 0 LINE",
"347 93 LINE",
"237 93 LINE",
"237 659 LINE",
"347 659 LINE",
"347 752 LINE",
"25 752 LINE",
"25 659 LINE"
);
},
{
closed = 1;
nodes = (
"645 659 LINE",
"645 93 LINE",
"535 93 LINE",
"535 0 LINE",
"857 0 LINE",
"857 93 LINE",
"747 93 LINE",
"747 659 LINE",
"857 659 LINE",
"857 752 LINE",
"535 752 LINE",
"535 659 LINE"
);
}
);
width = 882;
}
);
leftKerningGroup = H;
leftMetricsKey = l;
rightKerningGroup = H;
rightMetricsKey = "=|";
unicode = 0048;
},
{
glyphname = Hbar;
lastChange = "2018-03-27 18:33:07 +0000";
layers = (
{
components = (
{
name = H;
},
{
name = strokelongcomb;
transform = "{1, 0, 0, 1, 6, 0}";
}
);
layerId = "67AEAADB-8447-4819-9D92-8BB76BD22042";
width = 950;
},
{
components = (
{
name = H;
},
{
name = strokelongcomb;
transform = "{1, 0, 0, 1, 21, 0}";
}
);
layerId = "2C5E45D0-97E8-45AA-A5B2-946753DF54E1";
width = 894;
},
{
associatedMasterId = "BE4E587A-F76C-447B-AA28-A45E40876AAF";
components = (
{
name = H;
}
);
layerId = "72445A26-9631-4F42-ACC4-6356C4616E5A";
name = "Feb 18 18, 21:24";
paths = (
{
closed = 1;
nodes = (
"16 479 LINE",
"16 302 LINE",
"850 302 LINE",
"850 479 LINE"
);
}
);
width = 866;
},
{
components = (
{
name = H;
},
{
name = strokelongcomb;
transform = "{1, 0, 0, 1, -11, 0}";
}
);
layerId = "BE4E587A-F76C-447B-AA28-A45E40876AAF";
width = 881;
}
);
leftKerningGroup = H;
leftMetricsKey = H;
rightKerningGroup = H;
rightMetricsKey = H;
unicode = 0126;
},
{
glyphname = I;
lastChange = "2018-03-27 03:01:21 +0000";
layers = (
{
anchors = (
{
name = bottom;
position = "{184, 0}";
},
{
name = ogonek;
position = "{346, 0}";
},
{
name = top;
position = "{185, 732}";
}
);
layerId = "67AEAADB-8447-4819-9D92-8BB76BD22042";
paths = (
{
closed = 1;
nodes = (
"181 747 LINE",
"181 5 LINE",
"32 5 LINE",
"32 0 LINE",
"335 0 LINE",
"335 5 LINE",
"186 5 LINE",
"186 747 LINE",
"335 747 LINE",
"335 752 LINE",
"32 752 LINE",
"32 747 LINE"
);
}
);
width = 367;
},
{
anchors = (
{
name = bottom;
position = "{204, 0}";
},
{
name = ogonek;
position = "{376, 0}";
},
{
name = top;
position = "{215, 752}";
}
);
layerId = "BE4E587A-F76C-447B-AA28-A45E40876AAF";
paths = (
{
closed = 1;
nodes = (
"75 565 LINE",
"75 207 LINE",
"18 207 LINE",
"18 0 LINE",
"390 0 LINE",
"390 207 LINE",
"333 207 LINE",
"333 565 LINE",
"390 565 LINE",
"390 772 LINE",
"18 772 LINE",
"18 565 LINE"
);
}
);
width = 408;
},
{
anchors = (
{
name = bottom;
position = "{186, 0}";
},
{
name = ogonek;
position = "{347, 0}";
},
{
name = top;
position = "{186, 732}";
}
);
layerId = "2C5E45D0-97E8-45AA-A5B2-946753DF54E1";
paths = (
{
closed = 1;
nodes = (
"135 659 LINE",
"135 93 LINE",
"25 93 LINE",
"25 0 LINE",
"347 0 LINE",
"347 93 LINE",
"237 93 LINE",
"237 659 LINE",
"347 659 LINE",
"347 752 LINE",
"25 752 LINE",
"25 659 LINE"
);
}
);
width = 372;
}
);
leftKerningGroup = H;
leftMetricsKey = H;
rightKerningGroup = H;
rightMetricsKey = H;
unicode = 0049;
},
{
color = 6;
glyphname = J;
lastChange = "2018-03-27 20:04:13 +0000";
layers = (
{
anchors = (
{
name = top;
position = "{398, 744}";
}
);
layerId = "67AEAADB-8447-4819-9D92-8BB76BD22042";
leftMetricsKey = "=|F";
rightMetricsKey = "=H-18";
paths = (
{
closed = 1;
nodes = (
"329 -7 OFFCURVE",
"396 73 OFFCURVE",
"396 219 CURVE SMOOTH",
"396 747 LINE",
"545 747 LINE",
"545 752 LINE",
"222 752 LINE",
"222 747 LINE",
"391 747 LINE",
"391 219 LINE SMOOTH",
"391 75 OFFCURVE",
"326 -2 OFFCURVE",
"204 -2 CURVE SMOOTH",
"83 -2 OFFCURVE",
"23 76 OFFCURVE",
"23 219 CURVE SMOOTH",
"23 280 LINE",
"18 280 LINE",
"18 219 LINE SMOOTH",
"18 73 OFFCURVE",
"80 -7 OFFCURVE",
"204 -7 CURVE SMOOTH"
);
}
);
width = 559;
},
{
anchors = (
{
name = top;
position = "{451, 744}";
}
);
layerId = "BE4E587A-F76C-447B-AA28-A45E40876AAF";
leftMetricsKey = "=|F";
rightMetricsKey = "=H-6";
paths = (
{
closed = 1;
nodes = (
"491 -10 OFFCURVE",
"576 105 OFFCURVE",
"576 278 CURVE SMOOTH",
"576 565 LINE",
"633 565 LINE",
"633 772 LINE",
"232 772 LINE",
"232 565 LINE",
"318 565 LINE",
"318 279 LINE SMOOTH",
"318 250 OFFCURVE",
"310 233 OFFCURVE",
"291 233 CURVE SMOOTH",
"272 233 OFFCURVE",
"264 250 OFFCURVE",
"264 279 CURVE SMOOTH",
"264 312 LINE",
"6 312 LINE",
"6 279 LINE SMOOTH",
"6 98 OFFCURVE",
"90 -10 OFFCURVE",
"291 -10 CURVE SMOOTH"
);
}
);
width = 645;
},
{
anchors = (
{
name = top;
position = "{382, 732}";
}
);
layerId = "2C5E45D0-97E8-45AA-A5B2-946753DF54E1";
leftMetricsKey = "=|F";
rightMetricsKey = "=H-16";
paths = (
{
closed = 1;
nodes = (
"369 -10 OFFCURVE",
"435 81 OFFCURVE",
"435 226 CURVE SMOOTH",
"435 659 LINE",
"545 659 LINE",
"545 752 LINE",
"201 752 LINE",
"201 659 LINE",
"333 659 LINE",
"333 227 LINE SMOOTH",
"333 134 OFFCURVE",
"295 90 OFFCURVE",
"222 90 CURVE SMOOTH",
"149 90 OFFCURVE",
"111 136 OFFCURVE",
"111 227 CURVE SMOOTH",
"111 280 LINE",
"9 280 LINE",
"9 227 LINE SMOOTH",
"9 75 OFFCURVE",
"72 -10 OFFCURVE",
"223 -10 CURVE SMOOTH"
);
}
);
width = 554;
}
);
leftKerningGroup = J;
rightKerningGroup = J;
unicode = 004A;
},
{
glyphname = K;
lastChange = "2018-03-27 14:58:03 +0000";
layers = (
{
anchors = (
{
name = bottom;
position = "{464, 0}";
},
{
name = top;
position = "{444, 732}";
}
);
layerId = "67AEAADB-8447-4819-9D92-8BB76BD22042";
paths = (
{
closed = 1;
nodes = (
"181 747 LINE",
"181 5 LINE",
"32 5 LINE",
"32 0 LINE",
"335 0 LINE",
"335 5 LINE",
"186 5 LINE",
"186 747 LINE",
"335 747 LINE",
"335 752 LINE",
"32 752 LINE",
"32 747 LINE"
);
},
{
closed = 1;
nodes = (
"426 448 LINE",
"803 5 LINE",
"546 5 LINE",
"546 0 LINE",
"891 0 LINE",
"891 5 LINE",
"809 5 LINE",
"431 450 LINE"
);
},
{
closed = 1;
nodes = (
"184 219 LINE",
"754 747 LINE",
"859 747 LINE",
"859 752 LINE",
"496 752 LINE",
"496 747 LINE",
"747 747 LINE",
"182 224 LINE"
);
}
);
width = 921;
},
{
anchors = (
{
name = bottom;
position = "{459, 0}";
},
{
name = top;
position = "{442, 752}";
}
);
layerId = "BE4E587A-F76C-447B-AA28-A45E40876AAF";
paths = (
{
closed = 1;
nodes = (
"73 565 LINE",
"73 207 LINE",
"18 207 LINE",
"18 0 LINE",
"386 0 LINE",
"386 207 LINE",
"331 207 LINE",
"331 565 LINE",
"386 565 LINE",
"386 772 LINE",
"18 772 LINE",
"18 565 LINE"
);
},
{
closed = 1;
nodes = (
"401 385 LINE",
"509 207 LINE",
"442 207 LINE",
"442 0 LINE",
"926 0 LINE",
"926 207 LINE",
"873 207 LINE",
"630 483 LINE"
);
},
{
closed = 1;
nodes = (
"312 211 LINE",
"841 565 LINE",
"901 565 LINE",
"901 772 LINE",
"442 772 LINE",
"442 565 LINE",
"516 565 LINE",
"216 354 LINE"
);
}
);
width = 936;
},
{
anchors = (
{
name = bottom;
position = "{443, 0}";
},
{
name = top;
position = "{426, 732}";
}
);
layerId = "2C5E45D0-97E8-45AA-A5B2-946753DF54E1";
paths = (
{
closed = 1;
nodes = (
"135 659 LINE",
"135 93 LINE",
"25 93 LINE",
"25 0 LINE",
"347 0 LINE",
"347 93 LINE",
"237 93 LINE",
"237 659 LINE",
"347 659 LINE",
"347 752 LINE",
"25 752 LINE",
"25 659 LINE"
);
},
{
closed = 1;
nodes = (
"365 385 LINE",
"620 93 LINE",
"425 93 LINE",
"425 0 LINE",
"860 0 LINE",
"860 93 LINE",
"750 93 LINE",
"424 463 LINE"
);
},
{
closed = 1;
nodes = (
"216 211 LINE",
"715 659 LINE",
"813 659 LINE",
"813 752 LINE",
"425 752 LINE",
"425 659 LINE",
"581 659 LINE",
"180 295 LINE"
);
}
);
width = 869;
}
);
leftKerningGroup = H;
leftMetricsKey = H;
rightKerningGroup = K;
rightMetricsKey = A;
unicode = 004B;
},
{
glyphname = L;
lastChange = "2018-03-27 03:01:22 +0000";
layers = (
{
anchors = (
{
name = bottom;
position = "{361, 0}";
},
{
name = right;
position = "{373, 369}";
},
{
name = top;
position = "{187, 732}";
}
);
layerId = "67AEAADB-8447-4819-9D92-8BB76BD22042";
paths = (
{
closed = 1;
nodes = (
"181 747 LINE",
"181 5 LINE",
"32 5 LINE",
"32 0 LINE",
"638 0 LINE",
"638 5 LINE",
"186 5 LINE",
"186 747 LINE",
"335 747 LINE",
"335 752 LINE",
"32 752 LINE",
"32 747 LINE"
);
},
{
closed = 1;
nodes = (
"635 245 LINE",
"635 0 LINE",
"640 0 LINE",
"640 245 LINE"
);
}
);
width = 658;
},
{
anchors = (
{
name = bottom;
position = "{370, 0}";
},
{
name = right;
position = "{406, 369}";
},
{
name = top;
position = "{215, 732}";
}
);
layerId = "BE4E587A-F76C-447B-AA28-A45E40876AAF";
paths = (
{
closed = 1;
nodes = (
"75 565 LINE",
"75 207 LINE",
"18 207 LINE",
"18 0 LINE",
"575 0 LINE",
"575 207 LINE",
"333 207 LINE",
"333 565 LINE",
"390 565 LINE",
"390 772 LINE",
"18 772 LINE",
"18 565 LINE"
);
},
{
closed = 1;
nodes = (
"487 368 LINE",
"487 0 LINE",
"745 0 LINE",
"745 368 LINE"
);
}
);
width = 751;
},
{
anchors = (
{
name = bottom;
position = "{341, 0}";
},
{
name = right;
position = "{352, 498}";
},
{
name = top;
position = "{186, 732}";
}
);
layerId = "2C5E45D0-97E8-45AA-A5B2-946753DF54E1";
paths = (
{
closed = 1;
nodes = (
"135 659 LINE",
"135 93 LINE",
"25 93 LINE",
"25 0 LINE",
"582 0 LINE",
"582 93 LINE",
"237 93 LINE",
"237 659 LINE",
"352 659 LINE",
"352 752 LINE",
"25 752 LINE",
"25 659 LINE"
);
},
{
closed = 1;
nodes = (
"542 253 LINE",
"542 0 LINE",
"644 0 LINE",
"644 253 LINE"
);
}
);
width = 653;
}
);
leftKerningGroup = H;
leftMetricsKey = H;
rightKerningGroup = L;
rightMetricsKey = F;
unicode = 004C;
},
{
glyphname = M;
lastChange = "2018-03-27 15:06:13 +0000";
layers = (
{
layerId = "67AEAADB-8447-4819-9D92-8BB76BD22042";
paths = (
{
closed = 1;
nodes = (
"554 0 LINE",
"914 752 LINE",
"908 752 LINE",
"548 0 LINE",
"552 0 LINE",
"192 752 LINE",
"186 752 LINE",
"546 0 LINE"
);
},
{
closed = 1;
nodes = (
"335 0 LINE",
"335 5 LINE",
"186 5 LINE",
"186 747 LINE",
"191 747 LINE",
"191 752 LINE",
"32 752 LINE",
"32 747 LINE",
"181 747 LINE",
"181 5 LINE",
"32 5 LINE",
"32 0 LINE"
);
},
{
closed = 1;
nodes = (
"1068 0 LINE",
"1068 5 LINE",
"919 5 LINE",
"919 747 LINE",
"1068 747 LINE",
"1068 752 LINE",
"909 752 LINE",
"909 747 LINE",
"914 747 LINE",
"914 5 LINE",
"765 5 LINE",
"765 0 LINE"
);
}
);
width = 1100;
},
{
layerId = "BE4E587A-F76C-447B-AA28-A45E40876AAF";
paths = (
{
closed = 1;
nodes = (
"632 0 LINE",
"805 772 LINE",
"630 772 LINE",
"548 304 LINE",
"617 296 LINE",
"527 772 LINE",
"239 772 LINE",
"412 0 LINE"
);
},
{
closed = 1;
nodes = (
"331 0 LINE",
"331 207 LINE",
"281 207 LINE",
"281 565 LINE",
"312 565 LINE",
"497 772 LINE",
"18 772 LINE",
"18 565 LINE",
"73 565 LINE",
"73 207 LINE",
"18 207 LINE",
"18 0 LINE"
);
},
{
closed = 1;
nodes = (
"1076 0 LINE",
"1076 207 LINE",
"1021 207 LINE",
"1021 565 LINE",
"1076 565 LINE",
"1076 772 LINE",
"630 772 LINE",
"732 565 LINE",
"763 565 LINE",
"763 207 LINE",
"713 207 LINE",
"713 0 LINE"
);
}
);
width = 1094;
},
{
layerId = "2C5E45D0-97E8-45AA-A5B2-946753DF54E1";
paths = (
{
closed = 1;
nodes = (
"579 0 LINE",
"816 665 LINE",
"742 752 LINE",
"513 100 LINE",
"543 100 LINE",
"316 752 LINE",
"234 665 LINE",
"468 0 LINE"
);
},
{
closed = 1;
nodes = (
"348 0 LINE",
"348 93 LINE",
"232 93 LINE",
"232 659 LINE",
"301 659 LINE",
"316 752 LINE",
"25 752 LINE",
"25 659 LINE",
"135 659 LINE",
"135 93 LINE",
"25 93 LINE",
"25 0 LINE"
);
},
{
closed = 1;
nodes = (
"1030 0 LINE",
"1030 93 LINE",
"920 93 LINE",
"920 659 LINE",
"1030 659 LINE",
"1030 752 LINE",
"742 752 LINE",
"743 659 LINE",
"818 659 LINE",
"818 93 LINE",
"698 93 LINE",
"698 0 LINE"
);
}
);
width = 1055;
},
{
associatedMasterId = "2C5E45D0-97E8-45AA-A5B2-946753DF54E1";
layerId = "22FEF5ED-B20E-46B2-9016-5B6A811F902C";
name = "Feb 23 18, 15:39";
paths = (
{
closed = 1;
nodes = (
"603 0 LINE",
"840 665 LINE",
"761 752 LINE",
"544 100 LINE",
"603 143 LINE",
"509 143 LINE",
"569 100 LINE",
"345 752 LINE",
"266 665 LINE",
"503 0 LINE"
);
},
{
closed = 1;
nodes = (
"374 0 LINE",
"374 93 LINE",
"264 93 LINE",
"264 659 LINE",
"333 659 LINE",
"345 752 LINE",
"52 752 LINE",
"52 659 LINE",
"162 659 LINE",
"162 93 LINE",
"52 93 LINE",
"52 0 LINE"
);
},
{
closed = 1;
nodes = (
"1054 0 LINE",
"1054 93 LINE",
"944 93 LINE",
"944 659 LINE",
"1054 659 LINE",
"1054 752 LINE",
"761 752 LINE",
"773 659 LINE",
"842 659 LINE",
"842 93 LINE",
"732 93 LINE",
"732 0 LINE"
);
}
);
width = 1106;
},
{
associatedMasterId = "2C5E45D0-97E8-45AA-A5B2-946753DF54E1";
layerId = "F4249821-346D-4DA1-AFD4-D7AAE9727346";
name = "Mar 7 18, 11:32";
paths = (
{
closed = 1;
nodes = (
"597 0 LINE",
"834 665 LINE",
"768 752 LINE",
"541 100 LINE",
"565 100 LINE",
"339 752 LINE",
"257 665 LINE",
"492 0 LINE"
);
},
{
closed = 1;
nodes = (
"371 0 LINE",
"371 93 LINE",
"255 93 LINE",
"255 659 LINE",
"324 659 LINE",
"339 752 LINE",
"52 752 LINE",
"52 659 LINE",
"162 659 LINE",
"162 93 LINE",
"52 93 LINE",
"52 0 LINE"
);
},
{
closed = 1;
nodes = (
"1048 0 LINE",
"1048 93 LINE",
"938 93 LINE",
"938 659 LINE",
"1048 659 LINE",
"1048 752 LINE",
"768 752 LINE",
"763 659 LINE",
"836 659 LINE",
"836 93 LINE",
"716 93 LINE",
"716 0 LINE"
);
}
);
width = 1100;
},
{
associatedMasterId = "BE4E587A-F76C-447B-AA28-A45E40876AAF";
layerId = "660F5FE8-C05B-4930-8F85-9BB411D6AECF";
name = "Bold /rev]/220";
paths = (
{
closed = 1;
nodes = (
"662 0 LINE",
"835 772 LINE",
"630 772 LINE",
"548 304 LINE",
"617 296 LINE",
"557 772 LINE",
"269 772 LINE",
"442 0 LINE"
);
},
{
closed = 1;
nodes = (
"361 0 LINE",
"361 207 LINE",
"311 207 LINE",
"311 565 LINE",
"342 565 LINE",
"527 772 LINE",
"18 772 LINE",
"18 565 LINE",
"73 565 LINE",
"73 207 LINE",
"18 207 LINE",
"18 0 LINE"
);
},
{
closed = 1;
nodes = (
"1106 0 LINE",
"1106 207 LINE",
"1051 207 LINE",
"1051 565 LINE",
"1106 565 LINE",
"1106 772 LINE",
"630 772 LINE",
"762 565 LINE",
"793 565 LINE",
"793 207 LINE",
"743 207 LINE",
"743 0 LINE"
);
}
);
width = 1124;
}
);
leftKerningGroup = H;
leftMetricsKey = H;
rightKerningGroup = H;
rightMetricsKey = "=|";
unicode = 004D;
},
{
glyphname = N;
lastChange = "2018-03-27 03:04:58 +0000";
layers = (
{
anchors = (
{
name = bottom;
position = "{459, 0}";
},
{
name = top;
position = "{459, 732}";
}
);
layerId = "67AEAADB-8447-4819-9D92-8BB76BD22042";
paths = (
{
closed = 1;
nodes = (
"759 0 LINE",
"190 752 LINE",
"184 752 LINE",
"753 0 LINE"
);
},
{
closed = 1;
nodes = (
"181 748 LINE",
"181 5 LINE",
"32 5 LINE",
"32 0 LINE",
"334 0 LINE",
"334 5 LINE",
"186 5 LINE",
"186 747 LINE",
"190 747 LINE",
"190 752 LINE",
"32 752 LINE",
"32 748 LINE"
);
},
{
closed = 1;
nodes = (
"756 747 LINE",
"756 5 LINE",
"753 5 LINE",
"756 0 LINE",
"761 0 LINE",
"761 747 LINE",
"909 747 LINE",
"909 752 LINE",
"592 752 LINE",
"592 747 LINE"
);
}
);
width = 927;
},
{
anchors = (
{
name = bottom;
position = "{399, 0}";
},
{
name = top;
position = "{399, 732}";
}
);
layerId = "BE4E587A-F76C-447B-AA28-A45E40876AAF";
paths = (
{
closed = 1;
nodes = (
"742 0 LINE",
"438 772 LINE",
"155 772 LINE",
"459 0 LINE"
);
},
{
closed = 1;
nodes = (
"73 565 LINE",
"73 207 LINE",
"18 207 LINE",
"18 0 LINE",
"336 0 LINE",
"336 207 LINE",
"281 207 LINE",
"281 440 LINE",
"329 440 LINE",
"438 772 LINE",
"18 772 LINE",
"18 565 LINE"
);
},
{
closed = 1;
nodes = (
"615 565 LINE",
"615 336 LINE",
"573 336 LINE",
"652 0 LINE",
"823 0 LINE",
"823 565 LINE",
"878 565 LINE",
"878 772 LINE",
"560 772 LINE",
"560 565 LINE"
);
}
);
width = 882;
},
{
anchors = (
{
name = bottom;
position = "{457, 0}";
},
{
name = top;
position = "{457, 732}";
}
);
layerId = "2C5E45D0-97E8-45AA-A5B2-946753DF54E1";
rightMetricsKey = "=H-22";
paths = (
{
closed = 1;
nodes = (
"754 0 LINE",
"287 752 LINE",
"164 752 LINE",
"631 0 LINE"
);
},
{
closed = 1;
nodes = (
"135 659 LINE",
"135 93 LINE",
"25 93 LINE",
"25 0 LINE",
"340 0 LINE",
"340 93 LINE",
"230 93 LINE",
"230 641 LINE",
"283 641 LINE",
"286 752 LINE",
"25 752 LINE",
"25 659 LINE"
);
},
{
closed = 1;
nodes = (
"673 659 LINE",
"673 140 LINE",
"603 140 LINE",
"631 0 LINE",
"768 0 LINE",
"768 659 LINE",
"878 659 LINE",
"878 752 LINE",
"563 752 LINE",
"563 659 LINE"
);
}
);
width = 881;
},
{
anchors = (
{
name = bottom;
position = "{482, 0}";
},
{
name = top;
position = "{482, 732}";
}
);
associatedMasterId = "2C5E45D0-97E8-45AA-A5B2-946753DF54E1";
layerId = "047D3E99-1A20-4FF1-B7C9-46C9AE164200";
rightMetricsKey = "=H-20";
name = "Feb 23 18, 15:40";
paths = (
{
closed = 1;
nodes = (
"780 0 LINE",
"318 752 LINE",
"198 752 LINE",
"660 0 LINE"
);
},
{
closed = 1;
nodes = (
"162 659 LINE",
"162 93 LINE",
"52 93 LINE",
"52 0 LINE",
"374 0 LINE",
"374 93 LINE",
"264 93 LINE",
"264 641 LINE",
"317 641 LINE",
"317 752 LINE",
"52 752 LINE",
"52 659 LINE"
);
},
{
closed = 1;
nodes = (
"699 659 LINE",
"699 140 LINE",
"629 140 LINE",
"660 0 LINE",
"801 0 LINE",
"801 659 LINE",
"911 659 LINE",
"911 752 LINE",
"589 752 LINE",
"589 659 LINE"
);
}
);
width = 943;
},
{
anchors = (
{
name = bottom;
position = "{482, 0}";
},
{
name = top;
position = "{482, 732}";
}
);
associatedMasterId = "2C5E45D0-97E8-45AA-A5B2-946753DF54E1";
layerId = "37FE45C6-EC4F-4D61-8F2C-F7817D331A03";
rightMetricsKey = "=H-20";
name = "Mar 7 18, 11:34";
paths = (
{
closed = 1;
nodes = (
"789 0 LINE",
"312 752 LINE",
"189 752 LINE",
"666 0 LINE"
);
},
{
closed = 1;
nodes = (
"162 659 LINE",
"162 93 LINE",
"52 93 LINE",
"52 0 LINE",
"365 0 LINE",
"365 93 LINE",
"255 93 LINE",
"255 641 LINE",
"308 641 LINE",
"311 752 LINE",
"52 752 LINE",
"52 659 LINE"
);
},
{
closed = 1;
nodes = (
"708 659 LINE",
"708 140 LINE",
"638 140 LINE",
"666 0 LINE",
"801 0 LINE",
"801 659 LINE",
"911 659 LINE",
"911 752 LINE",
"598 752 LINE",
"598 659 LINE"
);
}
);
width = 943;
}
);
leftKerningGroup = H;
leftMetricsKey = H;
rightKerningGroup = N;
rightMetricsKey = "=|-14";
unicode = 004E;
},
{
color = 4;
glyphname = Eng;
lastChange = "2018-03-27 15:35:23 +0000";
layers = (
{
layerId = "67AEAADB-8447-4819-9D92-8BB76BD22042";
paths = (
{
closed = 1;
nodes = (
"181 748 LINE",
"181 5 LINE",
"32 5 LINE",
"32 0 LINE",
"334 0 LINE",
"334 5 LINE",
"186 5 LINE",
"186 747 LINE",
"190 747 LINE",
"190 752 LINE",
"32 752 LINE",
"32 748 LINE"
);
},
{
closed = 1;
nodes = (
"612 747 LINE",
"776 747 LINE",
"776 -84 LINE SMOOTH",
"776 -172 OFFCURVE",
"728 -212 OFFCURVE",
"656 -212 CURVE SMOOTH",
"641 -212 OFFCURVE",
"628 -210 OFFCURVE",
"617 -207 CURVE",
"615 -212 LINE",
"627 -215 OFFCURVE",
"641 -217 OFFCURVE",
"656 -217 CURVE SMOOTH",
"731 -217 OFFCURVE",
"781 -175 OFFCURVE",
"781 -84 CURVE SMOOTH",
"781 747 LINE",
"929 747 LINE",
"929 752 LINE",
"612 752 LINE"
);
},
{
closed = 1;
nodes = (
"781 0 LINE",
"190 752 LINE",
"184 752 LINE",
"779 -5 LINE"
);
}
);
width = 947;
},
{
layerId = "2C5E45D0-97E8-45AA-A5B2-946753DF54E1";
paths = (
{
closed = 1;
nodes = (
"135 659 LINE",
"135 93 LINE",
"25 93 LINE",
"25 0 LINE",
"340 0 LINE",
"340 93 LINE",
"230 93 LINE",
"230 641 LINE",
"283 641 LINE",
"283 752 LINE",
"25 752 LINE",
"25 659 LINE"
);
},
{
closed = 1;
nodes = (
"555 659 LINE",
"665 659 LINE",
"665 -39 LINE SMOOTH",
"665 -100 OFFCURVE",
"637 -128 OFFCURVE",
"580 -128 CURVE SMOOTH",
"565 -128 OFFCURVE",
"549 -126 OFFCURVE",
"533 -121 CURVE",
"505 -206 LINE",
"535 -215 OFFCURVE",
"562 -220 OFFCURVE",
"594 -220 CURVE SMOOTH",
"708 -220 OFFCURVE",
"760 -152 OFFCURVE",
"760 -42 CURVE SMOOTH",
"760 659 LINE",
"870 659 LINE",
"870 752 LINE",
"555 752 LINE"
);
},
{
closed = 1;
nodes = (
"747 68 LINE",
"283 752 LINE",
"160 752 LINE",
"671 -8 LINE"
);
}
);
width = 873;
},
{
layerId = "BE4E587A-F76C-447B-AA28-A45E40876AAF";
paths = (
{
closed = 1;
nodes = (
"73 565 LINE",
"73 207 LINE",
"18 207 LINE",
"18 0 LINE",
"336 0 LINE",
"336 207 LINE",
"281 207 LINE",
"281 440 LINE",
"329 440 LINE",
"344 772 LINE",
"18 772 LINE",
"18 565 LINE"
);
},
{
closed = 1;
nodes = (
"560 565 LINE",
"615 565 LINE",
"615 -3 LINE SMOOTH",
"615 -26 OFFCURVE",
"603 -37 OFFCURVE",
"574 -37 CURVE SMOOTH",
"565 -37 OFFCURVE",
"555 -36 OFFCURVE",
"547 -34 CURVE",
"506 -214 LINE",
"535 -221 OFFCURVE",
"567 -224 OFFCURVE",
"598 -224 CURVE SMOOTH",
"761 -224 OFFCURVE",
"823 -140 OFFCURVE",
"823 -3 CURVE SMOOTH",
"823 565 LINE",
"878 565 LINE",
"878 772 LINE",
"560 772 LINE"
);
},
{
closed = 1;
nodes = (
"785 209 LINE",
"344 772 LINE",
"72 682 LINE",
"629 -19 LINE"
);
}
);
width = 882;
},
{
associatedMasterId = "2C5E45D0-97E8-45AA-A5B2-946753DF54E1";
layerId = "FB1A8F30-5F79-470A-A46F-EF9FE121BE0F";
name = "Feb 6 18, 15:46";
paths = (
{
closed = 1;
nodes = (
"776 66 LINE",
"318 752 LINE",
"232 697 LINE",
"718 -22 LINE"
);
},
{
closed = 1;
nodes = (
"162 659 LINE",
"162 93 LINE",
"52 93 LINE",
"52 0 LINE",
"374 0 LINE",
"374 93 LINE",
"264 93 LINE",
"264 641 LINE",
"317 641 LINE",
"317 752 LINE",
"52 752 LINE",
"52 659 LINE"
);
},
{
closed = 1;
nodes = (
"589 659 LINE",
"699 659 LINE",
"699 -31 LINE SMOOTH",
"699 -92 OFFCURVE",
"670 -120 OFFCURVE",
"614 -120 CURVE SMOOTH",
"590 -120 OFFCURVE",
"568 -115 OFFCURVE",
"546 -109 CURVE",
"546 -207 LINE",
"574 -215 OFFCURVE",
"600 -220 OFFCURVE",
"630 -220 CURVE SMOOTH",
"747 -220 OFFCURVE",
"801 -149 OFFCURVE",
"801 -34 CURVE SMOOTH",
"801 659 LINE",
"911 659 LINE",
"911 752 LINE",
"589 752 LINE"
);
}
);
width = 943;
},
{
associatedMasterId = "BE4E587A-F76C-447B-AA28-A45E40876AAF";
layerId = "FCC288A5-2804-4E89-8E5E-00E508EEB537";
name = "Mar 13 18, 16:06";
paths = (
{
closed = 1;
nodes = (
"748 0 LINE",
"407 772 LINE",
"211 772 LINE",
"592 0 LINE"
);
},
{
closed = 1;
nodes = (
"71 565 LINE",
"71 207 LINE",
"16 207 LINE",
"16 0 LINE",
"394 0 LINE",
"394 207 LINE",
"329 207 LINE",
"329 541 LINE",
"377 541 LINE",
"387 772 LINE",
"16 772 LINE",
"16 565 LINE"
);
},
{
closed = 1;
nodes = (
"532 565 LINE",
"587 565 LINE",
"587 -3 LINE SMOOTH",
"587 -26 OFFCURVE",
"575 -37 OFFCURVE",
"546 -37 CURVE SMOOTH",
"537 -37 OFFCURVE",
"527 -36 OFFCURVE",
"519 -34 CURVE",
"478 -214 LINE",
"507 -221 OFFCURVE",
"539 -224 OFFCURVE",
"575 -224 CURVE SMOOTH",
"769 -224 OFFCURVE",
"845 -140 OFFCURVE",
"845 -3 CURVE SMOOTH",
"845 565 LINE",
"900 565 LINE",
"900 772 LINE",
"532 772 LINE"
);
}
);
width = 902;
}
);
leftKerningGroup = H;
leftMetricsKey = N;
rightMetricsKey = N;
unicode = 014A;
},
{
color = 6;
glyphname = O;
lastChange = "2018-03-27 15:26:46 +0000";
layers = (
{
anchors = (
{
name = bottom;
position = "{432, 0}";
},
{
name = horn;
position = "{641, 705}";
},
{
name = ogonek;
position = "{558, 11}";
},
{
name = top;
position = "{432, 732}";
}
);
layerId = "67AEAADB-8447-4819-9D92-8BB76BD22042";
leftMetricsKey = "=o-9";
paths = (
{
closed = 1;
nodes = (
"651 -7 OFFCURVE",
"806 151 OFFCURVE",
"806 378 CURVE SMOOTH",
"806 602 OFFCURVE",
"651 759 OFFCURVE",
"427 759 CURVE SMOOTH",
"203 759 OFFCURVE",
"48 602 OFFCURVE",
"48 378 CURVE SMOOTH",
"48 151 OFFCURVE",
"203 -7 OFFCURVE",
"427 -7 CURVE SMOOTH"
);
},
{
closed = 1;
nodes = (
"205 -2 OFFCURVE",
"53 154 OFFCURVE",
"53 378 CURVE SMOOTH",
"53 599 OFFCURVE",
"205 754 OFFCURVE",
"427 754 CURVE SMOOTH",
"649 754 OFFCURVE",
"801 599 OFFCURVE",
"801 378 CURVE SMOOTH",
"801 154 OFFCURVE",
"649 -2 OFFCURVE",
"427 -2 CURVE SMOOTH"
);
}
);
width = 854;
},
{
anchors = (
{
name = bottom;
position = "{434, 0}";
},
{
name = horn;
position = "{554, 766}";
},
{
name = ogonek;
position = "{628, 25}";
},
{
name = top;
position = "{434, 772}";
}
);
layerId = "BE4E587A-F76C-447B-AA28-A45E40876AAF";
paths = (
{
closed = 1;
nodes = (
"684 -14 OFFCURVE",
"857 151 OFFCURVE",
"857 388 CURVE SMOOTH",
"857 622 OFFCURVE",
"684 786 OFFCURVE",
"434 786 CURVE SMOOTH",
"184 786 OFFCURVE",
"11 622 OFFCURVE",
"11 388 CURVE SMOOTH",
"11 151 OFFCURVE",
"184 -14 OFFCURVE",
"434 -14 CURVE SMOOTH"
);
},
{
closed = 1;
nodes = (
"342 230 OFFCURVE",
"278 295 OFFCURVE",
"278 388 CURVE SMOOTH",
"278 479 OFFCURVE",
"342 542 OFFCURVE",
"434 542 CURVE SMOOTH",
"526 542 OFFCURVE",
"590 479 OFFCURVE",
"590 388 CURVE SMOOTH",
"590 295 OFFCURVE",
"526 230 OFFCURVE",
"434 230 CURVE SMOOTH"
);
}
);
width = 868;
},
{
anchors = (
{
name = bottom;
position = "{430, 0}";
},
{
name = horn;
position = "{627, 718}";
},
{
name = ogonek;
position = "{592, 19}";
},
{
name = top;
position = "{430, 732}";
}
);
layerId = "2C5E45D0-97E8-45AA-A5B2-946753DF54E1";
leftMetricsKey = "=o-8";
paths = (
{
closed = 1;
nodes = (
"661 -12 OFFCURVE",
"820 148 OFFCURVE",
"820 378 CURVE SMOOTH",
"820 605 OFFCURVE",
"661 764 OFFCURVE",
"430 764 CURVE SMOOTH",
"199 764 OFFCURVE",
"40 605 OFFCURVE",
"40 378 CURVE SMOOTH",
"40 148 OFFCURVE",
"199 -12 OFFCURVE",
"430 -12 CURVE SMOOTH"
);
},
{
closed = 1;
nodes = (
"263 88 OFFCURVE",
"148 207 OFFCURVE",
"148 378 CURVE SMOOTH",
"148 548 OFFCURVE",
"263 664 OFFCURVE",
"430 664 CURVE SMOOTH",
"597 664 OFFCURVE",
"712 548 OFFCURVE",
"712 378 CURVE SMOOTH",
"712 207 OFFCURVE",
"597 88 OFFCURVE",
"430 88 CURVE SMOOTH"
);
}
);
width = 860;
}
);
leftKerningGroup = O;
rightKerningGroup = O;
rightMetricsKey = "=|";
unicode = 004F;
},
{
glyphname = Oslash;
lastChange = "2018-03-27 18:33:07 +0000";
layers = (
{
components = (
{
name = O;
},
{
name = slashlongcomb;
transform = "{1, 0, 0, 1, 28, -32}";
}
);
layerId = "67AEAADB-8447-4819-9D92-8BB76BD22042";
width = 859;
},
{
components = (
{
name = O;
},
{
name = slashlongcomb;
transform = "{1, 0, 0, 1, 17, 0}";
}
);
layerId = "2C5E45D0-97E8-45AA-A5B2-946753DF54E1";
width = 860;
},
{
components = (
{
name = O;
},
{
name = slashlongcomb;
transform = "{1, 0, 0, 1, 28, 28}";
}
);
layerId = "BE4E587A-F76C-447B-AA28-A45E40876AAF";
width = 868;
},
{
associatedMasterId = "2C5E45D0-97E8-45AA-A5B2-946753DF54E1";
components = (
{
name = O;
}
);
layerId = "6CEF171D-687B-4F8D-ACAF-400EC1BA9329";
name = "Jan 4 18, 17:53";
paths = (
{
closed = 1;
nodes = (
"118 5 LINE",
"802 689 LINE",
"744 747 LINE",
"60 63 LINE"
);
}
);
width = 862;
}
);
leftKerningGroup = O;
leftMetricsKey = O;
rightKerningGroup = O;
rightMetricsKey = O;
unicode = 00D8;
},
{
color = 7;
glyphname = OE;
lastChange = "2018-03-27 15:41:34 +0000";
layers = (
{
layerId = "67AEAADB-8447-4819-9D92-8BB76BD22042";
paths = (
{
closed = 1;
nodes = (
"536 3 LINE",
"536 6 LINE",
"707 48 OFFCURVE",
"816 189 OFFCURVE",
"816 378 CURVE SMOOTH",
"816 564 OFFCURVE",
"706 704 OFFCURVE",
"536 746 CURVE",
"536 750 LINE",
"432 759 LINE",
"205 759 OFFCURVE",
"48 602 OFFCURVE",
"48 378 CURVE SMOOTH",
"48 151 OFFCURVE",
"205 -7 OFFCURVE",
"432 -7 CURVE"
);
},
{
closed = 1;
nodes = (
"207 -2 OFFCURVE",
"53 154 OFFCURVE",
"53 378 CURVE SMOOTH",
"53 599 OFFCURVE",
"207 754 OFFCURVE",
"432 754 CURVE SMOOTH",
"657 754 OFFCURVE",
"811 599 OFFCURVE",
"811 378 CURVE SMOOTH",
"811 154 OFFCURVE",
"657 -2 OFFCURVE",
"432 -2 CURVE SMOOTH"
);
},
{
closed = 1;
nodes = (
"483 -7 OFFCURVE",
"518 0 OFFCURVE",
"566 0 CURVE SMOOTH",
"1214 0 LINE",
"1214 187 LINE",
"1209 187 LINE",
"1209 5 LINE",
"523 5 LINE",
"464 -2 LINE",
"432 -7 LINE"
);
},
{
closed = 1;
nodes = (
"1052 377 LINE",
"1052 382 LINE",
"813 382 LINE",
"813 377 LINE"
);
},
{
closed = 1;
nodes = (
"1205 565 LINE",
"1205 752 LINE",
"566 752 LINE SMOOTH",
"518 752 OFFCURVE",
"483 759 OFFCURVE",
"432 759 CURVE",
"465 755 LINE",
"527 747 LINE",
"1200 747 LINE",
"1200 565 LINE"
);
}
);
width = 1258;
},
{
layerId = "2C5E45D0-97E8-45AA-A5B2-946753DF54E1";
paths = (
{
closed = 1;
nodes = (
"596 55 LINE",
"596 97 LINE",
"729 108 OFFCURVE",
"820 222 OFFCURVE",
"820 378 CURVE SMOOTH",
"820 531 OFFCURVE",
"729 644 OFFCURVE",
"596 655 CURVE",
"596 704 LINE",
"430 764 LINE",
"199 764 OFFCURVE",
"40 605 OFFCURVE",
"40 378 CURVE SMOOTH",
"40 148 OFFCURVE",
"199 -12 OFFCURVE",
"430 -12 CURVE"
);
},
{
closed = 1;
nodes = (
"264 88 OFFCURVE",
"149 207 OFFCURVE",
"149 378 CURVE SMOOTH",
"149 548 OFFCURVE",
"264 664 OFFCURVE",
"430 664 CURVE SMOOTH",
"595 664 OFFCURVE",
"711 548 OFFCURVE",
"711 378 CURVE SMOOTH",
"711 207 OFFCURVE",
"596 88 OFFCURVE",
"430 88 CURVE SMOOTH"
);
},
{
closed = 1;
nodes = (
"493 -12 OFFCURVE",
"536 0 OFFCURVE",
"644 0 CURVE SMOOTH",
"1260 0 LINE",
"1260 227 LINE",
"1158 227 LINE",
"1158 93 LINE",
"551 93 LINE",
"442 46 LINE",
"430 -12 LINE"
);
},
{
closed = 1;
nodes = (
"1060 334 LINE",
"1060 424 LINE",
"778 424 LINE",
"778 334 LINE"
);
},
{
closed = 1;
nodes = (
"1251 525 LINE",
"1251 752 LINE",
"644 752 LINE SMOOTH",
"536 752 OFFCURVE",
"493 764 OFFCURVE",
"430 764 CURVE",
"437 706 LINE",
"561 659 LINE",
"1149 659 LINE",
"1149 525 LINE"
);
}
);
width = 1292;
},
{
associatedMasterId = "2C5E45D0-97E8-45AA-A5B2-946753DF54E1";
layerId = "B4E20D7F-CD3C-4546-9F14-F33F99BDB661";
name = "Jan 3 18, 01:05";
paths = (
{
closed = 1;
nodes = (
"627 424 LINE",
"627 334 LINE",
"969 334 LINE",
"969 424 LINE"
);
},
{
closed = 1;
nodes = (
"569 659 LINE",
"569 93 LINE",
"547 93 LINE",
"459 0 LINE",
"1107 0 LINE",
"1107 93 LINE",
"671 93 LINE",
"671 659 LINE",
"1098 659 LINE",
"1098 752 LINE",
"459 752 LINE",
"547 659 LINE"
);
},
{
closed = 1;
nodes = (
"1058 752 LINE",
"1058 525 LINE",
"1160 525 LINE",
"1160 752 LINE"
);
},
{
closed = 1;
nodes = (
"1067 227 LINE",
"1067 0 LINE",
"1169 0 LINE",
"1169 227 LINE"
);
},
{
closed = 1;
nodes = (
"464 -12 OFFCURVE",
"507 0 OFFCURVE",
"615 0 CURVE",
"682 30 LINE",
"383 66 LINE",
"401 -12 LINE"
);
},
{
closed = 1;
nodes = (
"372 686 LINE",
"682 722 LINE",
"615 752 LINE",
"507 752 OFFCURVE",
"464 764 OFFCURVE",
"401 764 CURVE"
);
},
{
closed = 1;
nodes = (
"401 88 LINE",
"235 88 OFFCURVE",
"120 207 OFFCURVE",
"120 378 CURVE SMOOTH",
"120 548 OFFCURVE",
"235 664 OFFCURVE",
"401 664 CURVE",
"401 764 LINE",
"170 764 OFFCURVE",
"11 605 OFFCURVE",
"11 378 CURVE SMOOTH",
"11 148 OFFCURVE",
"170 -12 OFFCURVE",
"401 -12 CURVE"
);
},
{
closed = 1;
nodes = (
"436 664 OFFCURVE",
"457 659 OFFCURVE",
"547 659 CURVE",
"682 706 LINE",
"389 742 LINE",
"401 664 LINE"
);
},
{
closed = 1;
nodes = (
"389 10 LINE",
"682 46 LINE",
"547 93 LINE",
"457 93 OFFCURVE",
"436 88 OFFCURVE",
"401 88 CURVE"
);
}
);
width = 1330;
},
{
associatedMasterId = "BE4E587A-F76C-447B-AA28-A45E40876AAF";
layerId = "F3B76260-9BAB-4A31-9F7E-D69395F920B8";
name = "Feb 21 18, 16:44";
paths = (
{
closed = 1;
nodes = (
"650 83 LINE",
"623 120 LINE",
"783 212 OFFCURVE",
"857 284 OFFCURVE",
"857 388 CURVE SMOOTH",
"857 489 OFFCURVE",
"783 560 OFFCURVE",
"623 652 CURVE",
"650 696 LINE",
"434 786 LINE",
"183 786 OFFCURVE",
"11 622 OFFCURVE",
"11 388 CURVE SMOOTH",
"11 151 OFFCURVE",
"183 -14 OFFCURVE",
"434 -14 CURVE"
);
},
{
closed = 1;
nodes = (
"342 229 OFFCURVE",
"278 294 OFFCURVE",
"278 388 CURVE SMOOTH",
"278 480 OFFCURVE",
"342 543 OFFCURVE",
"434 543 CURVE SMOOTH",
"526 543 OFFCURVE",
"590 480 OFFCURVE",
"590 388 CURVE SMOOTH",
"590 294 OFFCURVE",
"526 229 OFFCURVE",
"434 229 CURVE SMOOTH"
);
},
{
closed = 1;
nodes = (
"497 -14 OFFCURVE",
"540 0 OFFCURVE",
"648 0 CURVE SMOOTH",
"1342 0 LINE",
"1342 327 LINE",
"1084 327 LINE",
"1084 207 LINE",
"916 207 LINE",
"796 207 OFFCURVE",
"697 156 OFFCURVE",
"577 71 CURVE",
"446 46 LINE",
"434 -14 LINE"
);
},
{
closed = 1;
nodes = (
"1017 300 LINE",
"1017 477 LINE",
"781 477 LINE",
"781 300 LINE"
);
},
{
closed = 1;
nodes = (
"1333 465 LINE",
"1333 772 LINE",
"648 772 LINE SMOOTH",
"540 772 OFFCURVE",
"497 786 OFFCURVE",
"434 786 CURVE",
"441 726 LINE",
"577 701 LINE",
"697 616 OFFCURVE",
"795 565 OFFCURVE",
"916 565 CURVE",
"1075 565 LINE",
"1075 465 LINE"
);
}
);
width = 1366;
},
{
layerId = "BE4E587A-F76C-447B-AA28-A45E40876AAF";
paths = (
{
closed = 1;
nodes = (
"670 173 LINE",
"670 215 LINE",
"781 232 OFFCURVE",
"857 302 OFFCURVE",
"857 388 CURVE SMOOTH",
"857 471 OFFCURVE",
"781 540 OFFCURVE",
"670 557 CURVE",
"670 606 LINE",
"434 786 LINE",
"183 786 OFFCURVE",
"11 622 OFFCURVE",
"11 388 CURVE SMOOTH",
"11 151 OFFCURVE",
"183 -14 OFFCURVE",
"434 -14 CURVE"
);
},
{
closed = 1;
nodes = (
"342 229 OFFCURVE",
"278 294 OFFCURVE",
"278 388 CURVE SMOOTH",
"278 480 OFFCURVE",
"342 543 OFFCURVE",
"434 543 CURVE SMOOTH",
"526 543 OFFCURVE",
"590 480 OFFCURVE",
"590 388 CURVE SMOOTH",
"590 294 OFFCURVE",
"526 229 OFFCURVE",
"434 229 CURVE SMOOTH"
);
},
{
closed = 1;
nodes = (
"497 -14 OFFCURVE",
"540 0 OFFCURVE",
"648 0 CURVE SMOOTH",
"1342 0 LINE",
"1342 327 LINE",
"1084 327 LINE",
"1084 207 LINE",
"527 207 LINE",
"446 46 LINE",
"434 -14 LINE"
);
},
{
closed = 1;
nodes = (
"1017 300 LINE",
"1017 477 LINE",
"781 477 LINE",
"781 300 LINE"
);
},
{
closed = 1;
nodes = (
"1333 465 LINE",
"1333 772 LINE",
"648 772 LINE SMOOTH",
"540 772 OFFCURVE",
"497 786 OFFCURVE",
"434 786 CURVE",
"441 726 LINE",
"527 565 LINE",
"1075 565 LINE",
"1075 465 LINE"
);
}
);
width = 1372;
},
{
associatedMasterId = "67AEAADB-8447-4819-9D92-8BB76BD22042";
layerId = "BDF4D79D-E58C-43AA-AA64-3D9536B7A17D";
name = "Light [6]";
paths = (
{
closed = 1;
nodes = (
"553 3 LINE",
"553 6 LINE",
"709 51 OFFCURVE",
"816 190 OFFCURVE",
"816 378 CURVE SMOOTH",
"816 563 OFFCURVE",
"710 701 OFFCURVE",
"555 746 CURVE",
"555 750 LINE",
"432 759 LINE",
"205 759 OFFCURVE",
"48 602 OFFCURVE",
"48 378 CURVE SMOOTH",
"48 151 OFFCURVE",
"205 -7 OFFCURVE",
"432 -7 CURVE"
);
},
{
closed = 1;
nodes = (
"207 -2 OFFCURVE",
"53 154 OFFCURVE",
"53 378 CURVE SMOOTH",
"53 599 OFFCURVE",
"207 754 OFFCURVE",
"432 754 CURVE SMOOTH",
"657 754 OFFCURVE",
"811 599 OFFCURVE",
"811 378 CURVE SMOOTH",
"811 154 OFFCURVE",
"657 -2 OFFCURVE",
"432 -2 CURVE SMOOTH"
);
},
{
closed = 1;
nodes = (
"483 -7 OFFCURVE",
"518 0 OFFCURVE",
"566 0 CURVE SMOOTH",
"1214 0 LINE",
"1214 187 LINE",
"1209 187 LINE",
"1209 5 LINE",
"523 5 LINE",
"464 -2 LINE",
"432 -7 LINE"
);
},
{
closed = 1;
nodes = (
"1052 377 LINE",
"1052 382 LINE",
"813 382 LINE",
"813 377 LINE"
);
},
{
closed = 1;
nodes = (
"1205 565 LINE",
"1205 752 LINE",
"566 752 LINE SMOOTH",
"518 752 OFFCURVE",
"483 759 OFFCURVE",
"432 759 CURVE",
"465 755 LINE",
"527 747 LINE",
"1200 747 LINE",
"1200 565 LINE"
);
}
);
width = 1258;
},
{
associatedMasterId = "2C5E45D0-97E8-45AA-A5B2-946753DF54E1";
components = (
{
alignment = -1;
name = E;
transform = "{1, 0, 0, 1, 442, 0}";
},
{
alignment = -1;
name = D;
transform = "{-1, 0, 0, 1, 860, 0}";
}
);
layerId = "858785A6-E3A3-44FE-8D8B-6ED84D74DC74";
name = "Mar 14 18, 14:26";
width = 1255;
}
);
leftKerningGroup = O;
leftMetricsKey = O;
rightKerningGroup = E;
rightMetricsKey = E;
unicode = 0152;
},
{
color = 6;
glyphname = P;
lastChange = "2018-03-27 15:26:46 +0000";
layers = (
{
layerId = "67AEAADB-8447-4819-9D92-8BB76BD22042";
rightMetricsKey = "=F+12";
paths = (
{
closed = 1;
nodes = (
"335 0 LINE",
"335 5 LINE",
"186 5 LINE",
"186 752 LINE",
"32 752 LINE",
"32 747 LINE",
"181 747 LINE",
"181 5 LINE",
"32 5 LINE",
"32 0 LINE"
);
},
{
closed = 1;
nodes = (
"447 377 LINE SMOOTH",
"617 377 OFFCURVE",
"702 448 OFFCURVE",
"702 565 CURVE SMOOTH",
"702 682 OFFCURVE",
"617 752 OFFCURVE",
"447 752 CURVE SMOOTH",
"183 752 LINE",
"183 747 LINE",
"447 747 LINE SMOOTH",
"614 747 OFFCURVE",
"697 679 OFFCURVE",
"697 565 CURVE SMOOTH",
"697 452 OFFCURVE",
"614 382 OFFCURVE",
"447 382 CURVE SMOOTH",
"184 382 LINE",
"184 377 LINE"
);
}
);
width = 732;
},
{
layerId = "BE4E587A-F76C-447B-AA28-A45E40876AAF";
rightMetricsKey = "=F+12";
paths = (
{
closed = 1;
nodes = (
"390 0 LINE",
"390 207 LINE",
"333 207 LINE",
"333 772 LINE",
"18 772 LINE",
"18 565 LINE",
"75 565 LINE",
"75 207 LINE",
"18 207 LINE",
"18 0 LINE"
);
},
{
closed = 1;
nodes = (
"444 300 LINE SMOOTH",
"655 300 OFFCURVE",
"770 388 OFFCURVE",
"770 537 CURVE SMOOTH",
"770 684 OFFCURVE",
"662 772 OFFCURVE",
"447 772 CURVE SMOOTH",
"287 772 LINE",
"287 565 LINE",
"437 565 LINE SMOOTH",
"475 565 OFFCURVE",
"501 552 OFFCURVE",
"501 522 CURVE SMOOTH",
"501 492 OFFCURVE",
"479 477 OFFCURVE",
"436 477 CURVE SMOOTH",
"270 477 LINE",
"270 300 LINE"
);
}
);
width = 788;
},
{
layerId = "2C5E45D0-97E8-45AA-A5B2-946753DF54E1";
rightMetricsKey = "=F+12";
paths = (
{
closed = 1;
nodes = (
"347 0 LINE",
"347 93 LINE",
"237 93 LINE",
"237 752 LINE",
"25 752 LINE",
"25 659 LINE",
"135 659 LINE",
"135 93 LINE",
"25 93 LINE",
"25 0 LINE"
);
},
{
closed = 1;
nodes = (
"418 334 LINE SMOOTH",
"641 334 OFFCURVE",
"684 458 OFFCURVE",
"684 547 CURVE SMOOTH",
"684 676 OFFCURVE",
"597 752 OFFCURVE",
"425 752 CURVE SMOOTH",
"211 752 LINE",
"211 659 LINE",
"421 659 LINE SMOOTH",
"517 659 OFFCURVE",
"580 623 OFFCURVE",
"580 540 CURVE SMOOTH",
"580 462 OFFCURVE",
"525 424 OFFCURVE",
"423 424 CURVE SMOOTH",
"223 424 LINE",
"223 334 LINE"
);
}
);
width = 705;
},
{
associatedMasterId = "67AEAADB-8447-4819-9D92-8BB76BD22042";
layerId = "63AA5395-74B9-4844-978E-A61BF9631CDC";
name = "Dec 23 17, 15:53";
paths = (
{
closed = 1;
nodes = (
"412 595 LINE SMOOTH",
"479 595 OFFCURVE",
"523 569 OFFCURVE",
"523 506 CURVE SMOOTH",
"523 442 OFFCURVE",
"484 412 OFFCURVE",
"411 412 CURVE SMOOTH",
"278 412 LINE",
"278 254 LINE",
"401 254 LINE SMOOTH",
"601 254 OFFCURVE",
"709 362 OFFCURVE",
"709 506 CURVE SMOOTH",
"709 655 OFFCURVE",
"611 752 OFFCURVE",
"416 752 CURVE SMOOTH",
"295 752 LINE",
"295 595 LINE"
);
},
{
closed = 1;
nodes = (
"127 595 LINE",
"127 157 LINE",
"33 157 LINE",
"33 0 LINE",
"399 0 LINE",
"399 157 LINE",
"305 157 LINE",
"305 752 LINE",
"33 752 LINE",
"33 595 LINE"
);
}
);
width = 727;
}
);
leftKerningGroup = H;
leftMetricsKey = H;
rightKerningGroup = P;
rightMetricsKey = "F+12";
unicode = 0050;
},
{
color = 7;
glyphname = Thorn;
lastChange = "2018-03-27 15:41:34 +0000";
layers = (
{
layerId = "67AEAADB-8447-4819-9D92-8BB76BD22042";
paths = (
{
closed = 1;
nodes = (
"181 747 LINE",
"181 5 LINE",
"32 5 LINE",
"32 0 LINE",
"347 0 LINE",
"347 5 LINE",
"186 5 LINE",
"186 747 LINE",
"347 747 LINE",
"347 752 LINE",
"32 752 LINE",
"32 747 LINE"
);
},
{
closed = 1;
nodes = (
"407 559 LINE SMOOTH",
"574 559 OFFCURVE",
"657 491 OFFCURVE",
"657 377 CURVE SMOOTH",
"657 264 OFFCURVE",
"574 194 OFFCURVE",
"407 194 CURVE SMOOTH",
"184 194 LINE",
"184 189 LINE",
"407 189 LINE SMOOTH",
"577 189 OFFCURVE",
"662 260 OFFCURVE",
"662 377 CURVE SMOOTH",
"662 494 OFFCURVE",
"577 564 OFFCURVE",
"407 564 CURVE SMOOTH",
"183 564 LINE",
"183 559 LINE"
);
}
);
width = 692;
},
{
layerId = "2C5E45D0-97E8-45AA-A5B2-946753DF54E1";
paths = (
{
closed = 1;
nodes = (
"135 659 LINE",
"135 93 LINE",
"25 93 LINE",
"25 0 LINE",
"347 0 LINE",
"347 93 LINE",
"237 93 LINE",
"237 659 LINE",
"347 659 LINE",
"347 752 LINE",
"25 752 LINE",
"25 659 LINE"
);
},
{
closed = 1;
nodes = (
"391 481 LINE SMOOTH",
"487 481 OFFCURVE",
"550 449 OFFCURVE",
"550 378 CURVE SMOOTH",
"550 309 OFFCURVE",
"495 276 OFFCURVE",
"393 276 CURVE SMOOTH",
"223 276 LINE",
"223 183 LINE",
"388 183 LINE SMOOTH",
"611 183 OFFCURVE",
"654 297 OFFCURVE",
"654 378 CURVE SMOOTH",
"654 501 OFFCURVE",
"567 574 OFFCURVE",
"395 574 CURVE SMOOTH",
"210 574 LINE",
"210 481 LINE"
);
}
);
width = 675;
},
{
associatedMasterId = "2C5E45D0-97E8-45AA-A5B2-946753DF54E1";
layerId = "81DC54D9-03EB-4C52-B5E0-B7460E1DD03C";
name = "Regular [130]";
paths = (
{
closed = 1;
nodes = (
"135 659 LINE",
"135 93 LINE",
"25 93 LINE",
"25 0 LINE",
"237 0 LINE",
"237 752 LINE",
"25 752 LINE",
"25 659 LINE"
);
},
{
closed = 1;
nodes = (
"391 479 LINE SMOOTH",
"487 479 OFFCURVE",
"550 447 OFFCURVE",
"550 376 CURVE SMOOTH",
"550 307 OFFCURVE",
"495 274 OFFCURVE",
"393 274 CURVE SMOOTH",
"223 274 LINE",
"223 181 LINE",
"388 181 LINE SMOOTH",
"611 181 OFFCURVE",
"654 295 OFFCURVE",
"654 376 CURVE SMOOTH",
"654 499 OFFCURVE",
"567 572 OFFCURVE",
"395 572 CURVE SMOOTH",
"210 572 LINE",
"210 479 LINE"
);
}
);
width = 675;
},
{
layerId = "BE4E587A-F76C-447B-AA28-A45E40876AAF";
paths = (
{
closed = 1;
nodes = (
"75 565 LINE",
"75 207 LINE",
"18 207 LINE",
"18 0 LINE",
"333 0 LINE",
"333 772 LINE",
"18 772 LINE",
"18 565 LINE"
);
},
{
closed = 1;
nodes = (
"416 439 LINE SMOOTH",
"456 439 OFFCURVE",
"483 425 OFFCURVE",
"483 392 CURVE SMOOTH",
"483 359 OFFCURVE",
"460 343 OFFCURVE",
"415 343 CURVE SMOOTH",
"259 343 LINE",
"259 170 LINE",
"423 170 LINE SMOOTH",
"636 170 OFFCURVE",
"752 252 OFFCURVE",
"752 392 CURVE SMOOTH",
"752 530 OFFCURVE",
"643 612 OFFCURVE",
"426 612 CURVE SMOOTH",
"276 612 LINE",
"276 439 LINE"
);
}
);
width = 770;
},
{
associatedMasterId = "BE4E587A-F76C-447B-AA28-A45E40876AAF";
layerId = "713F3103-FA04-43BF-881E-CA01B5982081";
name = "Bold ]131]";
paths = (
{
closed = 1;
nodes = (
"75 565 LINE",
"75 207 LINE",
"18 207 LINE",
"18 0 LINE",
"390 0 LINE",
"390 207 LINE",
"333 207 LINE",
"333 565 LINE",
"390 565 LINE",
"390 772 LINE",
"18 772 LINE",
"18 565 LINE"
);
},
{
closed = 1;
nodes = (
"387 420 LINE SMOOTH",
"419 420 OFFCURVE",
"441 410 OFFCURVE",
"441 385 CURVE SMOOTH",
"441 363 OFFCURVE",
"423 352 OFFCURVE",
"386 352 CURVE SMOOTH",
"229 352 LINE",
"229 175 LINE",
"414 175 LINE SMOOTH",
"605 175 OFFCURVE",
"710 254 OFFCURVE",
"710 387 CURVE SMOOTH",
"710 519 OFFCURVE",
"612 597 OFFCURVE",
"417 597 CURVE SMOOTH",
"229 597 LINE",
"229 420 LINE"
);
}
);
width = 728;
}
);
leftKerningGroup = H;
leftMetricsKey = H;
rightMetricsKey = P;
unicode = 00DE;
},
{
color = 7;
glyphname = Q;
lastChange = "2018-03-27 15:48:20 +0000";
layers = (
{
layerId = "67AEAADB-8447-4819-9D92-8BB76BD22042";
paths = (
{
closed = 1;
nodes = (
"651 -7 OFFCURVE",
"806 151 OFFCURVE",
"806 378 CURVE SMOOTH",
"806 602 OFFCURVE",
"651 759 OFFCURVE",
"427 759 CURVE SMOOTH",
"203 759 OFFCURVE",
"48 602 OFFCURVE",
"48 378 CURVE SMOOTH",
"48 151 OFFCURVE",
"203 -7 OFFCURVE",
"427 -7 CURVE SMOOTH"
);
},
{
closed = 1;
nodes = (
"205 -2 OFFCURVE",
"53 154 OFFCURVE",
"53 378 CURVE SMOOTH",
"53 599 OFFCURVE",
"205 754 OFFCURVE",
"427 754 CURVE SMOOTH",
"649 754 OFFCURVE",
"801 599 OFFCURVE",
"801 378 CURVE SMOOTH",
"801 154 OFFCURVE",
"649 -2 OFFCURVE",
"427 -2 CURVE SMOOTH"
);
},
{
closed = 1;
nodes = (
"525 7 LINE",
"383 -21 OFFCURVE",
"329 -48 OFFCURVE",
"329 -106 CURVE SMOOTH",
"329 -151 OFFCURVE",
"360 -182 OFFCURVE",
"439 -182 CURVE SMOOTH",
"752 -182 LINE",
"752 -177 LINE",
"439 -177 LINE SMOOTH",
"363 -177 OFFCURVE",
"334 -147 OFFCURVE",
"334 -106 CURVE SMOOTH",
"334 -51 OFFCURVE",
"383 -26 OFFCURVE",
"525 4 CURVE"
);
}
);
width = 854;
},
{
layerId = "2C5E45D0-97E8-45AA-A5B2-946753DF54E1";
paths = (
{
closed = 1;
nodes = (
"661 -11 OFFCURVE",
"820 149 OFFCURVE",
"820 378 CURVE SMOOTH",
"820 604 OFFCURVE",
"661 763 OFFCURVE",
"430 763 CURVE SMOOTH",
"199 763 OFFCURVE",
"40 604 OFFCURVE",
"40 378 CURVE SMOOTH",
"40 149 OFFCURVE",
"198 -10 OFFCURVE",
"430 -11 CURVE SMOOTH"
);
},
{
closed = 1;
nodes = (
"264 89 OFFCURVE",
"149 208 OFFCURVE",
"149 378 CURVE SMOOTH",
"149 547 OFFCURVE",
"264 663 OFFCURVE",
"430 663 CURVE SMOOTH",
"596 663 OFFCURVE",
"711 547 OFFCURVE",
"711 378 CURVE SMOOTH",
"711 208 OFFCURVE",
"596 89 OFFCURVE",
"430 89 CURVE SMOOTH"
);
},
{
closed = 1;
nodes = (
"482 82 LINE",
"366 52 OFFCURVE",
"321 16 OFFCURVE",
"321 -56 CURVE SMOOTH",
"321 -134 OFFCURVE",
"367 -182 OFFCURVE",
"485 -182 CURVE SMOOTH",
"792 -182 LINE",
"792 -89 LINE",
"491 -89 LINE SMOOTH",
"443 -89 OFFCURVE",
"423 -78 OFFCURVE",
"423 -45 CURVE SMOOTH",
"423 -15 OFFCURVE",
"441 -1 OFFCURVE",
"484 29 CURVE"
);
}
);
width = 860;
},
{
associatedMasterId = "2C5E45D0-97E8-45AA-A5B2-946753DF54E1";
backgroundImage = {
crop = "{{0, 0}, {2448, 3264}}";
imagePath = "../../Reference/Bruce/Bruce1848/1848 George Bruce & Co. type specimen book..jpg";
locked = "1";
transform = "{6.87522, 0, 0, 6.87522, -1066, -8409}";
};
layerId = "335EA497-6E32-4BE1-8A61-C06F4C286B9A";
name = "Dec 24 17, 01:19";
paths = (
{
closed = 1;
nodes = (
"660 -11 OFFCURVE",
"819 149 OFFCURVE",
"819 378 CURVE SMOOTH",
"819 604 OFFCURVE",
"660 763 OFFCURVE",
"429 763 CURVE SMOOTH",
"198 763 OFFCURVE",
"39 604 OFFCURVE",
"39 378 CURVE SMOOTH",
"39 158 OFFCURVE",
"196 5 OFFCURVE",
"427 4 CURVE",
"429 -11 LINE"
);
},
{
closed = 1;
nodes = (
"263 89 OFFCURVE",
"148 208 OFFCURVE",
"148 378 CURVE SMOOTH",
"148 547 OFFCURVE",
"263 663 OFFCURVE",
"429 663 CURVE SMOOTH",
"595 663 OFFCURVE",
"710 547 OFFCURVE",
"710 378 CURVE SMOOTH",
"710 208 OFFCURVE",
"595 89 OFFCURVE",
"429 89 CURVE SMOOTH"
);
},
{
closed = 1;
nodes = (
"427 42 LINE",
"306 42 OFFCURVE",
"259 9 OFFCURVE",
"259 -62 CURVE SMOOTH",
"259 -134 OFFCURVE",
"305 -182 OFFCURVE",
"423 -182 CURVE SMOOTH",
"770 -182 LINE",
"770 -89 LINE",
"429 -89 LINE SMOOTH",
"381 -89 OFFCURVE",
"361 -78 OFFCURVE",
"361 -50 CURVE SMOOTH",
"361 -22 OFFCURVE",
"381 -11 OFFCURVE",
"429 -11 CURVE"
);
}
);
width = 858;
},
{
layerId = "BE4E587A-F76C-447B-AA28-A45E40876AAF";
paths = (
{
closed = 1;
nodes = (
"684 -14 OFFCURVE",
"857 151 OFFCURVE",
"857 388 CURVE SMOOTH",
"857 622 OFFCURVE",
"684 786 OFFCURVE",
"434 786 CURVE SMOOTH",
"184 786 OFFCURVE",
"11 622 OFFCURVE",
"11 388 CURVE SMOOTH",
"11 151 OFFCURVE",
"184 -14 OFFCURVE",
"434 -14 CURVE SMOOTH"
);
},
{
closed = 1;
nodes = (
"342 229 OFFCURVE",
"278 294 OFFCURVE",
"278 388 CURVE SMOOTH",
"278 480 OFFCURVE",
"342 543 OFFCURVE",
"434 543 CURVE SMOOTH",
"526 543 OFFCURVE",
"590 480 OFFCURVE",
"590 388 CURVE SMOOTH",
"590 294 OFFCURVE",
"526 229 OFFCURVE",
"434 229 CURVE SMOOTH"
);
},
{
closed = 1;
nodes = (
"523 92 LINE",
"327 75 OFFCURVE",
"252 10 OFFCURVE",
"252 -82 CURVE SMOOTH",
"252 -160 OFFCURVE",
"304 -210 OFFCURVE",
"437 -210 CURVE SMOOTH",
"763 -210 LINE",
"763 -34 LINE",
"518 -34 LINE SMOOTH",
"496 -34 OFFCURVE",
"487 -31 OFFCURVE",
"487 -20 CURVE SMOOTH",
"487 -8 OFFCURVE",
"497 1 OFFCURVE",
"525 9 CURVE"
);
}
);
width = 868;
}
);
leftKerningGroup = O;
leftMetricsKey = O;
rightKerningGroup = O;
rightMetricsKey = O;
unicode = 0051;
},
{
color = 6;
glyphname = R;
lastChange = "2018-03-27 15:26:46 +0000";
layers = (
{
anchors = (
{
name = bottom;
position = "{457, 0}";
},
{
name = top;
position = "{423, 732}";
}
);
layerId = "67AEAADB-8447-4819-9D92-8BB76BD22042";
paths = (
{
closed = 1;
nodes = (
"448 377 LINE",
"479 377 LINE SMOOTH",
"529 377 OFFCURVE",
"554 360 OFFCURVE",
"572 308 CURVE SMOOTH",
"679 0 LINE",
"775 0 LINE",
"775 5 LINE",
"683 5 LINE",
"577 310 LINE SMOOTH",
"560 358 OFFCURVE",
"542 381 OFFCURVE",
"473 381 CURVE"
);
},
{
closed = 1;
nodes = (
"447 747 LINE SMOOTH",
"614 747 OFFCURVE",
"697 677 OFFCURVE",
"697 574 CURVE SMOOTH",
"697 468 OFFCURVE",
"609 382 OFFCURVE",
"446 382 CURVE SMOOTH",
"184 382 LINE",
"184 377 LINE",
"470 377 LINE",
"494 378 LINE",
"494 381 LINE",
"610 390 OFFCURVE",
"702 464 OFFCURVE",
"702 574 CURVE SMOOTH",
"702 680 OFFCURVE",
"617 752 OFFCURVE",
"447 752 CURVE SMOOTH",
"308 752 LINE",
"308 747 LINE"
);
},
{
closed = 1;
nodes = (
"181 747 LINE",
"181 5 LINE",
"32 5 LINE",
"32 0 LINE",
"335 0 LINE",
"335 5 LINE",
"186 5 LINE",
"186 747 LINE",
"335 747 LINE",
"335 752 LINE",
"32 752 LINE",
"32 747 LINE"
);
}
);
width = 805;
},
{
anchors = (
{
name = bottom;
position = "{446, 0}";
},
{
name = top;
position = "{404, 732}";
}
);
layerId = "BE4E587A-F76C-447B-AA28-A45E40876AAF";
rightMetricsKey = "=P+6";
paths = (
{
closed = 1;
nodes = (
"332 297 LINE",
"424 297 LINE",
"439 297 OFFCURVE",
"446 292 OFFCURVE",
"451 272 CURVE SMOOTH",
"516 0 LINE",
"786 0 LINE",
"786 207 LINE",
"735 207 LINE",
"689 355 LINE SMOOTH",
"678 390 OFFCURVE",
"637 438 OFFCURVE",
"554 458 CURVE"
);
},
{
closed = 1;
nodes = (
"450 565 LINE SMOOTH",
"490 565 OFFCURVE",
"517 551 OFFCURVE",
"517 519 CURVE SMOOTH",
"517 489 OFFCURVE",
"493 474 OFFCURVE",
"449 474 CURVE SMOOTH",
"252 474 LINE",
"252 297 LINE",
"501 297 LINE",
"669 378 LINE",
"669 395 LINE",
"735 421 OFFCURVE",
"784 459 OFFCURVE",
"784 551 CURVE SMOOTH",
"784 690 OFFCURVE",
"673 772 OFFCURVE",
"454 772 CURVE SMOOTH",
"319 772 LINE",
"319 565 LINE"
);
},
{
closed = 1;
nodes = (
"75 565 LINE",
"75 207 LINE",
"18 207 LINE",
"18 0 LINE",
"390 0 LINE",
"390 207 LINE",
"333 207 LINE",
"333 565 LINE",
"390 565 LINE",
"390 772 LINE",
"18 772 LINE",
"18 565 LINE"
);
}
);
width = 810;
},
{
anchors = (
{
name = bottom;
position = "{417, 0}";
},
{
name = top;
position = "{375, 732}";
}
);
layerId = "2C5E45D0-97E8-45AA-A5B2-946753DF54E1";
paths = (
{
closed = 1;
nodes = (
"350 334 LINE",
"389 334 LINE",
"439 334 OFFCURVE",
"460 316 OFFCURVE",
"478 265 CURVE SMOOTH",
"570 0 LINE",
"732 0 LINE",
"732 93 LINE",
"653 93 LINE",
"561 324 LINE SMOOTH",
"545 365 OFFCURVE",
"499 390 OFFCURVE",
"460 398 CURVE"
);
},
{
closed = 1;
nodes = (
"421 659 LINE SMOOTH",
"517 659 OFFCURVE",
"580 625 OFFCURVE",
"580 546 CURVE SMOOTH",
"580 464 OFFCURVE",
"524 424 OFFCURVE",
"420 424 CURVE SMOOTH",
"223 424 LINE",
"223 334 LINE",
"412 334 LINE",
"539 345 LINE",
"539 362 LINE",
"634 387 OFFCURVE",
"684 461 OFFCURVE",
"684 553 CURVE SMOOTH",
"684 678 OFFCURVE",
"597 752 OFFCURVE",
"425 752 CURVE SMOOTH",
"290 752 LINE",
"290 659 LINE"
);
},
{
closed = 1;
nodes = (
"135 659 LINE",
"135 93 LINE",
"25 93 LINE",
"25 0 LINE",
"347 0 LINE",
"347 93 LINE",
"237 93 LINE",
"237 659 LINE",
"347 659 LINE",
"347 752 LINE",
"25 752 LINE",
"25 659 LINE"
);
}
);
width = 753;
}
);
leftKerningGroup = H;
leftMetricsKey = H;
rightKerningGroup = R;
rightMetricsKey = P;
unicode = 0052;
},
{
color = 7;
glyphname = S;
lastChange = "2018-03-27 15:41:34 +0000";
layers = (
{
anchors = (
{
name = bottom;
position = "{351, 0}";
},
{
name = top;
position = "{312, 732}";
}
);
layerId = "67AEAADB-8447-4819-9D92-8BB76BD22042";
leftMetricsKey = "=H+12";
rightMetricsKey = "=|+4";
paths = (
{
closed = 1;
nodes = (
"502 -10 OFFCURVE",
"586 59 OFFCURVE",
"586 183 CURVE SMOOTH",
"586 301 OFFCURVE",
"511 359 OFFCURVE",
"318 391 CURVE SMOOTH",
"118 424 OFFCURVE",
"52 473 OFFCURVE",
"52 577 CURVE SMOOTH",
"52 694 OFFCURVE",
"139 757 OFFCURVE",
"282 757 CURVE SMOOTH",
"443 757 OFFCURVE",
"530 679 OFFCURVE",
"553 524 CURVE",
"556 546 LINE",
"552 546 LINE",
"530 680 OFFCURVE",
"446 762 OFFCURVE",
"282 762 CURVE SMOOTH",
"136 762 OFFCURVE",
"47 697 OFFCURVE",
"47 577 CURVE SMOOTH",
"47 469 OFFCURVE",
"118 419 OFFCURVE",
"317 386 CURVE SMOOTH",
"510 354 OFFCURVE",
"581 298 OFFCURVE",
"581 183 CURVE SMOOTH",
"581 62 OFFCURVE",
"499 -5 OFFCURVE",
"349 -5 CURVE SMOOTH",
"175 -5 OFFCURVE",
"70 76 OFFCURVE",
"49 228 CURVE",
"47 208 LINE",
"50 208 LINE",
"73 71 OFFCURVE",
"176 -10 OFFCURVE",
"349 -10 CURVE SMOOTH"
);
},
{
closed = 1;
nodes = (
"49 0 LINE",
"49 228 LINE",
"44 228 LINE",
"44 0 LINE"
);
},
{
closed = 1;
nodes = (
"558 524 LINE",
"558 752 LINE",
"553 752 LINE",
"553 524 LINE"
);
}
);
width = 634;
},
{
anchors = (
{
name = bottom;
position = "{411, 0}";
},
{
name = top;
position = "{344, 732}";
}
);
layerId = "BE4E587A-F76C-447B-AA28-A45E40876AAF";
leftMetricsKey = "=H+4";
paths = (
{
closed = 1;
nodes = (
"669 -10 OFFCURVE",
"756 74 OFFCURVE",
"756 229 CURVE SMOOTH",
"756 407 OFFCURVE",
"639 505 OFFCURVE",
"407 522 CURVE SMOOTH",
"318 529 OFFCURVE",
"290 553 OFFCURVE",
"290 585 CURVE SMOOTH",
"290 614 OFFCURVE",
"315 629 OFFCURVE",
"355 629 CURVE SMOOTH",
"422 629 OFFCURVE",
"468 590 OFFCURVE",
"477 528 CURVE",
"492 624 LINE",
"469 624 LINE",
"459 734 OFFCURVE",
"389 786 OFFCURVE",
"269 786 CURVE SMOOTH",
"110 786 OFFCURVE",
"22 697 OFFCURVE",
"22 551 CURVE SMOOTH",
"22 371 OFFCURVE",
"137 274 OFFCURVE",
"371 255 CURVE SMOOTH",
"455 248 OFFCURVE",
"488 233 OFFCURVE",
"488 198 CURVE SMOOTH",
"488 166 OFFCURVE",
"461 147 OFFCURVE",
"414 147 CURVE SMOOTH",
"354 147 OFFCURVE",
"304 189 OFFCURVE",
"293 248 CURVE",
"278 149 LINE",
"301 149 LINE",
"313 40 OFFCURVE",
"378 -10 OFFCURVE",
"502 -10 CURVE SMOOTH"
);
},
{
closed = 1;
nodes = (
"293 0 LINE",
"293 248 LINE",
"35 248 LINE",
"35 0 LINE"
);
},
{
closed = 1;
nodes = (
"735 528 LINE",
"735 772 LINE",
"477 772 LINE",
"477 528 LINE"
);
}
);
width = 767;
},
{
anchors = (
{
name = bottom;
position = "{334, 0}";
},
{
name = top;
position = "{324, 732}";
}
);
layerId = "2C5E45D0-97E8-45AA-A5B2-946753DF54E1";
leftMetricsKey = "=H+8";
rightMetricsKey = "=H+8";
paths = (
{
closed = 1;
nodes = (
"524 -10 OFFCURVE",
"616 71 OFFCURVE",
"616 208 CURVE SMOOTH",
"616 342 OFFCURVE",
"536 408 OFFCURVE",
"334 439 CURVE SMOOTH",
"196 465 OFFCURVE",
"138 503 OFFCURVE",
"138 570 CURVE SMOOTH",
"138 635 OFFCURVE",
"194 675 OFFCURVE",
"284 675 CURVE SMOOTH",
"390 675 OFFCURVE",
"472 615 OFFCURVE",
"488 524 CURVE",
"507 600 LINE",
"484 600 LINE",
"471 707 OFFCURVE",
"398 762 OFFCURVE",
"270 762 CURVE SMOOTH",
"123 762 OFFCURVE",
"34 688 OFFCURVE",
"34 565 CURVE SMOOTH",
"34 440 OFFCURVE",
"128 364 OFFCURVE",
"318 338 CURVE SMOOTH",
"460 318 OFFCURVE",
"512 281 OFFCURVE",
"512 201 CURVE SMOOTH",
"512 121 OFFCURVE",
"455 77 OFFCURVE",
"352 77 CURVE SMOOTH",
"236 77 OFFCURVE",
"152 135 OFFCURVE",
"135 228 CURVE",
"116 149 LINE",
"139 149 LINE",
"154 47 OFFCURVE",
"236 -10 OFFCURVE",
"368 -10 CURVE SMOOTH"
);
},
{
closed = 1;
nodes = (
"135 0 LINE",
"135 228 LINE",
"33 228 LINE",
"33 0 LINE"
);
},
{
closed = 1;
nodes = (
"590 524 LINE",
"590 752 LINE",
"488 752 LINE",
"488 524 LINE"
);
}
);
width = 649;
},
{
anchors = (
{
name = bottom;
position = "{351, 0}";
},
{
name = top;
position = "{312, 732}";
}
);
associatedMasterId = "67AEAADB-8447-4819-9D92-8BB76BD22042";
layerId = "56725886-56DC-4334-8FA3-A525F4F55AA4";
leftMetricsKey = "=H+12";
rightMetricsKey = "=|+4";
name = "Light [6]";
paths = (
{
closed = 1;
nodes = (
"502 -10 OFFCURVE",
"586 59 OFFCURVE",
"586 183 CURVE SMOOTH",
"586 301 OFFCURVE",
"511 359 OFFCURVE",
"318 391 CURVE SMOOTH",
"118 424 OFFCURVE",
"52 473 OFFCURVE",
"52 577 CURVE SMOOTH",
"52 694 OFFCURVE",
"139 757 OFFCURVE",
"282 757 CURVE SMOOTH",
"443 757 OFFCURVE",
"530 679 OFFCURVE",
"553 524 CURVE",
"556 577 LINE",
"552 577 LINE",
"526 685 OFFCURVE",
"442 762 OFFCURVE",
"282 762 CURVE SMOOTH",
"136 762 OFFCURVE",
"47 697 OFFCURVE",
"47 577 CURVE SMOOTH",
"47 469 OFFCURVE",
"118 419 OFFCURVE",
"317 386 CURVE SMOOTH",
"510 354 OFFCURVE",
"581 298 OFFCURVE",
"581 183 CURVE SMOOTH",
"581 62 OFFCURVE",
"499 -5 OFFCURVE",
"344 -5 CURVE SMOOTH",
"175 -5 OFFCURVE",
"70 76 OFFCURVE",
"49 228 CURVE",
"47 178 LINE",
"50 178 LINE",
"77 66 OFFCURVE",
"179 -10 OFFCURVE",
"344 -10 CURVE SMOOTH"
);
},
{
closed = 1;
nodes = (
"49 0 LINE",
"49 228 LINE",
"44 228 LINE",
"44 0 LINE"
);
},
{
closed = 1;
nodes = (
"558 524 LINE",
"558 752 LINE",
"553 752 LINE",
"553 524 LINE"
);
}
);
width = 634;
},
{
anchors = (
{
name = bottom;
position = "{411, 0}";
},
{
name = top;
position = "{344, 732}";
}
);
associatedMasterId = "BE4E587A-F76C-447B-AA28-A45E40876AAF";
layerId = "F8ECC15C-CBDE-49AD-B5FB-69E86B5BF4A4";
leftMetricsKey = "=H+4";
name = "Mar 20 18, 14:45";
paths = (
{
closed = 1;
nodes = (
"669 -10 OFFCURVE",
"756 74 OFFCURVE",
"756 229 CURVE SMOOTH",
"756 407 OFFCURVE",
"639 505 OFFCURVE",
"407 522 CURVE SMOOTH",
"318 529 OFFCURVE",
"290 553 OFFCURVE",
"290 585 CURVE SMOOTH",
"290 614 OFFCURVE",
"315 629 OFFCURVE",
"355 629 CURVE SMOOTH",
"422 629 OFFCURVE",
"468 590 OFFCURVE",
"477 528 CURVE",
"492 584 LINE",
"469 584 LINE",
"459 721 OFFCURVE",
"389 786 OFFCURVE",
"259 786 CURVE SMOOTH",
"110 786 OFFCURVE",
"22 697 OFFCURVE",
"22 551 CURVE SMOOTH",
"22 371 OFFCURVE",
"137 274 OFFCURVE",
"371 255 CURVE SMOOTH",
"455 248 OFFCURVE",
"488 233 OFFCURVE",
"488 198 CURVE SMOOTH",
"488 166 OFFCURVE",
"461 147 OFFCURVE",
"414 147 CURVE SMOOTH",
"354 147 OFFCURVE",
"304 189 OFFCURVE",
"293 248 CURVE",
"278 189 LINE",
"301 189 LINE",
"313 52 OFFCURVE",
"378 -10 OFFCURVE",
"512 -10 CURVE SMOOTH"
);
},
{
closed = 1;
nodes = (
"293 0 LINE",
"293 248 LINE",
"35 248 LINE",
"35 0 LINE"
);
},
{
closed = 1;
nodes = (
"735 528 LINE",
"735 772 LINE",
"477 772 LINE",
"477 528 LINE"
);
}
);
width = 767;
}
);
leftKerningGroup = S;
rightKerningGroup = S;
rightMetricsKey = "=|-11";
unicode = 0053;
},
{
color = 4;
glyphname = Germandbls;
lastChange = "2018-03-27 18:04:56 +0000";
layers = (
{
layerId = "67AEAADB-8447-4819-9D92-8BB76BD22042";
leftMetricsKey = "=n+12";
paths = (
{
closed = 1;
nodes = (
"427 417 LINE",
"433 417 LINE",
"433 422 LINE",
"706 667 LINE",
"706 669 LINE",
"700 671 LINE",
"700 668 LINE",
"427 423 LINE"
);
},
{
closed = 1;
nodes = (
"311 5 LINE",
"201 5 LINE",
"201 557 LINE SMOOTH",
"201 697 OFFCURVE",
"272 792 OFFCURVE",
"433 792 CURVE SMOOTH",
"537 792 OFFCURVE",
"635 753 OFFCURVE",
"702 666 CURVE",
"706 669 LINE",
"639 756 OFFCURVE",
"540 797 OFFCURVE",
"433 797 CURVE SMOOTH",
"269 797 OFFCURVE",
"196 700 OFFCURVE",
"196 557 CURVE SMOOTH",
"196 5 LINE",
"67 5 LINE",
"67 0 LINE",
"311 0 LINE"
);
},
{
closed = 1;
nodes = (
"427 417 LINE",
"674 400 OFFCURVE",
"770 331 OFFCURVE",
"770 199 CURVE SMOOTH",
"770 80 OFFCURVE",
"696 -2 OFFCURVE",
"533 -2 CURVE SMOOTH",
"401 -2 OFFCURVE",
"333 50 OFFCURVE",
"314 144 CURVE",
"309 143 LINE",
"328 49 OFFCURVE",
"398 -7 OFFCURVE",
"533 -7 CURVE SMOOTH",
"699 -7 OFFCURVE",
"775 78 OFFCURVE",
"775 199 CURVE SMOOTH",
"775 334 OFFCURVE",
"675 405 OFFCURVE",
"428 422 CURVE"
);
}
);
width = 839;
},
{
layerId = "BE4E587A-F76C-447B-AA28-A45E40876AAF";
leftMetricsKey = "=n+12";
paths = (
{
closed = 1;
nodes = (
"432 277 LINE",
"704 389 LINE",
"704 421 LINE",
"781 512 LINE",
"781 629 LINE",
"502 568 LINE",
"502 539 LINE",
"432 462 LINE"
);
},
{
closed = 1;
nodes = (
"394 203 LINE",
"347 203 LINE",
"347 496 LINE SMOOTH",
"347 543 OFFCURVE",
"372 565 OFFCURVE",
"416 565 CURVE SMOOTH",
"468 565 OFFCURVE",
"504 534 OFFCURVE",
"517 503 CURVE",
"781 629 LINE",
"697 745 OFFCURVE",
"574 800 OFFCURVE",
"419 800 CURVE SMOOTH",
"194 800 OFFCURVE",
"88 678 OFFCURVE",
"88 496 CURVE SMOOTH",
"89 203 LINE",
"32 203 LINE",
"32 0 LINE",
"394 0 LINE"
);
},
{
closed = 1;
nodes = (
"432 277 LINE",
"548 272 OFFCURVE",
"593 254 OFFCURVE",
"593 215 CURVE SMOOTH",
"593 192 OFFCURVE",
"578 180 OFFCURVE",
"554 180 CURVE SMOOTH",
"539 180 OFFCURVE",
"526 185 OFFCURVE",
"513 194 CURVE",
"423 16 LINE",
"461 -3 OFFCURVE",
"495 -12 OFFCURVE",
"561 -12 CURVE SMOOTH",
"765 -12 OFFCURVE",
"855 74 OFFCURVE",
"855 220 CURVE SMOOTH",
"855 344 OFFCURVE",
"783 411 OFFCURVE",
"588 440 CURVE"
);
}
);
width = 872;
},
{
associatedMasterId = "2C5E45D0-97E8-45AA-A5B2-946753DF54E1";
layerId = "FE80F295-343F-470D-BC19-20BD28AC8CD9";
rightMetricsKey = "=s-16";
name = "Jan 3 18, 14:29";
paths = (
{
closed = 1;
nodes = (
"362 337 LINE",
"483 379 LINE",
"483 411 LINE",
"631 673 LINE",
"631 759 LINE",
"532 720 LINE",
"532 691 LINE",
"362 404 LINE"
);
},
{
closed = 1;
nodes = (
"362 337 LINE",
"538 325 OFFCURVE",
"606 281 OFFCURVE",
"606 191 CURVE SMOOTH",
"606 115 OFFCURVE",
"559 78 OFFCURVE",
"472 78 CURVE SMOOTH",
"411 78 OFFCURVE",
"369 107 OFFCURVE",
"361 148 CURVE",
"264 130 LINE",
"282 42 OFFCURVE",
"342 -10 OFFCURVE",
"475 -10 CURVE SMOOTH",
"625 -10 OFFCURVE",
"700 71 OFFCURVE",
"700 198 CURVE SMOOTH",
"700 329 OFFCURVE",
"622 399 OFFCURVE",
"408 430 CURVE"
);
},
{
closed = 1;
nodes = (
"232 584 LINE SMOOTH",
"232 675 OFFCURVE",
"282 711 OFFCURVE",
"395 711 CURVE SMOOTH",
"470 711 OFFCURVE",
"536 695 OFFCURVE",
"611 672 CURVE",
"631 759 LINE",
"546 782 OFFCURVE",
"459 800 OFFCURVE",
"380 800 CURVE SMOOTH",
"212 800 OFFCURVE",
"135 717 OFFCURVE",
"135 584 CURVE SMOOTH",
"135 536 LINE",
"32 536 LINE",
"32 452 LINE",
"134 452 LINE",
"134 84 LINE",
"32 84 LINE",
"32 0 LINE",
"232 0 LINE",
"232 452 LINE",
"232 536 LINE"
);
}
);
width = 732;
},
{
associatedMasterId = "2C5E45D0-97E8-45AA-A5B2-946753DF54E1";
layerId = "EB730B4A-FF7D-4771-98D9-8E290D735F46";
rightMetricsKey = "=s-16";
name = "Jan 3 18, 14:37";
paths = (
{
closed = 1;
nodes = (
"402 367 LINE",
"523 409 LINE",
"523 441 LINE",
"685 656 LINE",
"685 690 LINE",
"575 685 LINE",
"575 656 LINE",
"402 434 LINE"
);
},
{
closed = 1;
nodes = (
"402 367 LINE",
"578 354 OFFCURVE",
"646 307 OFFCURVE",
"646 210 CURVE SMOOTH",
"646 126 OFFCURVE",
"590 76 OFFCURVE",
"500 76 CURVE SMOOTH",
"423 76 OFFCURVE",
"371 113 OFFCURVE",
"361 165 CURVE",
"264 147 LINE",
"284 47 OFFCURVE",
"355 -12 OFFCURVE",
"499 -12 CURVE SMOOTH",
"665 -12 OFFCURVE",
"740 74 OFFCURVE",
"740 211 CURVE SMOOTH",
"740 355 OFFCURVE",
"662 428 OFFCURVE",
"448 460 CURVE"
);
},
{
closed = 1;
nodes = (
"134 659 LINE",
"134 93 LINE",
"24 93 LINE",
"24 0 LINE",
"236 0 LINE",
"236 659 LINE",
"685 659 LINE",
"685 752 LINE",
"24 752 LINE",
"24 659 LINE"
);
}
);
width = 772;
},
{
layerId = "2C5E45D0-97E8-45AA-A5B2-946753DF54E1";
leftMetricsKey = "=H";
rightMetricsKey = "=S-16";
paths = (
{
closed = 1;
nodes = (
"429 367 LINE",
"550 417 LINE",
"550 449 LINE",
"708 576 LINE",
"708 669 LINE",
"618 664 LINE",
"618 635 LINE",
"429 471 LINE"
);
},
{
closed = 1;
nodes = (
"289 94 LINE",
"229 94 LINE",
"229 557 LINE SMOOTH",
"229 654 OFFCURVE",
"300 700 OFFCURVE",
"414 700 CURVE SMOOTH",
"540 700 OFFCURVE",
"620 643 OFFCURVE",
"648 585 CURVE",
"708 669 LINE",
"639 758 OFFCURVE",
"539 800 OFFCURVE",
"409 800 CURVE SMOOTH",
"218 800 OFFCURVE",
"128 702 OFFCURVE",
"128 557 CURVE",
"127 93 LINE",
"25 93 LINE",
"25 0 LINE",
"289 0 LINE"
);
},
{
closed = 1;
nodes = (
"429 367 LINE",
"605 354 OFFCURVE",
"673 307 OFFCURVE",
"673 212 CURVE SMOOTH",
"673 130 OFFCURVE",
"620 83 OFFCURVE",
"536 83 CURVE SMOOTH",
"464 83 OFFCURVE",
"417 117 OFFCURVE",
"408 165 CURVE",
"311 143 LINE",
"330 46 OFFCURVE",
"397 -12 OFFCURVE",
"535 -12 CURVE SMOOTH",
"701 -12 OFFCURVE",
"777 74 OFFCURVE",
"777 211 CURVE SMOOTH",
"777 355 OFFCURVE",
"696 428 OFFCURVE",
"475 460 CURVE"
);
}
);
width = 794;
},
{
associatedMasterId = "2C5E45D0-97E8-45AA-A5B2-946753DF54E1";
layerId = "7A2D836D-4BFC-4F42-A04F-CB07B7DAE8B8";
leftMetricsKey = "=H";
rightMetricsKey = "=S-16";
name = "Mar 14 18, 15:13";
paths = (
{
closed = 1;
nodes = (
"422 367 LINE",
"543 417 LINE",
"543 449 LINE",
"701 576 LINE",
"701 669 LINE",
"611 664 LINE",
"611 635 LINE",
"422 471 LINE"
);
},
{
closed = 1;
nodes = (
"252 557 LINE SMOOTH",
"252 654 OFFCURVE",
"319 700 OFFCURVE",
"425 700 CURVE SMOOTH",
"542 700 OFFCURVE",
"615 643 OFFCURVE",
"641 585 CURVE",
"701 669 LINE",
"637 758 OFFCURVE",
"543 800 OFFCURVE",
"420 800 CURVE SMOOTH",
"238 800 OFFCURVE",
"151 702 OFFCURVE",
"151 557 CURVE SMOOTH",
"151 536 LINE",
"48 536 LINE",
"48 443 LINE",
"150 443 LINE",
"150 93 LINE",
"48 93 LINE",
"48 0 LINE",
"252 0 LINE"
);
},
{
closed = 1;
nodes = (
"422 367 LINE",
"598 354 OFFCURVE",
"666 307 OFFCURVE",
"666 212 CURVE SMOOTH",
"666 130 OFFCURVE",
"613 83 OFFCURVE",
"529 83 CURVE SMOOTH",
"457 83 OFFCURVE",
"410 117 OFFCURVE",
"401 165 CURVE",
"304 143 LINE",
"323 46 OFFCURVE",
"390 -12 OFFCURVE",
"528 -12 CURVE SMOOTH",
"694 -12 OFFCURVE",
"770 74 OFFCURVE",
"770 211 CURVE SMOOTH",
"770 355 OFFCURVE",
"689 428 OFFCURVE",
"468 460 CURVE"
);
}
);
width = 810;
},
{
associatedMasterId = "67AEAADB-8447-4819-9D92-8BB76BD22042";
layerId = "5D449654-87D6-4E8D-B954-DA4B523FA6C0";
leftMetricsKey = "=n+12";
name = "Mar 14 18, 15:13";
paths = (
{
closed = 1;
nodes = (
"385 417 LINE",
"391 417 LINE",
"391 422 LINE",
"664 667 LINE",
"664 669 LINE",
"658 671 LINE",
"658 668 LINE",
"385 423 LINE"
);
},
{
closed = 1;
nodes = (
"185 557 LINE SMOOTH",
"185 697 OFFCURVE",
"252 792 OFFCURVE",
"404 792 CURVE SMOOTH",
"503 792 OFFCURVE",
"596 753 OFFCURVE",
"660 666 CURVE",
"664 669 LINE",
"600 756 OFFCURVE",
"506 797 OFFCURVE",
"404 797 CURVE SMOOTH",
"249 797 OFFCURVE",
"180 700 OFFCURVE",
"180 557 CURVE SMOOTH",
"180 524 LINE",
"51 524 LINE",
"51 519 LINE",
"180 519 LINE",
"180 5 LINE",
"51 5 LINE",
"51 0 LINE",
"185 0 LINE"
);
},
{
closed = 1;
nodes = (
"385 417 LINE",
"632 400 OFFCURVE",
"728 331 OFFCURVE",
"728 199 CURVE SMOOTH",
"728 81 OFFCURVE",
"654 -2 OFFCURVE",
"491 -2 CURVE SMOOTH",
"359 -2 OFFCURVE",
"291 50 OFFCURVE",
"272 144 CURVE",
"267 143 LINE",
"286 49 OFFCURVE",
"356 -7 OFFCURVE",
"491 -7 CURVE SMOOTH",
"657 -7 OFFCURVE",
"733 78 OFFCURVE",
"733 199 CURVE SMOOTH",
"733 334 OFFCURVE",
"633 405 OFFCURVE",
"386 422 CURVE"
);
}
);
width = 794;
},
{
associatedMasterId = "BE4E587A-F76C-447B-AA28-A45E40876AAF";
layerId = "A19A1ABD-413B-406B-8389-FADDDF7B4D8D";
leftMetricsKey = "=n+12";
name = "Mar 14 18, 15:13";
paths = (
{
closed = 1;
nodes = (
"428 277 LINE",
"700 389 LINE",
"700 421 LINE",
"777 512 LINE",
"777 629 LINE",
"498 568 LINE",
"498 539 LINE",
"428 462 LINE"
);
},
{
closed = 1;
nodes = (
"373 516 LINE SMOOTH",
"373 560 OFFCURVE",
"396 581 OFFCURVE",
"432 581 CURVE SMOOTH",
"473 581 OFFCURVE",
"498 552 OFFCURVE",
"507 523 CURVE",
"777 629 LINE",
"699 745 OFFCURVE",
"585 800 OFFCURVE",
"436 800 CURVE SMOOTH",
"222 800 OFFCURVE",
"119 714 OFFCURVE",
"119 586 CURVE SMOOTH",
"119 580 LINE",
"30 580 LINE",
"30 377 LINE",
"119 377 LINE",
"119 203 LINE",
"30 203 LINE",
"30 0 LINE",
"373 0 LINE"
);
},
{
closed = 1;
nodes = (
"428 277 LINE",
"544 272 OFFCURVE",
"589 254 OFFCURVE",
"589 215 CURVE SMOOTH",
"589 192 OFFCURVE",
"574 180 OFFCURVE",
"550 180 CURVE SMOOTH",
"535 180 OFFCURVE",
"522 185 OFFCURVE",
"509 194 CURVE",
"419 16 LINE",
"457 -3 OFFCURVE",
"491 -12 OFFCURVE",
"557 -12 CURVE SMOOTH",
"761 -12 OFFCURVE",
"851 74 OFFCURVE",
"851 220 CURVE SMOOTH",
"851 344 OFFCURVE",
"779 411 OFFCURVE",
"584 440 CURVE"
);
}
);
width = 872;
}
);
leftMetricsKey = "n+12";
rightMetricsKey = s;
unicode = 1E9E;
},
{
color = 4;
glyphname = Schwa;
lastChange = "2018-03-27 15:34:30 +0000";
layers = (
{
layerId = "67AEAADB-8447-4819-9D92-8BB76BD22042";
leftMetricsKey = "=O-2";
paths = (
{
closed = 1;
nodes = (
"48 386 LINE",
"48 381 LINE",
"803 381 LINE",
"803 386 LINE"
);
},
{
closed = 1;
nodes = (
"266 759 OFFCURVE",
"133 685 OFFCURVE",
"74 538 CURVE",
"79 536 LINE",
"138 682 OFFCURVE",
"269 754 OFFCURVE",
"426 754 CURVE SMOOTH",
"652 754 OFFCURVE",
"801 599 OFFCURVE",
"801 378 CURVE SMOOTH",
"801 154 OFFCURVE",
"647 -2 OFFCURVE",
"426 -2 CURVE SMOOTH",
"204 -2 OFFCURVE",
"51 154 OFFCURVE",
"51 378 CURVE SMOOTH",
"51 381 OFFCURVE",
"51 383 OFFCURVE",
"51 386 CURVE",
"46 386 LINE",
"46 384 OFFCURVE",
"46 381 OFFCURVE",
"46 378 CURVE SMOOTH",
"46 151 OFFCURVE",
"201 -7 OFFCURVE",
"426 -7 CURVE SMOOTH",
"650 -7 OFFCURVE",
"806 151 OFFCURVE",
"806 378 CURVE SMOOTH",
"806 602 OFFCURVE",
"655 759 OFFCURVE",
"426 759 CURVE SMOOTH"
);
}
);
width = 854;
},
{
layerId = "2C5E45D0-97E8-45AA-A5B2-946753DF54E1";
leftMetricsKey = "=O-3";
rightMetricsKey = "=O+2";
paths = (
{
closed = 1;
nodes = (
"39 428 LINE",
"47 338 LINE",
"719 338 LINE",
"719 428 LINE"
);
},
{
closed = 1;
nodes = (
"257 763 OFFCURVE",
"124 688 OFFCURVE",
"65 538 CURVE",
"165 500 LINE",
"202 598 OFFCURVE",
"298 663 OFFCURVE",
"417 663 CURVE SMOOTH",
"579 663 OFFCURVE",
"688 547 OFFCURVE",
"688 378 CURVE SMOOTH",
"688 208 OFFCURVE",
"576 89 OFFCURVE",
"417 89 CURVE SMOOTH",
"256 89 OFFCURVE",
"146 208 OFFCURVE",
"146 378 CURVE SMOOTH",
"146 391 OFFCURVE",
"146 403 OFFCURVE",
"146 417 CURVE",
"39 428 LINE",
"38 414 OFFCURVE",
"37 396 OFFCURVE",
"37 378 CURVE SMOOTH",
"37 149 OFFCURVE",
"192 -11 OFFCURVE",
"417 -11 CURVE SMOOTH",
"641 -11 OFFCURVE",
"797 149 OFFCURVE",
"797 378 CURVE SMOOTH",
"797 604 OFFCURVE",
"646 763 OFFCURVE",
"417 763 CURVE SMOOTH"
);
}
);
width = 839;
},
{
layerId = "BE4E587A-F76C-447B-AA28-A45E40876AAF";
leftMetricsKey = "=O+2";
paths = (
{
closed = 1;
nodes = (
"42 434 LINE",
"50 338 LINE",
"722 338 LINE",
"722 434 LINE"
);
},
{
closed = 1;
nodes = (
"252 786 OFFCURVE",
"110 697 OFFCURVE",
"47 557 CURVE",
"291 450 LINE",
"313 507 OFFCURVE",
"366 543 OFFCURVE",
"436 543 CURVE SMOOTH",
"528 543 OFFCURVE",
"592 480 OFFCURVE",
"592 388 CURVE SMOOTH",
"592 294 OFFCURVE",
"528 229 OFFCURVE",
"436 229 CURVE SMOOTH",
"344 229 OFFCURVE",
"280 294 OFFCURVE",
"280 388 CURVE SMOOTH",
"280 404 OFFCURVE",
"282 420 OFFCURVE",
"286 434 CURVE",
"15 434 LINE",
"14 419 OFFCURVE",
"13 404 OFFCURVE",
"13 388 CURVE SMOOTH",
"13 151 OFFCURVE",
"186 -14 OFFCURVE",
"436 -14 CURVE SMOOTH",
"686 -14 OFFCURVE",
"859 151 OFFCURVE",
"859 388 CURVE SMOOTH",
"859 622 OFFCURVE",
"686 786 OFFCURVE",
"436 786 CURVE SMOOTH"
);
}
);
width = 870;
},
{
associatedMasterId = "BE4E587A-F76C-447B-AA28-A45E40876AAF";
layerId = "C52F069E-406C-4236-8650-9E28C7D0ABB4";
leftMetricsKey = "=O+2";
name = "Feb 21 18, 17:49";
paths = (
{
closed = 1;
nodes = (
"42 434 LINE",
"50 338 LINE",
"722 338 LINE",
"722 434 LINE"
);
},
{
closed = 1;
nodes = (
"288 772 LINE",
"34 772 LINE",
"34 452 LINE",
"288 452 LINE"
);
},
{
closed = 1;
nodes = (
"360 786 OFFCURVE",
"305 673 OFFCURVE",
"296 506 CURVE",
"248 506 LINE",
"288 452 LINE",
"307 508 OFFCURVE",
"365 543 OFFCURVE",
"437 543 CURVE SMOOTH",
"532 543 OFFCURVE",
"592 480 OFFCURVE",
"592 388 CURVE SMOOTH",
"592 294 OFFCURVE",
"528 229 OFFCURVE",
"436 229 CURVE SMOOTH",
"344 229 OFFCURVE",
"280 294 OFFCURVE",
"280 388 CURVE SMOOTH",
"280 404 OFFCURVE",
"282 420 OFFCURVE",
"286 434 CURVE",
"15 434 LINE",
"14 419 OFFCURVE",
"13 404 OFFCURVE",
"13 388 CURVE SMOOTH",
"13 151 OFFCURVE",
"186 -14 OFFCURVE",
"436 -14 CURVE SMOOTH",
"686 -14 OFFCURVE",
"859 151 OFFCURVE",
"859 388 CURVE SMOOTH",
"859 622 OFFCURVE",
"687 786 OFFCURVE",
"509 786 CURVE SMOOTH"
);
}
);
width = 870;
}
);
rightMetricsKey = O;
unicode = 018F;
},
{
glyphname = T;
lastChange = "2018-03-27 03:01:22 +0000";
layers = (
{
anchors = (
{
name = bottom;
position = "{357, 0}";
},
{
name = top;
position = "{357, 732}";
}
);
layerId = "67AEAADB-8447-4819-9D92-8BB76BD22042";
paths = (
{
closed = 1;
nodes = (
"18 752 LINE",
"18 541 LINE",
"23 541 LINE",
"23 747 LINE",
"355 747 LINE",
"355 5 LINE",
"206 5 LINE",
"206 0 LINE",
"508 0 LINE",
"508 5 LINE",
"360 5 LINE",
"360 747 LINE",
"692 747 LINE",
"692 541 LINE",
"697 541 LINE",
"697 752 LINE"
);
}
);
width = 715;
},
{
anchors = (
{
name = bottom;
position = "{370, 0}";
},
{
name = top;
position = "{370, 732}";
}
);
layerId = "2C5E45D0-97E8-45AA-A5B2-946753DF54E1";
paths = (
{
closed = 1;
nodes = (
"9 752 LINE",
"9 500 LINE",
"111 500 LINE",
"111 659 LINE",
"319 659 LINE",
"319 93 LINE",
"209 93 LINE",
"209 0 LINE",
"531 0 LINE",
"531 93 LINE",
"421 93 LINE",
"421 659 LINE",
"629 659 LINE",
"629 500 LINE",
"731 500 LINE",
"731 752 LINE"
);
}
);
width = 740;
},
{
anchors = (
{
name = bottom;
position = "{446, 0}";
},
{
name = top;
position = "{446, 732}";
}
);
associatedMasterId = "BE4E587A-F76C-447B-AA28-A45E40876AAF";
layerId = "1DCD6A0C-C43B-49AE-9011-5337C9DC4995";
name = "Feb 18 18, 17:30";
paths = (
{
closed = 1;
nodes = (
"7 772 LINE",
"7 401 LINE",
"265 401 LINE",
"265 565 LINE",
"317 565 LINE",
"317 207 LINE",
"262 207 LINE",
"262 0 LINE",
"630 0 LINE",
"630 207 LINE",
"575 207 LINE",
"575 565 LINE",
"627 565 LINE",
"627 401 LINE",
"885 401 LINE",
"885 772 LINE"
);
}
);
width = 892;
},
{
anchors = (
{
name = bottom;
position = "{404, 0}";
},
{
name = top;
position = "{404, 732}";
}
);
layerId = "BE4E587A-F76C-447B-AA28-A45E40876AAF";
paths = (
{
closed = 1;
nodes = (
"6 772 LINE",
"6 423 LINE",
"216 423 LINE",
"216 565 LINE",
"275 565 LINE",
"275 207 LINE",
"220 207 LINE",
"220 0 LINE",
"588 0 LINE",
"588 207 LINE",
"533 207 LINE",
"533 565 LINE",
"592 565 LINE",
"592 423 LINE",
"802 423 LINE",
"802 772 LINE"
);
}
);
width = 808;
}
);
leftKerningGroup = T;
leftMetricsKey = "=|F";
rightKerningGroup = T;
rightMetricsKey = "=|";
unicode = 0054;
},
{
color = 6;
glyphname = U;
lastChange = "2018-03-27 15:50:51 +0000";
layers = (
{
anchors = (
{
name = bottom;
position = "{431, 0}";
},
{
name = horn;
position = "{855, 752}";
},
{
name = ogonek;
position = "{556, 13}";
},
{
name = top;
position = "{424, 732}";
}
);
layerId = "67AEAADB-8447-4819-9D92-8BB76BD22042";
paths = (
{
closed = 1;
nodes = (
"553 747 LINE",
"702 747 LINE",
"702 299 LINE SMOOTH",
"702 115 OFFCURVE",
"633 -2 OFFCURVE",
"431 -2 CURVE SMOOTH",
"229 -2 OFFCURVE",
"161 115 OFFCURVE",
"161 299 CURVE SMOOTH",
"161 747 LINE",
"309 747 LINE",
"309 752 LINE",
"7 752 LINE",
"7 747 LINE",
"156 747 LINE",
"156 299 LINE SMOOTH",
"156 113 OFFCURVE",
"226 -7 OFFCURVE",
"431 -7 CURVE SMOOTH",
"636 -7 OFFCURVE",
"707 113 OFFCURVE",
"707 299 CURVE SMOOTH",
"707 747 LINE",
"855 747 LINE",
"855 752 LINE",
"553 752 LINE"
);
}
);
width = 862;
},
{
anchors = (
{
name = bottom;
position = "{424, 0}";
},
{
name = horn;
position = "{826, 772}";
},
{
name = ogonek;
position = "{589, 25}";
},
{
name = top;
position = "{424, 772}";
}
);
layerId = "BE4E587A-F76C-447B-AA28-A45E40876AAF";
leftMetricsKey = "=|J";
paths = (
{
closed = 1;
nodes = (
"479 565 LINE",
"548 565 LINE",
"548 330 LINE SMOOTH",
"548 257 OFFCURVE",
"508 210 OFFCURVE",
"437 210 CURVE SMOOTH",
"366 210 OFFCURVE",
"325 257 OFFCURVE",
"325 330 CURVE SMOOTH",
"325 565 LINE",
"394 565 LINE",
"394 772 LINE",
"12 772 LINE",
"12 565 LINE",
"67 565 LINE",
"67 332 LINE SMOOTH",
"67 124 OFFCURVE",
"202 -11 OFFCURVE",
"418 -11 CURVE SMOOTH",
"637 -11 OFFCURVE",
"762 124 OFFCURVE",
"762 332 CURVE SMOOTH",
"762 565 LINE",
"817 565 LINE",
"817 772 LINE",
"479 772 LINE"
);
}
);
width = 829;
},
{
anchors = (
{
name = bottom;
position = "{407, 0}";
},
{
name = horn;
position = "{817, 752}";
},
{
name = ogonek;
position = "{543, 14}";
},
{
name = top;
position = "{407, 732}";
}
);
layerId = "2C5E45D0-97E8-45AA-A5B2-946753DF54E1";
leftMetricsKey = "=|N-2";
rightMetricsKey = "=|";
paths = (
{
closed = 1;
nodes = (
"501 659 LINE",
"611 659 LINE",
"611 282 LINE SMOOTH",
"611 163 OFFCURVE",
"536 87 OFFCURVE",
"408 87 CURVE SMOOTH",
"280 87 OFFCURVE",
"209 163 OFFCURVE",
"209 282 CURVE SMOOTH",
"209 659 LINE",
"319 659 LINE",
"319 752 LINE",
"1 752 LINE",
"1 659 LINE",
"107 659 LINE",
"107 282 LINE SMOOTH",
"107 105 OFFCURVE",
"220 -11 OFFCURVE",
"407 -11 CURVE SMOOTH",
"594 -11 OFFCURVE",
"707 105 OFFCURVE",
"707 282 CURVE SMOOTH",
"707 659 LINE",
"813 659 LINE",
"813 752 LINE",
"501 752 LINE"
);
}
);
width = 814;
}
);
leftKerningGroup = U;
rightKerningGroup = U;
rightMetricsKey = "=|";
unicode = 0055;
},
{
color = 6;
glyphname = Uhorn;
lastChange = "2018-03-27 15:53:18 +0000";
layers = (
{
anchors = (
{
name = bottom;
position = "{431, 0}";
},
{
name = ogonek;
position = "{560, 14}";
},
{
name = top;
position = "{424, 732}";
}
);
layerId = "67AEAADB-8447-4819-9D92-8BB76BD22042";
paths = (
{
closed = 1;
nodes = (
"553 747 LINE",
"702 747 LINE",
"702 299 LINE SMOOTH",
"702 115 OFFCURVE",
"633 -2 OFFCURVE",
"431 -2 CURVE SMOOTH",
"229 -2 OFFCURVE",
"161 115 OFFCURVE",
"161 299 CURVE SMOOTH",
"161 747 LINE",
"309 747 LINE",
"309 752 LINE",
"7 752 LINE",
"7 747 LINE",
"156 747 LINE",
"156 299 LINE SMOOTH",
"156 113 OFFCURVE",
"226 -7 OFFCURVE",
"431 -7 CURVE SMOOTH",
"636 -7 OFFCURVE",
"707 113 OFFCURVE",
"707 299 CURVE SMOOTH",
"707 747 LINE",
"770 747 LINE",
"770 752 LINE",
"553 752 LINE"
);
},
{
closed = 1;
nodes = (
"850 874 LINE",
"850 835 LINE SMOOTH",
"850 779 OFFCURVE",
"824 752 OFFCURVE",
"770 752 CURVE",
"760 747 LINE",
"770 747 LINE SMOOTH",
"827 747 OFFCURVE",
"855 776 OFFCURVE",
"855 835 CURVE SMOOTH",
"855 874 LINE"
);
}
);
width = 862;
},
{
anchors = (
{
name = bottom;
position = "{424, 0}";
},
{
name = ogonek;
position = "{597, 23}";
},
{
name = top;
position = "{424, 732}";
}
);
layerId = "BE4E587A-F76C-447B-AA28-A45E40876AAF";
paths = (
{
closed = 1;
nodes = (
"479 565 LINE",
"548 565 LINE",
"548 330 LINE SMOOTH",
"548 257 OFFCURVE",
"508 210 OFFCURVE",
"437 210 CURVE SMOOTH",
"366 210 OFFCURVE",
"325 257 OFFCURVE",
"325 330 CURVE SMOOTH",
"325 565 LINE",
"394 565 LINE",
"394 772 LINE",
"12 772 LINE",
"12 565 LINE",
"67 565 LINE",
"67 332 LINE SMOOTH",
"67 124 OFFCURVE",
"202 -11 OFFCURVE",
"418 -11 CURVE SMOOTH",
"637 -11 OFFCURVE",
"762 124 OFFCURVE",
"762 332 CURVE SMOOTH",
"762 625 LINE",
"777 625 LINE",
"777 772 LINE",
"479 772 LINE"
);
},
{
closed = 1;
nodes = (
"708 888 LINE",
"708 818 LINE SMOOTH",
"708 782 OFFCURVE",
"693 772 OFFCURVE",
"665 772 CURVE",
"601 561 LINE",
"665 561 LINE SMOOTH",
"827 561 OFFCURVE",
"916 663 OFFCURVE",
"916 818 CURVE SMOOTH",
"916 888 LINE"
);
}
);
width = 928;
},
{
anchors = (
{
name = bottom;
position = "{431, 0}";
},
{
name = ogonek;
position = "{567, 14}";
},
{
name = top;
position = "{431, 732}";
}
);
associatedMasterId = "2C5E45D0-97E8-45AA-A5B2-946753DF54E1";
layerId = "5DA52768-140A-494D-9C52-F280FDEA028C";
name = "Mar 9 18, 10:25";
paths = (
{
closed = 1;
nodes = (
"519 659 LINE",
"629 659 LINE",
"629 282 LINE SMOOTH",
"629 164 OFFCURVE",
"557 89 OFFCURVE",
"431 89 CURVE SMOOTH",
"305 89 OFFCURVE",
"233 164 OFFCURVE",
"233 282 CURVE SMOOTH",
"233 659 LINE",
"343 659 LINE",
"343 752 LINE",
"21 752 LINE",
"21 659 LINE",
"131 659 LINE",
"131 282 LINE SMOOTH",
"131 105 OFFCURVE",
"244 -11 OFFCURVE",
"431 -11 CURVE SMOOTH",
"618 -11 OFFCURVE",
"731 105 OFFCURVE",
"731 282 CURVE SMOOTH",
"731 648 LINE",
"731 692 OFFCURVE",
"711 723 OFFCURVE",
"687 752 CURVE",
"519 752 LINE"
);
},
{
closed = 1;
nodes = (
"774 837 LINE",
"774 793 LINE SMOOTH",
"774 765 OFFCURVE",
"762 752 OFFCURVE",
"735 752 CURVE SMOOTH",
"633 752 LINE",
"630 699 LINE",
"705 739 LINE",
"733 700 OFFCURVE",
"755 685 OFFCURVE",
"787 685 CURVE SMOOTH",
"837 685 OFFCURVE",
"866 723 OFFCURVE",
"866 794 CURVE SMOOTH",
"866 837 LINE"
);
}
);
width = 887;
},
{
anchors = (
{
name = bottom;
position = "{407, 0}";
},
{
name = ogonek;
position = "{543, 14}";
},
{
name = top;
position = "{407, 732}";
}
);
layerId = "2C5E45D0-97E8-45AA-A5B2-946753DF54E1";
rightMetricsKey = "=U-6";
paths = (
{
closed = 1;
nodes = (
"501 659 LINE",
"611 659 LINE",
"611 282 LINE SMOOTH",
"611 163 OFFCURVE",
"536 87 OFFCURVE",
"408 87 CURVE SMOOTH",
"280 87 OFFCURVE",
"209 163 OFFCURVE",
"209 282 CURVE SMOOTH",
"209 659 LINE",
"319 659 LINE",
"319 752 LINE",
"1 752 LINE",
"1 659 LINE",
"107 659 LINE",
"107 282 LINE SMOOTH",
"107 105 OFFCURVE",
"220 -11 OFFCURVE",
"407 -11 CURVE SMOOTH",
"594 -11 OFFCURVE",
"707 105 OFFCURVE",
"707 282 CURVE SMOOTH",
"707 669 LINE",
"724 669 LINE",
"724 752 LINE",
"501 752 LINE"
);
},
{
closed = 1;
nodes = (
"753 880 LINE",
"753 793 LINE SMOOTH",
"753 761 OFFCURVE",
"738 752 OFFCURVE",
"712 752 CURVE",
"648 659 LINE",
"712 659 LINE SMOOTH",
"806 659 OFFCURVE",
"855 712 OFFCURVE",
"855 792 CURVE SMOOTH",
"855 880 LINE"
);
}
);
width = 850;
}
);
leftMetricsKey = U;
rightMetricsKey = U;
unicode = 01AF;
},
{
glyphname = V;
lastChange = "2018-03-27 15:01:03 +0000";
layers = (
{
layerId = "67AEAADB-8447-4819-9D92-8BB76BD22042";
paths = (
{
closed = 1;
nodes = (
"862 747 LINE",
"862 752 LINE",
"541 752 LINE",
"541 747 LINE",
"767 747 LINE",
"444 0 LINE",
"451 6 LINE",
"442 6 LINE",
"448 0 LINE",
"125 747 LINE",
"351 747 LINE",
"351 752 LINE",
"30 752 LINE",
"30 747 LINE",
"119 747 LINE",
"442 0 LINE",
"450 0 LINE",
"773 747 LINE"
);
}
);
width = 892;
},
{
layerId = "BE4E587A-F76C-447B-AA28-A45E40876AAF";
paths = (
{
closed = 1;
nodes = (
"826 565 LINE",
"826 772 LINE",
"483 772 LINE",
"483 565 LINE",
"559 565 LINE",
"410 82 LINE",
"500 211 LINE",
"402 211 LINE",
"492 82 LINE",
"343 565 LINE",
"419 565 LINE",
"419 772 LINE",
"10 772 LINE",
"10 565 LINE",
"57 565 LINE",
"262 0 LINE",
"574 0 LINE",
"779 565 LINE"
);
}
);
width = 836;
},
{
layerId = "2C5E45D0-97E8-45AA-A5B2-946753DF54E1";
paths = (
{
closed = 1;
nodes = (
"784 659 LINE",
"784 752 LINE",
"457 752 LINE",
"457 659 LINE",
"616 659 LINE",
"389 82 LINE",
"445 118 LINE",
"347 118 LINE",
"414 82 LINE",
"187 659 LINE",
"346 659 LINE",
"346 752 LINE",
"9 752 LINE",
"9 659 LINE",
"76 659 LINE",
"337 0 LINE",
"456 0 LINE",
"717 659 LINE"
);
}
);
width = 793;
},
{
associatedMasterId = "2C5E45D0-97E8-45AA-A5B2-946753DF54E1";
layerId = "AFE836BF-BED8-4873-A40F-41FB53FF2B31";
name = "Feb 23 18, 16:00";
paths = (
{
closed = 1;
nodes = (
"855 659 LINE",
"855 752 LINE",
"496 752 LINE",
"496 659 LINE",
"659 659 LINE",
"428 82 LINE",
"484 118 LINE",
"386 118 LINE",
"453 82 LINE",
"222 659 LINE",
"385 659 LINE",
"385 752 LINE",
"14 752 LINE",
"14 659 LINE",
"111 659 LINE",
"376 0 LINE",
"493 0 LINE",
"758 659 LINE"
);
}
);
width = 869;
}
);
leftKerningGroup = V;
leftMetricsKey = A;
rightKerningGroup = V;
rightMetricsKey = A;
unicode = 0056;
},
{
glyphname = W;
lastChange = "2018-03-27 01:15:05 +0000";
layers = (
{
anchors = (
{
name = top;
position = "{665, 732}";
}
);
layerId = "67AEAADB-8447-4819-9D92-8BB76BD22042";
paths = (
{
closed = 1;
nodes = (
"986 747 LINE",
"1190 747 LINE",
"934 0 LINE",
"940 8 LINE",
"932 8 LINE",
"938 0 LINE",
"669 747 LINE",
"837 747 LINE",
"837 752 LINE",
"493 752 LINE",
"493 747 LINE",
"661 747 LINE",
"390 0 LINE",
"397 8 LINE",
"388 8 LINE",
"394 0 LINE",
"139 747 LINE",
"343 747 LINE",
"343 752 LINE",
"30 752 LINE",
"30 747 LINE",
"133 747 LINE",
"388 0 LINE",
"396 0 LINE",
"667 747 LINE",
"661 739 LINE",
"669 739 LINE",
"663 747 LINE",
"932 0 LINE",
"940 0 LINE",
"1196 747 LINE",
"1299 747 LINE",
"1299 752 LINE",
"986 752 LINE"
);
}
);
width = 1329;
},
{
anchors = (
{
name = top;
position = "{656, 732}";
}
);
layerId = "BE4E587A-F76C-447B-AA28-A45E40876AAF";
paths = (
{
closed = 1;
nodes = (
"932 565 LINE",
"1000 565 LINE",
"866 0 LINE",
"1015 257 LINE",
"847 257 LINE",
"1006 0 LINE",
"819 565 LINE",
"888 565 LINE",
"888 772 LINE",
"457 772 LINE",
"457 565 LINE",
"524 565 LINE",
"339 0 LINE",
"488 257 LINE",
"330 257 LINE",
"479 0 LINE",
"345 565 LINE",
"413 565 LINE",
"413 772 LINE",
"10 772 LINE",
"10 565 LINE",
"67 565 LINE",
"220 0 LINE",
"547 0 LINE",
"720 565 LINE",
"609 310 LINE",
"703 310 LINE",
"573 565 LINE",
"733 0 LINE",
"1058 0 LINE",
"1211 565 LINE",
"1268 565 LINE",
"1268 772 LINE",
"932 772 LINE"
);
}
);
width = 1278;
},
{
anchors = (
{
name = top;
position = "{599, 732}";
}
);
layerId = "2C5E45D0-97E8-45AA-A5B2-946753DF54E1";
paths = (
{
closed = 1;
nodes = (
"886 659 LINE",
"1025 659 LINE",
"805 0 LINE",
"890 122 LINE",
"792 122 LINE",
"884 0 LINE",
"663 659 LINE",
"771 659 LINE",
"771 752 LINE",
"431 752 LINE",
"431 659 LINE",
"545 659 LINE",
"321 0 LINE",
"406 122 LINE",
"308 122 LINE",
"399 0 LINE",
"183 659 LINE",
"313 659 LINE",
"313 752 LINE",
"9 752 LINE",
"9 659 LINE",
"71 659 LINE",
"295 0 LINE",
"420 0 LINE",
"640 659 LINE",
"552 531 LINE",
"646 531 LINE",
"559 659 LINE",
"776 0 LINE",
"903 0 LINE",
"1124 659 LINE",
"1186 659 LINE",
"1186 752 LINE",
"886 752 LINE"
);
}
);
width = 1195;
}
);
leftKerningGroup = V;
leftMetricsKey = V;
rightKerningGroup = V;
rightMetricsKey = V;
unicode = 0057;
},
{
glyphname = W.ss01;
lastChange = "2018-03-27 14:50:39 +0000";
layers = (
{
anchors = (
{
name = top;
position = "{625, 732}";
}
);
layerId = "67AEAADB-8447-4819-9D92-8BB76BD22042";
paths = (
{
closed = 1;
nodes = (
"916 747 LINE",
"1110 747 LINE",
"883 0 LINE",
"889 8 LINE",
"881 8 LINE",
"887 0 LINE",
"629 752 LINE",
"621 752 LINE",
"361 0 LINE",
"368 8 LINE",
"359 8 LINE",
"365 0 LINE",
"139 747 LINE",
"333 747 LINE",
"333 752 LINE",
"30 752 LINE",
"30 747 LINE",
"133 747 LINE",
"359 0 LINE",
"367 0 LINE",
"627 752 LINE",
"621 744 LINE",
"629 744 LINE",
"623 752 LINE",
"881 0 LINE",
"889 0 LINE",
"1116 747 LINE",
"1219 747 LINE",
"1219 752 LINE",
"916 752 LINE"
);
}
);
width = 1249;
},
{
anchors = (
{
name = top;
position = "{626, 732}";
}
);
layerId = "BE4E587A-F76C-447B-AA28-A45E40876AAF";
paths = (
{
closed = 1;
nodes = (
"894 565 LINE",
"958 565 LINE",
"838 0 LINE",
"987 257 LINE",
"819 257 LINE",
"969 0 LINE",
"792 772 LINE",
"509 772 LINE",
"334 0 LINE",
"474 257 LINE",
"316 257 LINE",
"465 0 LINE",
"345 565 LINE",
"409 565 LINE",
"409 772 LINE",
"10 772 LINE",
"10 565 LINE",
"67 565 LINE",
"206 0 LINE",
"542 0 LINE",
"705 772 LINE",
"585 517 LINE",
"679 517 LINE",
"540 772 LINE",
"690 0 LINE",
"1030 0 LINE",
"1169 565 LINE",
"1226 565 LINE",
"1226 772 LINE",
"894 772 LINE"
);
}
);
width = 1236;
},
{
anchors = (
{
name = top;
position = "{589, 732}";
}
);
layerId = "2C5E45D0-97E8-45AA-A5B2-946753DF54E1";
paths = (
{
closed = 1;
nodes = (
"856 659 LINE",
"995 659 LINE",
"800 0 LINE",
"885 122 LINE",
"787 122 LINE",
"879 0 LINE",
"649 752 LINE",
"529 752 LINE",
"296 0 LINE",
"381 122 LINE",
"283 122 LINE",
"374 0 LINE",
"183 659 LINE",
"313 659 LINE",
"313 752 LINE",
"9 752 LINE",
"9 659 LINE",
"71 659 LINE",
"270 0 LINE",
"395 0 LINE",
"624 752 LINE",
"536 624 LINE",
"630 624 LINE",
"543 752 LINE",
"769 0 LINE",
"898 0 LINE",
"1094 659 LINE",
"1156 659 LINE",
"1156 752 LINE",
"856 752 LINE"
);
}
);
width = 1165;
}
);
leftKerningGroup = V;
leftMetricsKey = V;
rightKerningGroup = V;
rightMetricsKey = V;
},
{
glyphname = X;
lastChange = "2018-03-27 03:01:21 +0000";
layers = (
{
layerId = "67AEAADB-8447-4819-9D92-8BB76BD22042";
paths = (
{
closed = 1;
nodes = (
"852 747 LINE",
"852 752 LINE",
"546 752 LINE",
"546 747 LINE",
"730 747 LINE",
"440 378 LINE",
"445 381 LINE",
"439 381 LINE",
"444 378 LINE",
"158 747 LINE",
"338 747 LINE",
"338 752 LINE",
"32 752 LINE",
"32 747 LINE",
"152 747 LINE",
"440 375 LINE",
"439 379 LINE",
"439 372 LINE",
"440 377 LINE",
"148 5 LINE",
"32 5 LINE",
"32 0 LINE",
"338 0 LINE",
"338 5 LINE",
"154 5 LINE",
"444 374 LINE",
"439 371 LINE",
"445 371 LINE",
"440 374 LINE",
"726 5 LINE",
"546 5 LINE",
"546 0 LINE",
"852 0 LINE",
"852 5 LINE",
"732 5 LINE",
"444 377 LINE",
"445 372 LINE",
"445 379 LINE",
"444 375 LINE",
"736 747 LINE"
);
}
);
width = 884;
},
{
layerId = "BE4E587A-F76C-447B-AA28-A45E40876AAF";
paths = (
{
closed = 1;
nodes = (
"838 565 LINE",
"838 772 LINE",
"462 772 LINE",
"462 565 LINE",
"524 565 LINE",
"405 421 LINE",
"498 480 LINE",
"402 480 LINE",
"495 421 LINE",
"379 565 LINE",
"434 565 LINE",
"434 772 LINE",
"18 772 LINE",
"18 565 LINE",
"48 565 LINE",
"288 297 LINE",
"222 436 LINE",
"222 340 LINE",
"327 469 LINE",
"62 207 LINE",
"18 207 LINE",
"18 0 LINE",
"394 0 LINE",
"394 207 LINE",
"332 207 LINE",
"451 351 LINE",
"358 292 LINE",
"454 292 LINE",
"361 351 LINE",
"477 207 LINE",
"422 207 LINE",
"422 0 LINE",
"838 0 LINE",
"838 207 LINE",
"808 207 LINE",
"568 475 LINE",
"634 336 LINE",
"634 432 LINE",
"529 303 LINE",
"794 565 LINE"
);
}
);
width = 856;
},
{
layerId = "2C5E45D0-97E8-45AA-A5B2-946753DF54E1";
leftMetricsKey = "=V+8";
rightMetricsKey = "=V+8";
paths = (
{
closed = 1;
nodes = (
"789 659 LINE",
"789 752 LINE",
"457 752 LINE",
"457 659 LINE",
"586 659 LINE",
"386 411 LINE",
"453 445 LINE",
"357 445 LINE",
"439 411 LINE",
"238 659 LINE",
"349 659 LINE",
"349 752 LINE",
"17 752 LINE",
"17 659 LINE",
"101 659 LINE",
"367 347 LINE",
"342 426 LINE",
"342 330 LINE",
"373 409 LINE",
"97 93 LINE",
"17 93 LINE",
"17 0 LINE",
"349 0 LINE",
"349 93 LINE",
"220 93 LINE",
"420 341 LINE",
"353 307 LINE",
"449 307 LINE",
"367 341 LINE",
"568 93 LINE",
"457 93 LINE",
"457 0 LINE",
"789 0 LINE",
"789 93 LINE",
"705 93 LINE",
"439 405 LINE",
"464 326 LINE",
"464 422 LINE",
"433 343 LINE",
"709 659 LINE"
);
}
);
width = 806;
}
);
leftMetricsKey = H;
rightMetricsKey = H;
unicode = 0058;
},
{
glyphname = Y;
lastChange = "2018-03-20 20:36:03 +0000";
layers = (
{
anchors = (
{
name = top;
position = "{459, 732}";
}
);
layerId = "67AEAADB-8447-4819-9D92-8BB76BD22042";
paths = (
{
closed = 1;
nodes = (
"888 747 LINE",
"888 752 LINE",
"583 752 LINE",
"583 747 LINE",
"776 747 LINE",
"457 355 LINE",
"464 359 LINE",
"455 359 LINE",
"462 355 LINE",
"142 747 LINE",
"335 747 LINE",
"335 752 LINE",
"30 752 LINE",
"30 747 LINE",
"136 747 LINE",
"458 352 LINE",
"461 352 LINE",
"782 747 LINE"
);
},
{
closed = 1;
nodes = (
"457 357 LINE",
"457 5 LINE",
"308 5 LINE",
"308 0 LINE",
"610 0 LINE",
"610 5 LINE",
"462 5 LINE",
"462 357 LINE"
);
}
);
width = 918;
},
{
anchors = (
{
name = top;
position = "{425, 752}";
}
);
layerId = "BE4E587A-F76C-447B-AA28-A45E40876AAF";
paths = (
{
closed = 1;
nodes = (
"820 565 LINE",
"820 772 LINE",
"469 772 LINE",
"469 565 LINE",
"535 565 LINE",
"387 376 LINE",
"494 411 LINE",
"396 411 LINE",
"503 376 LINE",
"355 565 LINE",
"421 565 LINE",
"421 772 LINE",
"10 772 LINE",
"10 565 LINE",
"54 565 LINE",
"291 284 LINE",
"539 284 LINE",
"776 565 LINE"
);
},
{
closed = 1;
nodes = (
"286 389 LINE",
"286 207 LINE",
"231 207 LINE",
"231 0 LINE",
"599 0 LINE",
"599 207 LINE",
"544 207 LINE",
"544 389 LINE"
);
}
);
width = 830;
},
{
anchors = (
{
name = top;
position = "{364, 732}";
}
);
layerId = "2C5E45D0-97E8-45AA-A5B2-946753DF54E1";
paths = (
{
closed = 1;
nodes = (
"719 659 LINE",
"719 752 LINE",
"418 752 LINE",
"418 659 LINE",
"549 659 LINE",
"346 380 LINE",
"413 417 LINE",
"315 417 LINE",
"396 380 LINE",
"193 659 LINE",
"310 659 LINE",
"310 752 LINE",
"9 752 LINE",
"9 659 LINE",
"64 659 LINE",
"315 322 LINE",
"413 322 LINE",
"664 659 LINE"
);
},
{
closed = 1;
nodes = (
"313 397 LINE",
"313 93 LINE",
"203 93 LINE",
"203 0 LINE",
"525 0 LINE",
"525 93 LINE",
"415 93 LINE",
"415 397 LINE"
);
}
);
width = 728;
}
);
leftKerningGroup = V;
leftMetricsKey = A;
rightKerningGroup = V;
rightMetricsKey = A;
unicode = 0059;
},
{
glyphname = Z;
lastChange = "2018-03-27 03:01:21 +0000";
layers = (
{
anchors = (
{
name = top;
position = "{307, 732}";
}
);
layerId = "67AEAADB-8447-4819-9D92-8BB76BD22042";
leftMetricsKey = "=H-16";
paths = (
{
closed = 1;
nodes = (
"23 3 LINE",
"23 6 LINE",
"598 747 LINE",
"591 750 LINE",
"591 746 LINE",
"16 5 LINE"
);
},
{
closed = 1;
nodes = (
"35 752 LINE",
"35 565 LINE",
"40 565 LINE",
"40 747 LINE",
"598 747 LINE",
"598 752 LINE"
);
},
{
closed = 1;
nodes = (
"582 5 LINE",
"16 5 LINE",
"16 0 LINE",
"587 0 LINE",
"587 187 LINE",
"582 187 LINE"
);
}
);
width = 614;
},
{
anchors = (
{
name = top;
position = "{383, 772}";
}
);
layerId = "BE4E587A-F76C-447B-AA28-A45E40876AAF";
paths = (
{
closed = 1;
nodes = (
"371 138 LINE",
"371 170 LINE",
"745 606 LINE",
"384 631 LINE",
"384 602 LINE",
"10 166 LINE"
);
},
{
closed = 1;
nodes = (
"21 772 LINE",
"21 495 LINE",
"272 495 LINE",
"272 606 LINE",
"745 606 LINE",
"745 772 LINE"
);
},
{
closed = 1;
nodes = (
"497 166 LINE",
"10 166 LINE",
"10 0 LINE",
"748 0 LINE",
"748 283 LINE",
"497 283 LINE"
);
}
);
width = 758;
},
{
anchors = (
{
name = top;
position = "{318, 732}";
}
);
layerId = "2C5E45D0-97E8-45AA-A5B2-946753DF54E1";
leftMetricsKey = "=H-6";
rightMetricsKey = "=H-6";
paths = (
{
closed = 1;
nodes = (
"154 65 LINE",
"154 97 LINE",
"604 659 LINE",
"469 684 LINE",
"469 655 LINE",
"19 93 LINE"
);
},
{
closed = 1;
nodes = (
"31 752 LINE",
"31 525 LINE",
"133 525 LINE",
"133 659 LINE",
"604 659 LINE",
"604 752 LINE"
);
},
{
closed = 1;
nodes = (
"515 93 LINE",
"19 93 LINE",
"19 0 LINE",
"617 0 LINE",
"617 227 LINE",
"515 227 LINE"
);
}
);
width = 636;
},
{
anchors = (
{
name = top;
position = "{383, 772}";
}
);
associatedMasterId = "BE4E587A-F76C-447B-AA28-A45E40876AAF";
layerId = "244911D9-34DE-4C53-A589-48F07330FCC3";
name = "Mar 20 18, 15:16";
paths = (
{
closed = 1;
nodes = (
"371 154 LINE",
"371 186 LINE",
"745 590 LINE",
"384 615 LINE",
"384 586 LINE",
"10 182 LINE"
);
},
{
closed = 1;
nodes = (
"21 772 LINE",
"21 500 LINE",
"268 500 LINE",
"268 590 LINE",
"745 590 LINE",
"745 772 LINE"
);
},
{
closed = 1;
nodes = (
"501 182 LINE",
"10 182 LINE",
"10 0 LINE",
"748 0 LINE",
"748 272 LINE",
"501 272 LINE"
);
}
);
width = 758;
}
);
leftMetricsKey = "=H-8";
rightMetricsKey = "=|";
unicode = 005A;
},
{
color = 5;
glyphname = a;
lastChange = "2018-03-27 19:15:12 +0000";
layers = (
{
anchors = (
{
name = bottom;
position = "{293, 0}";
},
{
name = ogonek;
position = "{577, 0}";
},
{
name = top;
position = "{293, 524}";
}
);
layerId = "67AEAADB-8447-4819-9D92-8BB76BD22042";
leftMetricsKey = "=o+8";
paths = (
{
closed = 1;
nodes = (
"577 0 LINE",
"577 5 LINE",
"490 5 LINE",
"490 365 LINE SMOOTH",
"490 490 OFFCURVE",
"411 531 OFFCURVE",
"293 531 CURVE SMOOTH",
"177 531 OFFCURVE",
"120 486 OFFCURVE",
"90 393 CURVE",
"95 391 LINE",
"124 483 OFFCURVE",
"180 526 OFFCURVE",
"293 526 CURVE SMOOTH",
"408 526 OFFCURVE",
"485 487 OFFCURVE",
"485 365 CURVE SMOOTH",
"485 301 LINE",
"485 279 LINE",
"485 247 LINE",
"485 240 LINE",
"485 4 LINE SMOOTH",
"485 1 OFFCURVE",
"486 0 OFFCURVE",
"489 0 CURVE SMOOTH"
);
},
{
closed = 1;
nodes = (
"373 -7 OFFCURVE",
"467 75 OFFCURVE",
"484 235 CURVE",
"488 235 LINE",
"485 304 LINE",
"485 75 OFFCURVE",
"366 -2 OFFCURVE",
"224 -2 CURVE SMOOTH",
"123 -2 OFFCURVE",
"70 38 OFFCURVE",
"70 118 CURVE SMOOTH",
"70 207 OFFCURVE",
"122 242 OFFCURVE",
"221 264 CURVE SMOOTH",
"487 324 LINE",
"487 329 LINE",
"221 269 LINE SMOOTH",
"119 246 OFFCURVE",
"65 210 OFFCURVE",
"65 118 CURVE SMOOTH",
"65 35 OFFCURVE",
"120 -7 OFFCURVE",
"224 -7 CURVE SMOOTH"
);
}
);
width = 598;
},
{
anchors = (
{
name = bottom;
position = "{360, 0}";
},
{
name = ogonek;
position = "{697, 0}";
},
{
name = top;
position = "{360, 580}";
}
);
layerId = "BE4E587A-F76C-447B-AA28-A45E40876AAF";
leftMetricsKey = "=o-1";
rightMetricsKey = "=n";
paths = (
{
closed = 1;
nodes = (
"697 0 LINE",
"697 204 LINE",
"647 204 LINE",
"647 384 LINE SMOOTH",
"647 543 OFFCURVE",
"532 596 OFFCURVE",
"360 596 CURVE SMOOTH",
"140 596 OFFCURVE",
"53 505 OFFCURVE",
"36 376 CURVE",
"263 349 LINE",
"272 384 OFFCURVE",
"301 394 OFFCURVE",
"331 394 CURVE SMOOTH",
"363 394 OFFCURVE",
"393 382 OFFCURVE",
"393 341 CURVE SMOOTH",
"393 289 LINE",
"399 263 LINE",
"407 207 LINE",
"393 187 LINE",
"393 92 LINE SMOOTH",
"393 33 OFFCURVE",
"426 0 OFFCURVE",
"484 0 CURVE SMOOTH"
);
},
{
closed = 1;
nodes = (
"300 -15 OFFCURVE",
"373 35 OFFCURVE",
"388 146 CURVE",
"422 146 LINE",
"399 263 LINE",
"399 188 OFFCURVE",
"359 164 OFFCURVE",
"324 164 CURVE SMOOTH",
"297 164 OFFCURVE",
"279 177 OFFCURVE",
"279 201 CURVE SMOOTH",
"279 224 OFFCURVE",
"295 241 OFFCURVE",
"335 246 CURVE SMOOTH",
"420 259 LINE",
"420 343 LINE",
"238 316 LINE SMOOTH",
"92 295 OFFCURVE",
"13 249 OFFCURVE",
"13 141 CURVE SMOOTH",
"13 47 OFFCURVE",
"72 -15 OFFCURVE",
"193 -15 CURVE SMOOTH"
);
}
);
width = 703;
},
{
associatedMasterId = "67AEAADB-8447-4819-9D92-8BB76BD22042";
layerId = "0D7E86CE-FED3-435B-B54D-A186B31830C4";
name = Serif;
paths = (
{
closed = 1;
nodes = (
"511 -7 LINE",
"511 113 LINE",
"459 113 LINE",
"459 305 LINE SMOOTH",
"459 424 OFFCURVE",
"396 464 OFFCURVE",
"311 464 CURVE SMOOTH",
"226 464 OFFCURVE",
"187 424 OFFCURVE",
"178 376 CURVE",
"159 376 LINE",
"174 283 LINE",
"183 335 OFFCURVE",
"211 350 OFFCURVE",
"245 350 CURVE SMOOTH",
"282 350 OFFCURVE",
"319 337 OFFCURVE",
"319 296 CURVE SMOOTH",
"319 239 LINE",
"324 214 LINE",
"331 172 LINE",
"319 155 LINE",
"319 48 LINE SMOOTH",
"319 13 OFFCURVE",
"339 -7 OFFCURVE",
"374 -7 CURVE SMOOTH"
);
},
{
closed = 1;
nodes = (
"244 -13 OFFCURVE",
"301 28 OFFCURVE",
"315 118 CURVE",
"343 118 LINE",
"324 214 LINE",
"324 132 OFFCURVE",
"279 104 OFFCURVE",
"240 104 CURVE SMOOTH",
"212 104 OFFCURVE",
"190 119 OFFCURVE",
"190 145 CURVE SMOOTH",
"190 171 OFFCURVE",
"212 188 OFFCURVE",
"235 193 CURVE SMOOTH",
"341 218 LINE",
"341 283 LINE",
"168 248 LINE SMOOTH",
"93 233 OFFCURVE",
"35 197 OFFCURVE",
"35 108 CURVE SMOOTH",
"35 33 OFFCURVE",
"77 -13 OFFCURVE",
"163 -13 CURVE SMOOTH"
);
},
{
closed = 1;
nodes = (
"174 283 LINE",
"174 453 LINE",
"54 453 LINE",
"54 283 LINE"
);
}
);
width = 534;
},
{
anchors = (
{
name = bottom;
position = "{295, 0}";
},
{
name = ogonek;
position = "{587, 0}";
},
{
name = top;
position = "{295, 536}";
}
);
layerId = "2C5E45D0-97E8-45AA-A5B2-946753DF54E1";
leftMetricsKey = "=o+6";
rightMetricsKey = "=n+15";
paths = (
{
closed = 1;
nodes = (
"589 0 LINE",
"589 84 LINE",
"514 84 LINE",
"514 362 LINE SMOOTH",
"514 486 OFFCURVE",
"443 547 OFFCURVE",
"298 547 CURVE SMOOTH",
"162 547 OFFCURVE",
"86 493 OFFCURVE",
"68 383 CURVE",
"162 364 LINE",
"174 426 OFFCURVE",
"218 457 OFFCURVE",
"294 457 CURVE SMOOTH",
"374 457 OFFCURVE",
"416 422 OFFCURVE",
"416 356 CURVE SMOOTH",
"416 317 LINE",
"420 280 LINE",
"425 218 LINE",
"416 198 LINE",
"416 67 LINE SMOOTH",
"416 24 OFFCURVE",
"436 0 OFFCURVE",
"473 0 CURVE SMOOTH"
);
},
{
closed = 1;
nodes = (
"334 -7 OFFCURVE",
"397 50 OFFCURVE",
"412 162 CURVE",
"446 162 LINE",
"420 280 LINE",
"420 159 OFFCURVE",
"348 77 OFFCURVE",
"243 77 CURVE SMOOTH",
"186 77 OFFCURVE",
"156 102 OFFCURVE",
"156 150 CURVE SMOOTH",
"156 193 OFFCURVE",
"180 218 OFFCURVE",
"232 230 CURVE SMOOTH",
"445 278 LINE",
"445 347 LINE",
"216 300 LINE SMOOTH",
"100 276 OFFCURVE",
"54 232 OFFCURVE",
"54 144 CURVE SMOOTH",
"54 45 OFFCURVE",
"114 -7 OFFCURVE",
"227 -7 CURVE SMOOTH"
);
}
);
width = 618;
},
{
anchors = (
{
name = top;
position = "{295, 536}";
}
);
associatedMasterId = "2C5E45D0-97E8-45AA-A5B2-946753DF54E1";
layerId = "3B3BEB8A-E073-43AE-BA7D-711103F3C888";
leftMetricsKey = "=o+12";
rightMetricsKey = "=n+16";
name = Serif;
paths = (
{
closed = 1;
nodes = (
"587 0 LINE",
"587 84 LINE",
"514 84 LINE",
"514 365 LINE SMOOTH",
"514 502 OFFCURVE",
"428 547 OFFCURVE",
"322 547 CURVE SMOOTH",
"209 547 OFFCURVE",
"173 496 OFFCURVE",
"165 419 CURVE",
"115 419 LINE",
"161 348 LINE",
"176 432 OFFCURVE",
"228 457 OFFCURVE",
"295 457 CURVE SMOOTH",
"358 457 OFFCURVE",
"416 433 OFFCURVE",
"416 356 CURVE SMOOTH",
"416 317 LINE",
"420 280 LINE",
"425 218 LINE",
"416 198 LINE",
"416 67 LINE SMOOTH",
"416 22 OFFCURVE",
"438 0 OFFCURVE",
"473 0 CURVE SMOOTH"
);
},
{
closed = 1;
nodes = (
"331 -7 OFFCURVE",
"396 46 OFFCURVE",
"412 162 CURVE",
"446 162 LINE",
"420 280 LINE",
"420 128 OFFCURVE",
"321 77 OFFCURVE",
"243 77 CURVE SMOOTH",
"192 77 OFFCURVE",
"156 97 OFFCURVE",
"156 151 CURVE SMOOTH",
"156 197 OFFCURVE",
"185 219 OFFCURVE",
"232 230 CURVE SMOOTH",
"445 278 LINE",
"445 347 LINE",
"216 300 LINE SMOOTH",
"111 278 OFFCURVE",
"54 240 OFFCURVE",
"54 146 CURVE SMOOTH",
"54 45 OFFCURVE",
"114 -7 OFFCURVE",
"227 -7 CURVE SMOOTH"
);
},
{
closed = 1;
nodes = (
"161 348 LINE",
"161 536 LINE",
"63 536 LINE",
"63 348 LINE"
);
}
);
width = 618;
},
{
anchors = (
{
name = bottom;
position = "{296, 0}";
},
{
name = ogonek;
position = "{580, 0}";
},
{
name = top;
position = "{296, 524}";
}
);
associatedMasterId = "67AEAADB-8447-4819-9D92-8BB76BD22042";
layerId = "1D059439-29F9-4FCE-B57B-5DA818D869EC";
leftMetricsKey = "=o+8";
name = "Feb 26 18, 18:02";
paths = (
{
closed = 1;
nodes = (
"580 0 LINE",
"580 5 LINE",
"493 5 LINE",
"493 365 LINE SMOOTH",
"493 490 OFFCURVE",
"414 531 OFFCURVE",
"296 531 CURVE SMOOTH",
"180 531 OFFCURVE",
"123 487 OFFCURVE",
"93 393 CURVE",
"98 391 LINE",
"127 483 OFFCURVE",
"183 526 OFFCURVE",
"296 526 CURVE SMOOTH",
"411 526 OFFCURVE",
"488 487 OFFCURVE",
"488 365 CURVE SMOOTH",
"488 301 LINE",
"488 279 LINE",
"488 216 LINE",
"488 198 LINE",
"488 4 LINE SMOOTH",
"488 1 OFFCURVE",
"489 0 OFFCURVE",
"492 0 CURVE SMOOTH"
);
},
{
closed = 1;
nodes = (
"376 -7 OFFCURVE",
"470 75 OFFCURVE",
"487 235 CURVE",
"491 235 LINE",
"488 304 LINE",
"488 75 OFFCURVE",
"369 -2 OFFCURVE",
"227 -2 CURVE SMOOTH",
"126 -2 OFFCURVE",
"73 39 OFFCURVE",
"73 118 CURVE SMOOTH",
"73 204 OFFCURVE",
"125 242 OFFCURVE",
"224 264 CURVE SMOOTH",
"490 324 LINE",
"490 329 LINE",
"224 269 LINE SMOOTH",
"122 246 OFFCURVE",
"68 210 OFFCURVE",
"68 118 CURVE SMOOTH",
"68 35 OFFCURVE",
"123 -7 OFFCURVE",
"227 -7 CURVE SMOOTH"
);
}
);
width = 615;
},
{
anchors = (
{
name = bottom;
position = "{293, 0}";
},
{
name = ogonek;
position = "{577, 0}";
},
{
name = top;
position = "{293, 524}";
}
);
associatedMasterId = "67AEAADB-8447-4819-9D92-8BB76BD22042";
layerId = "15FF914C-581F-42CF-8E2C-C59F8A82ECE1";
leftMetricsKey = "=o+8";
name = "Light [6]";
paths = (
{
closed = 1;
nodes = (
"577 0 LINE",
"577 5 LINE",
"490 5 LINE",
"490 365 LINE SMOOTH",
"490 490 OFFCURVE",
"411 531 OFFCURVE",
"293 531 CURVE SMOOTH",
"177 531 OFFCURVE",
"120 486 OFFCURVE",
"90 393 CURVE",
"95 391 LINE",
"124 483 OFFCURVE",
"180 526 OFFCURVE",
"293 526 CURVE SMOOTH",
"408 526 OFFCURVE",
"485 487 OFFCURVE",
"485 365 CURVE SMOOTH",
"485 301 LINE",
"485 279 LINE",
"485 247 LINE",
"485 240 LINE",
"485 4 LINE SMOOTH",
"485 1 OFFCURVE",
"486 0 OFFCURVE",
"489 0 CURVE SMOOTH"
);
},
{
closed = 1;
nodes = (
"371 -7 OFFCURVE",
"462 80 OFFCURVE",
"484 198 CURVE",
"488 198 LINE",
"485 304 LINE",
"485 75 OFFCURVE",
"366 -2 OFFCURVE",
"224 -2 CURVE SMOOTH",
"123 -2 OFFCURVE",
"70 38 OFFCURVE",
"70 118 CURVE SMOOTH",
"70 207 OFFCURVE",
"122 242 OFFCURVE",
"221 264 CURVE SMOOTH",
"487 324 LINE",
"487 329 LINE",
"221 269 LINE SMOOTH",
"119 246 OFFCURVE",
"65 210 OFFCURVE",
"65 118 CURVE SMOOTH",
"65 35 OFFCURVE",
"120 -7 OFFCURVE",
"224 -7 CURVE SMOOTH"
);
}
);
width = 598;
}
);
leftKerningGroup = a;
leftMetricsKey = "=o+8";
rightKerningGroup = n;
rightMetricsKey = n;
unicode = 0061;
},
{
glyphname = a.ss02;
lastChange = "2018-03-27 16:11:21 +0000";
layers = (
{
anchors = (
{
name = bottom;
position = "{321, 0}";
},
{
name = ogonek;
position = "{668, 0}";
},
{
name = top;
position = "{321, 524}";
}
);
components = (
{
locked = 1;
name = "bowl-thick";
transform = "{-1, 0, 0, -1, 635, 524}";
}
);
layerId = "67AEAADB-8447-4819-9D92-8BB76BD22042";
leftMetricsKey = "=d";
rightMetricsKey = "=n+2";
paths = (
{
closed = 1;
nodes = (
"665 0 LINE",
"665 5 LINE",
"578 5 LINE",
"578 524 LINE",
"573 524 LINE",
"573 322 LINE",
"573 314 LINE",
"574 282 LINE",
"574 243 LINE",
"573 219 LINE",
"573 4 LINE SMOOTH",
"573 1 OFFCURVE",
"574 0 OFFCURVE",
"577 0 CURVE SMOOTH"
);
}
);
width = 688;
},
{
anchors = (
{
name = bottom;
position = "{357, 0}";
},
{
name = ogonek;
position = "{742, 0}";
},
{
name = top;
position = "{357, 580}";
}
);
components = (
{
name = "bowl-thick";
transform = "{-1, 0, 0, -1, 631, 580}";
}
);
layerId = "BE4E587A-F76C-447B-AA28-A45E40876AAF";
rightMetricsKey = "=n+2";
paths = (
{
closed = 1;
nodes = (
"742 0 LINE",
"742 204 LINE",
"692 204 LINE",
"692 590 LINE",
"682 590 LINE",
"438 404 LINE",
"456 371 LINE",
"441 331 LINE",
"441 244 LINE",
"438 227 LINE",
"438 92 LINE SMOOTH",
"438 33 OFFCURVE",
"471 0 OFFCURVE",
"529 0 CURVE SMOOTH"
);
}
);
width = 750;
},
{
associatedMasterId = "67AEAADB-8447-4819-9D92-8BB76BD22042";
layerId = "0D7E86CE-FED3-435B-B54D-A186B31830C4";
name = Serif;
paths = (
{
closed = 1;
nodes = (
"511 -7 LINE",
"511 113 LINE",
"459 113 LINE",
"459 305 LINE SMOOTH",
"459 424 OFFCURVE",
"396 464 OFFCURVE",
"311 464 CURVE SMOOTH",
"226 464 OFFCURVE",
"187 424 OFFCURVE",
"178 376 CURVE",
"159 376 LINE",
"174 283 LINE",
"183 335 OFFCURVE",
"211 350 OFFCURVE",
"245 350 CURVE SMOOTH",
"282 350 OFFCURVE",
"319 337 OFFCURVE",
"319 296 CURVE SMOOTH",
"319 239 LINE",
"324 214 LINE",
"331 172 LINE",
"319 155 LINE",
"319 48 LINE SMOOTH",
"319 13 OFFCURVE",
"339 -7 OFFCURVE",
"374 -7 CURVE SMOOTH"
);
},
{
closed = 1;
nodes = (
"244 -13 OFFCURVE",
"301 28 OFFCURVE",
"315 118 CURVE",
"343 118 LINE",
"324 214 LINE",
"324 132 OFFCURVE",
"279 104 OFFCURVE",
"240 104 CURVE SMOOTH",
"212 104 OFFCURVE",
"190 119 OFFCURVE",
"190 145 CURVE SMOOTH",
"190 171 OFFCURVE",
"212 188 OFFCURVE",
"235 193 CURVE SMOOTH",
"341 218 LINE",
"341 283 LINE",
"168 248 LINE SMOOTH",
"93 233 OFFCURVE",
"35 197 OFFCURVE",
"35 108 CURVE SMOOTH",
"35 33 OFFCURVE",
"77 -13 OFFCURVE",
"163 -13 CURVE SMOOTH"
);
},
{
closed = 1;
nodes = (
"174 283 LINE",
"174 453 LINE",
"54 453 LINE",
"54 283 LINE"
);
}
);
width = 534;
},
{
anchors = (
{
name = top;
position = "{289, 536}";
}
);
associatedMasterId = "2C5E45D0-97E8-45AA-A5B2-946753DF54E1";
layerId = "96025320-AAD0-4ED1-B37C-9B770305D1B9";
leftMetricsKey = "=d";
rightMetricsKey = "=|n";
name = "Jan 2 18, 22:23";
paths = (
{
closed = 1;
nodes = (
"404 -10 OFFCURVE",
"465 52 OFFCURVE",
"485 144 CURVE",
"508 144 LINE",
"492 270 LINE",
"492 156 OFFCURVE",
"428 78 OFFCURVE",
"320 78 CURVE SMOOTH",
"217 78 OFFCURVE",
"148 156 OFFCURVE",
"148 270 CURVE SMOOTH",
"148 382 OFFCURVE",
"212 459 OFFCURVE",
"320 459 CURVE SMOOTH",
"430 459 OFFCURVE",
"492 381 OFFCURVE",
"492 270 CURVE",
"540 355 LINE",
"509 473 OFFCURVE",
"426 546 OFFCURVE",
"309 546 CURVE SMOOTH",
"149 546 OFFCURVE",
"48 432 OFFCURVE",
"48 270 CURVE SMOOTH",
"48 106 OFFCURVE",
"152 -10 OFFCURVE",
"298 -10 CURVE SMOOTH"
);
},
{
closed = 1;
nodes = (
"660 452 LINE",
"660 536 LINE",
"489 536 LINE",
"489 399 LINE",
"492 270 LINE",
"493 237 LINE",
"489 200 LINE",
"489 67 LINE SMOOTH",
"489 22 OFFCURVE",
"511 0 OFFCURVE",
"546 0 CURVE SMOOTH",
"660 0 LINE",
"660 84 LINE",
"587 84 LINE",
"587 452 LINE"
);
}
);
width = 692;
},
{
anchors = (
{
name = bottom;
position = "{315, 0}";
},
{
name = ogonek;
position = "{662, 0}";
},
{
name = top;
position = "{315, 536}";
}
);
components = (
{
locked = 1;
name = "bowl-thick";
transform = "{-1, 0, 0, -1, 611, 536}";
}
);
layerId = "2C5E45D0-97E8-45AA-A5B2-946753DF54E1";
leftMetricsKey = "=d";
rightMetricsKey = "=n+2";
paths = (
{
closed = 1;
nodes = (
"660 0 LINE",
"660 84 LINE",
"587 84 LINE",
"587 551 LINE",
"583 551 LINE",
"489 452 LINE",
"489 399 LINE",
"492 300 LINE",
"492 237 LINE",
"489 200 LINE",
"489 67 LINE SMOOTH",
"489 22 OFFCURVE",
"511 0 OFFCURVE",
"546 0 CURVE SMOOTH"
);
}
);
width = 676;
}
);
leftKerningGroup = o;
leftMetricsKey = d;
rightKerningGroup = a;
rightMetricsKey = n;
},
{
color = 5;
glyphname = ae;
lastChange = "2018-03-27 18:04:55 +0000";
layers = (
{
anchors = (
{
name = top;
position = "{528, 524}";
}
);
layerId = "67AEAADB-8447-4819-9D92-8BB76BD22042";
paths = (
{
closed = 1;
nodes = (
"858 -8 OFFCURVE",
"941 49 OFFCURVE",
"982 141 CURVE",
"977 143 LINE",
"936 53 OFFCURVE",
"855 -3 OFFCURVE",
"753 -3 CURVE SMOOTH",
"611 -3 OFFCURVE",
"510 106 OFFCURVE",
"510 261 CURVE SMOOTH",
"510 419 OFFCURVE",
"609 527 OFFCURVE",
"752 527 CURVE SMOOTH",
"890 527 OFFCURVE",
"986 423 OFFCURVE",
"986 270 CURVE SMOOTH",
"986 268 OFFCURVE",
"986 265 OFFCURVE",
"986 263 CURVE",
"991 263 LINE",
"991 265 OFFCURVE",
"991 268 OFFCURVE",
"991 270 CURVE SMOOTH",
"991 424 OFFCURVE",
"895 532 OFFCURVE",
"752 532 CURVE SMOOTH",
"609 532 OFFCURVE",
"523 425 OFFCURVE",
"511 311 CURVE",
"508 311 LINE",
"505 261 LINE",
"505 103 OFFCURVE",
"606 -8 OFFCURVE",
"753 -8 CURVE SMOOTH"
);
},
{
closed = 1;
nodes = (
"384 -7 OFFCURVE",
"489 77 OFFCURVE",
"504 243 CURVE",
"508 243 LINE",
"505 304 LINE",
"505 75 OFFCURVE",
"377 -2 OFFCURVE",
"224 -2 CURVE SMOOTH",
"123 -2 OFFCURVE",
"70 39 OFFCURVE",
"70 118 CURVE SMOOTH",
"70 204 OFFCURVE",
"122 242 OFFCURVE",
"221 264 CURVE SMOOTH",
"507 324 LINE",
"507 329 LINE",
"221 269 LINE SMOOTH",
"119 246 OFFCURVE",
"65 210 OFFCURVE",
"65 118 CURVE SMOOTH",
"65 35 OFFCURVE",
"120 -7 OFFCURVE",
"224 -7 CURVE SMOOTH"
);
},
{
closed = 1;
nodes = (
"510 365 LINE SMOOTH",
"510 490 OFFCURVE",
"427 531 OFFCURVE",
"303 531 CURVE SMOOTH",
"181 531 OFFCURVE",
"121 487 OFFCURVE",
"90 393 CURVE",
"95 391 LINE",
"125 483 OFFCURVE",
"184 526 OFFCURVE",
"303 526 CURVE SMOOTH",
"424 526 OFFCURVE",
"505 487 OFFCURVE",
"505 365 CURVE SMOOTH",
"505 326 LINE",
"505 304 LINE",
"505 279 LINE",
"510 279 LINE"
);
},
{
closed = 1;
nodes = (
"989 263 LINE",
"989 268 LINE",
"508 268 LINE",
"508 263 LINE"
);
}
);
width = 1044;
},
{
anchors = (
{
name = top;
position = "{493, 536}";
}
);
layerId = "2C5E45D0-97E8-45AA-A5B2-946753DF54E1";
paths = (
{
closed = 1;
nodes = (
"797 -10 OFFCURVE",
"882 42 OFFCURVE",
"926 126 CURVE",
"835 161 LINE",
"806 110 OFFCURVE",
"754 78 OFFCURVE",
"691 78 CURVE SMOOTH",
"586 78 OFFCURVE",
"523 156 OFFCURVE",
"523 266 CURVE SMOOTH",
"523 380 OFFCURVE",
"588 458 OFFCURVE",
"685 458 CURVE SMOOTH",
"786 458 OFFCURVE",
"844 380 OFFCURVE",
"844 273 CURVE SMOOTH",
"844 256 OFFCURVE",
"843 245 OFFCURVE",
"842 235 CURVE",
"940 235 LINE",
"941 245 OFFCURVE",
"941 256 OFFCURVE",
"941 266 CURVE SMOOTH",
"941 431 OFFCURVE",
"832 546 OFFCURVE",
"699 546 CURVE SMOOTH",
"596 546 OFFCURVE",
"547 479 OFFCURVE",
"527 377 CURVE",
"512 377 LINE",
"427 220 LINE",
"445 82 OFFCURVE",
"543 -10 OFFCURVE",
"691 -10 CURVE SMOOTH"
);
},
{
closed = 1;
nodes = (
"343 -7 OFFCURVE",
"416 49 OFFCURVE",
"434 172 CURVE",
"468 172 LINE",
"429 280 LINE",
"429 128 OFFCURVE",
"325 77 OFFCURVE",
"243 77 CURVE SMOOTH",
"192 77 OFFCURVE",
"156 97 OFFCURVE",
"156 151 CURVE SMOOTH",
"156 197 OFFCURVE",
"185 221 OFFCURVE",
"232 231 CURVE SMOOTH",
"454 278 LINE",
"454 347 LINE",
"216 301 LINE SMOOTH",
"111 281 OFFCURVE",
"54 240 OFFCURVE",
"54 146 CURVE SMOOTH",
"54 45 OFFCURVE",
"114 -7 OFFCURVE",
"227 -7 CURVE SMOOTH"
);
},
{
closed = 1;
nodes = (
"523 362 LINE SMOOTH",
"523 501 OFFCURVE",
"437 547 OFFCURVE",
"307 547 CURVE SMOOTH",
"149 547 OFFCURVE",
"84 468 OFFCURVE",
"72 378 CURVE",
"160 359 LINE",
"177 435 OFFCURVE",
"233 457 OFFCURVE",
"299 457 CURVE SMOOTH",
"368 457 OFFCURVE",
"425 432 OFFCURVE",
"425 351 CURVE",
"425 331 LINE",
"429 280 LINE",
"434 214 LINE",
"523 214 LINE"
);
},
{
closed = 1;
nodes = (
"940 235 LINE",
"910 309 LINE",
"486 309 LINE",
"486 235 LINE"
);
}
);
width = 986;
},
{
anchors = (
{
name = top;
position = "{526, 580}";
}
);
layerId = "BE4E587A-F76C-447B-AA28-A45E40876AAF";
paths = (
{
closed = 1;
nodes = (
"888 -14 OFFCURVE",
"1004 58 OFFCURVE",
"1049 177 CURVE",
"802 234 LINE",
"788 216 OFFCURVE",
"763 204 OFFCURVE",
"731 204 CURVE SMOOTH",
"678 204 OFFCURVE",
"645 239 OFFCURVE",
"645 290 CURVE SMOOTH",
"645 355 OFFCURVE",
"677 391 OFFCURVE",
"727 391 CURVE SMOOTH",
"776 391 OFFCURVE",
"807 357 OFFCURVE",
"807 295 CURVE SMOOTH",
"807 281 OFFCURVE",
"807 266 OFFCURVE",
"806 252 CURVE",
"1056 252 LINE",
"1056 265 OFFCURVE",
"1056 277 OFFCURVE",
"1056 290 CURVE SMOOTH",
"1056 472 OFFCURVE",
"926 594 OFFCURVE",
"814 594 CURVE SMOOTH",
"725 594 OFFCURVE",
"673 516 OFFCURVE",
"655 372 CURVE",
"448 372 LINE",
"398 195 LINE",
"439 66 OFFCURVE",
"558 -14 OFFCURVE",
"726 -14 CURVE SMOOTH"
);
},
{
closed = 1;
nodes = (
"302 -15 OFFCURVE",
"377 48 OFFCURVE",
"392 189 CURVE",
"426 189 LINE",
"399 263 LINE",
"399 188 OFFCURVE",
"359 164 OFFCURVE",
"324 164 CURVE SMOOTH",
"297 164 OFFCURVE",
"279 177 OFFCURVE",
"279 201 CURVE SMOOTH",
"279 224 OFFCURVE",
"295 240 OFFCURVE",
"335 246 CURVE SMOOTH",
"420 259 LINE",
"420 343 LINE",
"238 316 LINE SMOOTH",
"92 294 OFFCURVE",
"13 249 OFFCURVE",
"13 141 CURVE SMOOTH",
"13 47 OFFCURVE",
"72 -15 OFFCURVE",
"193 -15 CURVE SMOOTH"
);
},
{
closed = 1;
nodes = (
"647 384 LINE SMOOTH",
"647 543 OFFCURVE",
"532 596 OFFCURVE",
"360 596 CURVE SMOOTH",
"140 596 OFFCURVE",
"53 505 OFFCURVE",
"36 376 CURVE",
"263 349 LINE",
"272 384 OFFCURVE",
"301 394 OFFCURVE",
"331 394 CURVE SMOOTH",
"363 394 OFFCURVE",
"393 382 OFFCURVE",
"393 341 CURVE SMOOTH",
"393 289 LINE",
"399 263 LINE",
"407 207 LINE",
"647 204 LINE"
);
},
{
closed = 1;
nodes = (
"846 252 LINE",
"852 336 LINE",
"546 336 LINE",
"546 252 LINE"
);
}
);
width = 1070;
}
);
leftKerningGroup = a;
leftMetricsKey = a;
rightKerningGroup = o;
rightMetricsKey = e;
unicode = 00E6;
},
{
glyphname = b;
lastChange = "2018-03-27 19:16:33 +0000";
layers = (
{
components = (
{
locked = 1;
name = "bowl-thick";
transform = "{1, 0, 0, 1, 108, 0}";
}
);
layerId = "67AEAADB-8447-4819-9D92-8BB76BD22042";
leftMetricsKey = "=h-14";
rightMetricsKey = "=o+7";
paths = (
{
closed = 1;
nodes = (
"170 0 LINE",
"170 212 LINE",
"169 239 LINE",
"169 272 LINE",
"170 307 LINE",
"170 790 LINE",
"36 790 LINE",
"36 785 LINE",
"165 785 LINE",
"165 0 LINE"
);
}
);
width = 750;
},
{
components = (
{
name = "bowl-thick";
transform = "{1, 0, 0, 1, 116, 0}";
}
);
layerId = "BE4E587A-F76C-447B-AA28-A45E40876AAF";
leftMetricsKey = "=h-14";
rightMetricsKey = "=o+3";
paths = (
{
closed = 1;
nodes = (
"65 -14 LINE",
"309 162 LINE",
"306 244 LINE",
"306 320 LINE",
"309 340 LINE",
"309 790 LINE",
"0 790 LINE",
"0 587 LINE",
"55 587 LINE",
"55 -14 LINE"
);
}
);
width = 745;
},
{
components = (
{
locked = 1;
name = "bowl-thick";
transform = "{1, 0, 0, 1, 67, 0}";
}
);
layerId = "2C5E45D0-97E8-45AA-A5B2-946753DF54E1";
leftMetricsKey = "=l-38";
rightMetricsKey = "=o";
paths = (
{
closed = 1;
nodes = (
"95 -15 LINE",
"189 84 LINE",
"186 208 LINE",
"186 288 LINE",
"189 361 LINE",
"189 790 LINE",
"-7 790 LINE",
"-7 706 LINE",
"91 706 LINE",
"91 -15 LINE"
);
}
);
width = 678;
},
{
associatedMasterId = "2C5E45D0-97E8-45AA-A5B2-946753DF54E1";
layerId = "F6347527-681C-4956-A72F-5F29356DD99F";
leftMetricsKey = "=l-21";
rightMetricsKey = "=o+6";
name = "Feb 27 18, 15:10";
paths = (
{
closed = 1;
nodes = (
"534 -11 OFFCURVE",
"637 103 OFFCURVE",
"637 266 CURVE SMOOTH",
"637 430 OFFCURVE",
"533 546 OFFCURVE",
"387 546 CURVE SMOOTH",
"281 546 OFFCURVE",
"220 484 OFFCURVE",
"200 392 CURVE",
"177 392 LINE",
"193 268 LINE",
"193 381 OFFCURVE",
"257 458 OFFCURVE",
"365 458 CURVE SMOOTH",
"468 458 OFFCURVE",
"537 381 OFFCURVE",
"537 268 CURVE SMOOTH",
"537 152 OFFCURVE",
"478 77 OFFCURVE",
"365 77 CURVE SMOOTH",
"255 77 OFFCURVE",
"193 156 OFFCURVE",
"193 268 CURVE",
"122 174 LINE",
"154 55 OFFCURVE",
"245 -11 OFFCURVE",
"372 -11 CURVE SMOOTH"
);
},
{
closed = 1;
nodes = (
"102 -15 LINE",
"196 84 LINE",
"186 188 LINE",
"193 268 LINE",
"196 361 LINE",
"196 790 LINE",
"0 790 LINE",
"0 706 LINE",
"98 706 LINE",
"98 -15 LINE"
);
}
);
width = 685;
}
);
leftMetricsKey = "=h-14";
rightKerningGroup = o;
rightMetricsKey = "=o+7";
unicode = 0062;
},
{
color = 5;
glyphname = c;
lastChange = "2018-03-27 17:06:34 +0000";
layers = (
{
anchors = (
{
name = bottom;
position = "{315, 0}";
},
{
name = top;
position = "{311, 524}";
}
);
layerId = "67AEAADB-8447-4819-9D92-8BB76BD22042";
rightMetricsKey = "=o-10";
paths = (
{
closed = 1;
nodes = (
"425 -8 OFFCURVE",
"510 51 OFFCURVE",
"554 141 CURVE",
"549 143 LINE",
"506 54 OFFCURVE",
"422 -3 OFFCURVE",
"315 -3 CURVE SMOOTH",
"165 -3 OFFCURVE",
"62 106 OFFCURVE",
"62 261 CURVE SMOOTH",
"62 417 OFFCURVE",
"163 527 OFFCURVE",
"311 527 CURVE SMOOTH",
"438 527 OFFCURVE",
"535 440 OFFCURVE",
"550 308 CURVE",
"553 335 LINE",
"549 335 LINE",
"530 444 OFFCURVE",
"441 532 OFFCURVE",
"311 532 CURVE SMOOTH",
"160 532 OFFCURVE",
"57 420 OFFCURVE",
"57 261 CURVE SMOOTH",
"57 103 OFFCURVE",
"162 -8 OFFCURVE",
"315 -8 CURVE SMOOTH"
);
},
{
closed = 1;
nodes = (
"555 308 LINE",
"555 524 LINE",
"550 524 LINE",
"550 308 LINE"
);
}
);
width = 602;
},
{
anchors = (
{
name = bottom;
position = "{352, 0}";
},
{
name = top;
position = "{310, 580}";
}
);
layerId = "BE4E587A-F76C-447B-AA28-A45E40876AAF";
rightMetricsKey = "=o-6";
paths = (
{
closed = 1;
nodes = (
"534 -14 OFFCURVE",
"657 65 OFFCURVE",
"689 194 CURVE",
"435 261 LINE",
"429 226 OFFCURVE",
"401 204 OFFCURVE",
"359 204 CURVE SMOOTH",
"307 204 OFFCURVE",
"275 238 OFFCURVE",
"275 297 CURVE SMOOTH",
"275 354 OFFCURVE",
"307 391 OFFCURVE",
"356 391 CURVE SMOOTH",
"401 391 OFFCURVE",
"432 361 OFFCURVE",
"435 304 CURVE",
"478 417 LINE",
"427 417 LINE",
"418 538 OFFCURVE",
"369 594 OFFCURVE",
"278 594 CURVE SMOOTH",
"144 594 OFFCURVE",
"14 472 OFFCURVE",
"14 290 CURVE SMOOTH",
"14 107 OFFCURVE",
"146 -14 OFFCURVE",
"356 -14 CURVE SMOOTH"
);
},
{
closed = 1;
nodes = (
"689 304 LINE",
"689 580 LINE",
"435 580 LINE",
"435 304 LINE"
);
}
);
width = 697;
},
{
anchors = (
{
name = bottom;
position = "{330, -10}";
},
{
name = top;
position = "{315, 536}";
}
);
layerId = "2C5E45D0-97E8-45AA-A5B2-946753DF54E1";
leftMetricsKey = "=o+3";
rightMetricsKey = "=o+1";
paths = (
{
closed = 1;
nodes = (
"448 -10 OFFCURVE",
"538 42 OFFCURVE",
"573 126 CURVE",
"482 166 LINE",
"460 113 OFFCURVE",
"405 80 OFFCURVE",
"331 80 CURVE SMOOTH",
"219 80 OFFCURVE",
"151 157 OFFCURVE",
"151 266 CURVE SMOOTH",
"151 380 OFFCURVE",
"220 458 OFFCURVE",
"319 458 CURVE SMOOTH",
"408 458 OFFCURVE",
"462 396 OFFCURVE",
"474 308 CURVE",
"493 392 LINE",
"470 392 LINE",
"462 484 OFFCURVE",
"418 546 OFFCURVE",
"306 546 CURVE SMOOTH",
"155 546 OFFCURVE",
"51 430 OFFCURVE",
"51 266 CURVE SMOOTH",
"51 104 OFFCURVE",
"159 -10 OFFCURVE",
"330 -10 CURVE SMOOTH"
);
},
{
closed = 1;
nodes = (
"572 308 LINE",
"572 536 LINE",
"474 536 LINE",
"474 308 LINE"
);
}
);
width = 622;
},
{
anchors = (
{
name = bottom;
position = "{315, 0}";
},
{
name = top;
position = "{311, 524}";
}
);
associatedMasterId = "67AEAADB-8447-4819-9D92-8BB76BD22042";
layerId = "0242EC4C-37D6-4D22-AAC7-48E5D093E98C";
rightMetricsKey = "=o-10";
name = "Light [6]";
paths = (
{
closed = 1;
nodes = (
"425 -8 OFFCURVE",
"510 51 OFFCURVE",
"554 141 CURVE",
"549 143 LINE",
"506 54 OFFCURVE",
"422 -3 OFFCURVE",
"315 -3 CURVE SMOOTH",
"165 -3 OFFCURVE",
"62 106 OFFCURVE",
"62 261 CURVE SMOOTH",
"62 417 OFFCURVE",
"163 527 OFFCURVE",
"311 527 CURVE SMOOTH",
"442 527 OFFCURVE",
"535 440 OFFCURVE",
"550 308 CURVE",
"553 356 LINE",
"549 356 LINE",
"528 450 OFFCURVE",
"441 532 OFFCURVE",
"311 532 CURVE SMOOTH",
"160 532 OFFCURVE",
"57 420 OFFCURVE",
"57 261 CURVE SMOOTH",
"57 103 OFFCURVE",
"162 -8 OFFCURVE",
"315 -8 CURVE SMOOTH"
);
},
{
closed = 1;
nodes = (
"555 308 LINE",
"555 524 LINE",
"550 524 LINE",
"550 308 LINE"
);
}
);
width = 602;
}
);
leftKerningGroup = o;
leftMetricsKey = o;
rightMetricsKey = "=o-14";
unicode = 0063;
},
{
glyphname = d;
lastChange = "2018-03-27 16:11:02 +0000";
layers = (
{
associatedMasterId = "67AEAADB-8447-4819-9D92-8BB76BD22042";
layerId = "388A103D-4867-4332-B200-0EBE35D53AEB";
name = "Oct 22 17, 16:09";
paths = (
{
closed = 1;
nodes = (
"512 645 LINE",
"254 645 LINE",
"254 525 LINE",
"372 525 LINE",
"372 0 LINE",
"570 0 LINE",
"570 120 LINE",
"512 120 LINE"
);
},
{
closed = 1;
nodes = (
"222 120 OFFCURVE",
"185 162 OFFCURVE",
"185 223 CURVE SMOOTH",
"185 285 OFFCURVE",
"222 331 OFFCURVE",
"279 331 CURVE SMOOTH",
"324 331 OFFCURVE",
"372 302 OFFCURVE",
"372 223 CURVE",
"382 420 LINE",
"368 420 LINE",
"346 447 OFFCURVE",
"312 458 OFFCURVE",
"265 458 CURVE SMOOTH",
"132 458 OFFCURVE",
"40 369 OFFCURVE",
"40 223 CURVE SMOOTH",
"40 94 OFFCURVE",
"109 -12 OFFCURVE",
"234 -12 CURVE SMOOTH",
"307 -12 OFFCURVE",
"352 26 OFFCURVE",
"368 111 CURVE",
"385 111 LINE",
"372 223 LINE",
"372 146 OFFCURVE",
"324 120 OFFCURVE",
"279 120 CURVE SMOOTH"
);
}
);
width = 590;
},
{
anchors = (
{
name = right;
position = "{665, 524}";
},
{
name = top;
position = "{299, 524}";
}
);
components = (
{
locked = 1;
name = "bowl-thin";
transform = "{-1, 0, 0, -1, 635, 524}";
}
);
layerId = "67AEAADB-8447-4819-9D92-8BB76BD22042";
leftMetricsKey = "=o";
paths = (
{
closed = 1;
nodes = (
"696 0 LINE",
"696 5 LINE",
"578 5 LINE",
"578 790 LINE",
"404 790 LINE",
"404 785 LINE",
"573 785 LINE",
"573 303 LINE",
"574 280 LINE",
"574 258 LINE",
"573 217 LINE",
"573 0 LINE"
);
}
);
width = 723;
},
{
anchors = (
{
name = right;
position = "{773, 580}";
},
{
name = top;
position = "{298, 580}";
}
);
components = (
{
name = "bowl-thin";
transform = "{-1, 0, 0, -1, 551, 568}";
}
);
layerId = "BE4E587A-F76C-447B-AA28-A45E40876AAF";
leftMetricsKey = "=o+5";
rightMetricsKey = "=l+2";
paths = (
{
closed = 1;
nodes = (
"747 0 LINE",
"747 203 LINE",
"692 203 LINE",
"692 790 LINE",
"387 790 LINE",
"387 587 LINE",
"438 587 LINE",
"438 423 LINE",
"441 331 LINE",
"441 273 LINE",
"438 231 LINE",
"438 0 LINE"
);
}
);
width = 762;
},
{
anchors = (
{
name = right;
position = "{589, 536}";
},
{
name = top;
position = "{316, 536}";
}
);
components = (
{
locked = 1;
name = "bowl-thin";
transform = "{-1, 0, 0, -1, 603, 536}";
}
);
layerId = "2C5E45D0-97E8-45AA-A5B2-946753DF54E1";
leftMetricsKey = "=o";
rightMetricsKey = "=l+9";
paths = (
{
closed = 1;
nodes = (
"682 0 LINE",
"682 84 LINE",
"587 84 LINE",
"587 790 LINE",
"355 790 LINE",
"355 706 LINE",
"489 706 LINE",
"489 398 LINE",
"492 310 LINE",
"492 240 LINE",
"489 192 LINE",
"489 0 LINE"
);
}
);
width = 710;
},
{
anchors = (
{
name = right;
position = "{725, 536}";
},
{
name = top;
position = "{314, 536}";
}
);
associatedMasterId = "2C5E45D0-97E8-45AA-A5B2-946753DF54E1";
layerId = "BE714FEC-A930-48F2-9902-B3C9A9009C92";
leftMetricsKey = "=o+6";
name = "Feb 27 18, 15:18";
paths = (
{
closed = 1;
nodes = (
"404 -10 OFFCURVE",
"465 52 OFFCURVE",
"485 144 CURVE",
"508 144 LINE",
"492 270 LINE",
"492 156 OFFCURVE",
"428 78 OFFCURVE",
"320 78 CURVE SMOOTH",
"217 78 OFFCURVE",
"148 156 OFFCURVE",
"148 270 CURVE SMOOTH",
"148 382 OFFCURVE",
"212 459 OFFCURVE",
"320 459 CURVE SMOOTH",
"430 459 OFFCURVE",
"492 381 OFFCURVE",
"492 270 CURVE",
"540 355 LINE",
"509 473 OFFCURVE",
"426 546 OFFCURVE",
"309 546 CURVE SMOOTH",
"149 546 OFFCURVE",
"48 432 OFFCURVE",
"48 270 CURVE SMOOTH",
"48 106 OFFCURVE",
"152 -10 OFFCURVE",
"298 -10 CURVE SMOOTH"
);
},
{
closed = 1;
nodes = (
"682 0 LINE",
"682 84 LINE",
"587 84 LINE",
"587 790 LINE",
"355 790 LINE",
"355 706 LINE",
"489 706 LINE",
"489 398 LINE",
"492 270 LINE",
"489 192 LINE",
"489 0 LINE"
);
}
);
width = 697;
}
);
leftKerningGroup = o;
leftMetricsKey = "=o+7";
rightKerningGroup = l;
rightMetricsKey = l;
unicode = 0064;
},
{
color = 5;
glyphname = eth;
lastChange = "2018-03-27 15:37:42 +0000";
layers = (
{
layerId = "67AEAADB-8447-4819-9D92-8BB76BD22042";
rightMetricsKey = "=o+6";
paths = (
{
closed = 1;
nodes = (
"172 531 OFFCURVE",
"57 422 OFFCURVE",
"57 268 CURVE SMOOTH",
"57 107 OFFCURVE",
"162 -7 OFFCURVE",
"316 -7 CURVE SMOOTH",
"471 -7 OFFCURVE",
"578 93 OFFCURVE",
"578 268 CURVE",
"570 349 LINE",
"566 348 LINE",
"544 438 OFFCURVE",
"451 531 OFFCURVE",
"317 531 CURVE SMOOTH"
);
},
{
closed = 1;
nodes = (
"448 526 OFFCURVE",
"573 431 OFFCURVE",
"573 268 CURVE SMOOTH",
"573 96 OFFCURVE",
"468 -2 OFFCURVE",
"316 -2 CURVE SMOOTH",
"165 -2 OFFCURVE",
"62 110 OFFCURVE",
"62 268 CURVE SMOOTH",
"62 419 OFFCURVE",
"175 526 OFFCURVE",
"317 526 CURVE SMOOTH"
);
},
{
closed = 1;
nodes = (
"246 790 LINE",
"445 687 OFFCURVE",
"573 479 OFFCURVE",
"573 268 CURVE",
"578 268 LINE",
"578 477 OFFCURVE",
"452 686 OFFCURVE",
"256 790 CURVE"
);
},
{
closed = 1;
nodes = (
"489 788 LINE",
"487 792 LINE",
"175 633 LINE",
"177 629 LINE"
);
}
);
width = 641;
},
{
layerId = "BE4E587A-F76C-447B-AA28-A45E40876AAF";
rightMetricsKey = "=o+6";
paths = (
{
closed = 1;
nodes = (
"115 592 OFFCURVE",
"14 467 OFFCURVE",
"14 304 CURVE SMOOTH",
"14 115 OFFCURVE",
"147 -10 OFFCURVE",
"358 -10 CURVE SMOOTH",
"537 -10 OFFCURVE",
"698 72 OFFCURVE",
"698 308 CURVE",
"447 381 LINE",
"424 378 LINE",
"389 521 OFFCURVE",
"344 592 OFFCURVE",
"246 592 CURVE SMOOTH"
);
},
{
closed = 1;
nodes = (
"402 378 OFFCURVE",
"436 343 OFFCURVE",
"436 293 CURVE SMOOTH",
"436 243 OFFCURVE",
"402 206 OFFCURVE",
"355 206 CURVE SMOOTH",
"308 206 OFFCURVE",
"276 243 OFFCURVE",
"276 293 CURVE SMOOTH",
"276 343 OFFCURVE",
"308 378 OFFCURVE",
"355 378 CURVE SMOOTH"
);
},
{
closed = 1;
nodes = (
"205 790 LINE",
"320 678 OFFCURVE",
"436 507 OFFCURVE",
"436 293 CURVE",
"698 308 LINE",
"698 471 OFFCURVE",
"620 653 OFFCURVE",
"506 790 CURVE"
);
},
{
closed = 1;
nodes = (
"599 757 LINE",
"586 791 LINE",
"197 649 LINE",
"210 615 LINE"
);
}
);
width = 718;
},
{
associatedMasterId = "2C5E45D0-97E8-45AA-A5B2-946753DF54E1";
layerId = "0BE3B6E5-491B-4A67-A69C-65AB1281D43E";
name = "Dec 26 17, 20:25";
paths = (
{
closed = 1;
nodes = (
"151 537 OFFCURVE",
"42 426 OFFCURVE",
"42 268 CURVE SMOOTH",
"42 105 OFFCURVE",
"157 -10 OFFCURVE",
"326 -10 CURVE SMOOTH",
"495 -10 OFFCURVE",
"612 87 OFFCURVE",
"612 268 CURVE SMOOTH",
"612 352 OFFCURVE",
"581 428 OFFCURVE",
"519 482 CURVE",
"514 416 LINE",
"479 416 LINE",
"429 493 OFFCURVE",
"374 537 OFFCURVE",
"288 537 CURVE SMOOTH"
);
},
{
closed = 1;
nodes = (
"439 456 OFFCURVE",
"514 379 OFFCURVE",
"514 282 CURVE SMOOTH",
"514 149 OFFCURVE",
"439 80 OFFCURVE",
"330 80 CURVE SMOOTH",
"221 80 OFFCURVE",
"146 156 OFFCURVE",
"146 268 CURVE SMOOTH",
"146 378 OFFCURVE",
"221 456 OFFCURVE",
"330 456 CURVE SMOOTH"
);
},
{
closed = 1;
nodes = (
"612 500 OFFCURVE",
"430 682 OFFCURVE",
"207 802 CURVE",
"158 723 LINE",
"356 613 OFFCURVE",
"514 476 OFFCURVE",
"514 282 CURVE",
"612 268 LINE"
);
},
{
closed = 1;
nodes = (
"576 641 LINE",
"567 697 LINE",
"128 619 LINE",
"137 563 LINE"
);
}
);
width = 1254;
},
{
layerId = "2C5E45D0-97E8-45AA-A5B2-946753DF54E1";
rightMetricsKey = "=o+6";
paths = (
{
closed = 1;
nodes = (
"159 546 OFFCURVE",
"48 431 OFFCURVE",
"48 268 CURVE SMOOTH",
"48 105 OFFCURVE",
"160 -10 OFFCURVE",
"338 -10 CURVE SMOOTH",
"485 -10 OFFCURVE",
"618 66 OFFCURVE",
"618 281 CURVE",
"523 412 LINE",
"500 404 LINE",
"466 499 OFFCURVE",
"415 546 OFFCURVE",
"315 546 CURVE SMOOTH"
);
},
{
closed = 1;
nodes = (
"445 458 OFFCURVE",
"520 378 OFFCURVE",
"520 271 CURVE SMOOTH",
"520 164 OFFCURVE",
"445 80 OFFCURVE",
"333 80 CURVE SMOOTH",
"227 80 OFFCURVE",
"152 156 OFFCURVE",
"152 269 CURVE SMOOTH",
"152 380 OFFCURVE",
"227 458 OFFCURVE",
"336 458 CURVE SMOOTH"
);
},
{
closed = 1;
nodes = (
"274 790 LINE",
"414 662 OFFCURVE",
"520 462 OFFCURVE",
"520 271 CURVE",
"618 281 LINE",
"618 456 OFFCURVE",
"532 647 OFFCURVE",
"405 790 CURVE"
);
},
{
closed = 1;
nodes = (
"564 735 LINE",
"537 792 LINE",
"210 640 LINE",
"237 583 LINE"
);
}
);
width = 672;
},
{
associatedMasterId = "2C5E45D0-97E8-45AA-A5B2-946753DF54E1";
layerId = "5CAA3390-BC4B-416B-8C60-38BC7146CF2A";
name = "Dec 27 17, 03:10";
paths = (
{
closed = 1;
nodes = (
"151 537 OFFCURVE",
"42 426 OFFCURVE",
"42 268 CURVE SMOOTH",
"42 105 OFFCURVE",
"157 -10 OFFCURVE",
"326 -10 CURVE SMOOTH",
"495 -10 OFFCURVE",
"612 87 OFFCURVE",
"612 268 CURVE SMOOTH",
"612 352 OFFCURVE",
"581 428 OFFCURVE",
"519 482 CURVE",
"514 416 LINE",
"479 416 LINE",
"429 493 OFFCURVE",
"374 537 OFFCURVE",
"288 537 CURVE SMOOTH"
);
},
{
closed = 1;
nodes = (
"439 456 OFFCURVE",
"514 379 OFFCURVE",
"514 282 CURVE SMOOTH",
"514 149 OFFCURVE",
"439 80 OFFCURVE",
"330 80 CURVE SMOOTH",
"221 80 OFFCURVE",
"146 156 OFFCURVE",
"146 268 CURVE SMOOTH",
"146 378 OFFCURVE",
"221 456 OFFCURVE",
"330 456 CURVE SMOOTH"
);
},
{
closed = 1;
nodes = (
"612 500 OFFCURVE",
"423 722 OFFCURVE",
"168 802 CURVE",
"129 723 LINE",
"354 653 OFFCURVE",
"514 476 OFFCURVE",
"514 282 CURVE",
"612 268 LINE"
);
},
{
closed = 1;
nodes = (
"573 640 LINE",
"560 716 LINE",
"121 638 LINE",
"134 562 LINE"
);
}
);
width = 654;
},
{
associatedMasterId = "2C5E45D0-97E8-45AA-A5B2-946753DF54E1";
layerId = "98D203CA-56D4-4B8A-88A5-5EF0A78B96BD";
name = "Jan 5 18, 01:26";
paths = (
{
closed = 1;
nodes = (
"153 537 OFFCURVE",
"42 426 OFFCURVE",
"42 268 CURVE SMOOTH",
"42 105 OFFCURVE",
"157 -10 OFFCURVE",
"326 -10 CURVE SMOOTH",
"495 -10 OFFCURVE",
"612 87 OFFCURVE",
"612 268 CURVE SMOOTH",
"612 352 OFFCURVE",
"581 428 OFFCURVE",
"519 482 CURVE",
"514 416 LINE",
"489 416 LINE",
"438 493 OFFCURVE",
"381 537 OFFCURVE",
"293 537 CURVE SMOOTH"
);
},
{
closed = 1;
nodes = (
"439 456 OFFCURVE",
"514 379 OFFCURVE",
"514 282 CURVE SMOOTH",
"514 149 OFFCURVE",
"439 80 OFFCURVE",
"330 80 CURVE SMOOTH",
"221 80 OFFCURVE",
"146 156 OFFCURVE",
"146 268 CURVE SMOOTH",
"146 378 OFFCURVE",
"221 456 OFFCURVE",
"330 456 CURVE SMOOTH"
);
},
{
closed = 1;
nodes = (
"612 494 OFFCURVE",
"478 710 OFFCURVE",
"297 816 CURVE",
"242 745 LINE",
"401 648 OFFCURVE",
"514 473 OFFCURVE",
"514 282 CURVE",
"612 268 LINE"
);
},
{
closed = 1;
nodes = (
"578 709 LINE",
"547 775 LINE",
"229 627 LINE",
"260 561 LINE"
);
}
);
width = 654;
},
{
associatedMasterId = "2C5E45D0-97E8-45AA-A5B2-946753DF54E1";
layerId = "4A0ACDA9-9014-43C4-804E-40BDC9C61A31";
name = "Feb 26 18, 11:19";
paths = (
{
closed = 1;
nodes = (
"153 537 OFFCURVE",
"42 426 OFFCURVE",
"42 268 CURVE SMOOTH",
"42 105 OFFCURVE",
"157 -10 OFFCURVE",
"326 -10 CURVE SMOOTH",
"495 -10 OFFCURVE",
"612 81 OFFCURVE",
"612 281 CURVE",
"514 416 LINE",
"489 416 LINE",
"438 493 OFFCURVE",
"381 537 OFFCURVE",
"293 537 CURVE SMOOTH"
);
},
{
closed = 1;
nodes = (
"439 456 OFFCURVE",
"514 376 OFFCURVE",
"514 270 CURVE SMOOTH",
"514 146 OFFCURVE",
"439 80 OFFCURVE",
"330 80 CURVE SMOOTH",
"221 80 OFFCURVE",
"146 156 OFFCURVE",
"146 268 CURVE SMOOTH",
"146 378 OFFCURVE",
"221 456 OFFCURVE",
"330 456 CURVE SMOOTH"
);
},
{
closed = 1;
nodes = (
"612 493 OFFCURVE",
"478 699 OFFCURVE",
"297 808 CURVE",
"248 728 LINE",
"398 636 OFFCURVE",
"514 462 OFFCURVE",
"514 270 CURVE",
"612 281 LINE"
);
},
{
closed = 1;
nodes = (
"522 745 LINE",
"489 799 LINE",
"189 618 LINE",
"222 564 LINE"
);
}
);
width = 654;
},
{
associatedMasterId = "67AEAADB-8447-4819-9D92-8BB76BD22042";
layerId = "E16F7673-988D-4607-8138-1E0ABE5C6D6F";
rightMetricsKey = "=o+6";
name = "Light [6]";
paths = (
{
closed = 1;
nodes = (
"172 531 OFFCURVE",
"57 422 OFFCURVE",
"57 268 CURVE SMOOTH",
"57 107 OFFCURVE",
"162 -7 OFFCURVE",
"316 -7 CURVE SMOOTH",
"471 -7 OFFCURVE",
"578 93 OFFCURVE",
"578 268 CURVE",
"562 386 LINE",
"558 385 LINE",
"530 450 OFFCURVE",
"442 531 OFFCURVE",
"317 531 CURVE SMOOTH"
);
},
{
closed = 1;
nodes = (
"448 526 OFFCURVE",
"573 431 OFFCURVE",
"573 268 CURVE SMOOTH",
"573 96 OFFCURVE",
"468 -2 OFFCURVE",
"316 -2 CURVE SMOOTH",
"165 -2 OFFCURVE",
"62 110 OFFCURVE",
"62 268 CURVE SMOOTH",
"62 419 OFFCURVE",
"175 526 OFFCURVE",
"317 526 CURVE SMOOTH"
);
},
{
closed = 1;
nodes = (
"246 790 LINE",
"445 687 OFFCURVE",
"573 479 OFFCURVE",
"573 268 CURVE",
"578 268 LINE",
"578 477 OFFCURVE",
"452 686 OFFCURVE",
"256 790 CURVE"
);
},
{
closed = 1;
nodes = (
"489 788 LINE",
"487 792 LINE",
"175 633 LINE",
"177 629 LINE"
);
}
);
width = 641;
}
);
leftKerningGroup = o;
leftMetricsKey = "=o";
rightMetricsKey = "o+6";
unicode = 00F0;
},
{
color = 0;
glyphname = dcroat;
lastChange = "2018-03-27 18:33:07 +0000";
layers = (
{
components = (
{
name = d;
},
{
name = strokeshortcomb;
transform = "{1, 0, 0, 1, 303, 5}";
}
);
layerId = "67AEAADB-8447-4819-9D92-8BB76BD22042";
width = 727;
},
{
components = (
{
name = d;
},
{
name = strokeshortcomb;
transform = "{1, 0, 0, 1, 283, -5}";
}
);
layerId = "2C5E45D0-97E8-45AA-A5B2-946753DF54E1";
rightMetricsKey = "=|n";
width = 727;
},
{
components = (
{
name = d;
},
{
name = strokeshortcomb;
transform = "{0.8, 0, 0, 1, 311, 64}";
}
);
layerId = "BE4E587A-F76C-447B-AA28-A45E40876AAF";
width = 764;
},
{
anchors = (
{
name = right;
position = "{716, 536}";
},
{
name = top;
position = "{320, 536}";
}
);
associatedMasterId = "2C5E45D0-97E8-45AA-A5B2-946753DF54E1";
components = (
{
name = "bowl-thin";
transform = "{-1, 0, 0, -1, 603, 536}";
},
{
name = strokeshortcomb;
transform = "{1, 0, 0, 1, 242, 25}";
}
);
layerId = "995D160F-F76A-4237-BC26-B2B6960A43E0";
rightMetricsKey = "=|n";
name = "Regular [120]";
paths = (
{
closed = 1;
nodes = (
"688 0 LINE",
"688 84 LINE",
"593 84 LINE",
"593 790 LINE",
"495 790 LINE",
"495 398 LINE",
"498 310 LINE",
"498 240 LINE",
"495 192 LINE",
"495 0 LINE"
);
}
);
width = 733;
},
{
anchors = (
{
name = right;
position = "{757, 536}";
},
{
name = top;
position = "{298, 580}";
}
);
associatedMasterId = "BE4E587A-F76C-447B-AA28-A45E40876AAF";
components = (
{
name = "bowl-thin";
transform = "{-1, 0, 0, -1, 551, 568}";
},
{
name = strokeshortcomb;
transform = "{0.8, 0, 0, 1, 309, 146}";
}
);
layerId = "898D628D-0094-474E-A9F2-82CBEADA54F7";
name = "Bold [120]";
paths = (
{
closed = 1;
nodes = (
"747 0 LINE",
"747 203 LINE",
"692 203 LINE",
"692 790 LINE",
"438 790 LINE",
"438 423 LINE",
"441 331 LINE",
"441 273 LINE",
"438 231 LINE",
"438 0 LINE"
);
}
);
width = 762;
}
);
leftKerningGroup = o;
leftMetricsKey = d;
rightMetricsKey = d;
unicode = 0111;
},
{
color = 6;
glyphname = e;
lastChange = "2018-03-27 15:26:46 +0000";
layers = (
{
anchors = (
{
name = bottom;
position = "{315, 0}";
},
{
name = ogonek;
position = "{410, 8}";
},
{
name = top;
position = "{314, 524}";
}
);
layerId = "67AEAADB-8447-4819-9D92-8BB76BD22042";
rightMetricsKey = "=o-4";
paths = (
{
closed = 1;
nodes = (
"425 -8 OFFCURVE",
"511 49 OFFCURVE",
"554 141 CURVE",
"549 143 LINE",
"507 52 OFFCURVE",
"422 -3 OFFCURVE",
"315 -3 CURVE SMOOTH",
"165 -3 OFFCURVE",
"62 106 OFFCURVE",
"62 261 CURVE SMOOTH",
"62 417 OFFCURVE",
"164 527 OFFCURVE",
"314 527 CURVE SMOOTH",
"460 527 OFFCURVE",
"558 421 OFFCURVE",
"558 270 CURVE SMOOTH",
"558 268 OFFCURVE",
"558 265 OFFCURVE",
"558 263 CURVE",
"563 263 LINE",
"563 265 OFFCURVE",
"563 268 OFFCURVE",
"563 270 CURVE SMOOTH",
"563 424 OFFCURVE",
"463 532 OFFCURVE",
"314 532 CURVE SMOOTH",
"161 532 OFFCURVE",
"57 420 OFFCURVE",
"57 261 CURVE SMOOTH",
"57 103 OFFCURVE",
"162 -8 OFFCURVE",
"315 -8 CURVE SMOOTH"
);
},
{
closed = 1;
nodes = (
"561 263 LINE",
"561 268 LINE",
"60 268 LINE",
"60 263 LINE"
);
}
);
width = 616;
},
{
anchors = (
{
name = bottom;
position = "{327, 2}";
},
{
name = ogonek;
position = "{455, 19}";
},
{
name = top;
position = "{317, 536}";
}
);
layerId = "2C5E45D0-97E8-45AA-A5B2-946753DF54E1";
leftMetricsKey = "=o+2";
rightMetricsKey = "=o-3";
paths = (
{
closed = 1;
nodes = (
"441 -10 OFFCURVE",
"533 48 OFFCURVE",
"572 143 CURVE",
"479 178 LINE",
"454 117 OFFCURVE",
"398 80 OFFCURVE",
"323 80 CURVE SMOOTH",
"214 80 OFFCURVE",
"149 157 OFFCURVE",
"149 266 CURVE SMOOTH",
"149 380 OFFCURVE",
"217 458 OFFCURVE",
"319 458 CURVE SMOOTH",
"425 458 OFFCURVE",
"486 380 OFFCURVE",
"486 273 CURVE SMOOTH",
"486 256 OFFCURVE",
"485 245 OFFCURVE",
"484 235 CURVE",
"581 235 LINE",
"582 241 OFFCURVE",
"583 249 OFFCURVE",
"583 266 CURVE SMOOTH",
"583 431 OFFCURVE",
"483 546 OFFCURVE",
"319 546 CURVE SMOOTH",
"157 546 OFFCURVE",
"50 430 OFFCURVE",
"50 266 CURVE SMOOTH",
"50 104 OFFCURVE",
"154 -10 OFFCURVE",
"324 -10 CURVE SMOOTH"
);
},
{
closed = 1;
nodes = (
"581 235 LINE",
"552 309 LINE",
"112 309 LINE",
"112 235 LINE"
);
}
);
width = 628;
},
{
anchors = (
{
name = ogonek;
position = "{518, 15}";
},
{
name = top;
position = "{350, 580}";
}
);
associatedMasterId = "BE4E587A-F76C-447B-AA28-A45E40876AAF";
layerId = "37AC81F8-3912-4902-B0E9-A8CB1A4EB4A1";
rightMetricsKey = "=o";
name = "Jan 14 18, 01:46";
paths = (
{
closed = 1;
nodes = (
"495 -14 OFFCURVE",
"606 58 OFFCURVE",
"649 177 CURVE",
"402 234 LINE",
"391 216 OFFCURVE",
"371 204 OFFCURVE",
"346 204 CURVE SMOOTH",
"302 204 OFFCURVE",
"275 239 OFFCURVE",
"275 290 CURVE SMOOTH",
"275 355 OFFCURVE",
"301 391 OFFCURVE",
"342 391 CURVE SMOOTH",
"382 391 OFFCURVE",
"407 357 OFFCURVE",
"407 295 CURVE SMOOTH",
"407 281 OFFCURVE",
"407 266 OFFCURVE",
"406 252 CURVE",
"656 252 LINE",
"656 265 OFFCURVE",
"656 277 OFFCURVE",
"656 290 CURVE SMOOTH",
"656 472 OFFCURVE",
"532 594 OFFCURVE",
"335 594 CURVE SMOOTH",
"138 594 OFFCURVE",
"14 472 OFFCURVE",
"14 290 CURVE SMOOTH",
"14 107 OFFCURVE",
"140 -14 OFFCURVE",
"341 -14 CURVE SMOOTH"
);
},
{
closed = 1;
nodes = (
"446 252 LINE",
"452 336 LINE",
"176 336 LINE",
"176 252 LINE"
);
}
);
width = 700;
},
{
anchors = (
{
name = bottom;
position = "{356, 0}";
},
{
name = ogonek;
position = "{521, 17}";
},
{
name = top;
position = "{350, 580}";
}
);
layerId = "BE4E587A-F76C-447B-AA28-A45E40876AAF";
rightMetricsKey = "=o";
paths = (
{
closed = 1;
nodes = (
"518 -14 OFFCURVE",
"634 58 OFFCURVE",
"679 177 CURVE",
"432 234 LINE",
"418 216 OFFCURVE",
"393 204 OFFCURVE",
"361 204 CURVE SMOOTH",
"308 204 OFFCURVE",
"275 239 OFFCURVE",
"275 290 CURVE SMOOTH",
"275 355 OFFCURVE",
"307 391 OFFCURVE",
"357 391 CURVE SMOOTH",
"406 391 OFFCURVE",
"437 357 OFFCURVE",
"437 295 CURVE SMOOTH",
"437 281 OFFCURVE",
"437 266 OFFCURVE",
"436 252 CURVE",
"686 252 LINE",
"686 265 OFFCURVE",
"686 277 OFFCURVE",
"686 290 CURVE SMOOTH",
"686 472 OFFCURVE",
"556 594 OFFCURVE",
"350 594 CURVE SMOOTH",
"144 594 OFFCURVE",
"14 472 OFFCURVE",
"14 290 CURVE SMOOTH",
"14 107 OFFCURVE",
"146 -14 OFFCURVE",
"356 -14 CURVE SMOOTH"
);
},
{
closed = 1;
nodes = (
"476 252 LINE",
"482 336 LINE",
"176 336 LINE",
"176 252 LINE"
);
}
);
width = 700;
},
{
anchors = (
{
name = bottom;
position = "{321, 0}";
},
{
name = ogonek;
position = "{438, 13}";
},
{
name = top;
position = "{311, 536}";
}
);
associatedMasterId = "2C5E45D0-97E8-45AA-A5B2-946753DF54E1";
layerId = "E381435E-AA7D-463C-8760-1E6FDC933C9B";
leftMetricsKey = "=o+2";
rightMetricsKey = "=o+2";
name = "Feb 6 18, 15:52";
paths = (
{
closed = 1;
nodes = (
"430 -10 OFFCURVE",
"516 42 OFFCURVE",
"562 126 CURVE",
"471 161 LINE",
"440 110 OFFCURVE",
"387 78 OFFCURVE",
"321 78 CURVE SMOOTH",
"210 78 OFFCURVE",
"143 156 OFFCURVE",
"143 266 CURVE SMOOTH",
"143 380 OFFCURVE",
"211 458 OFFCURVE",
"313 458 CURVE SMOOTH",
"419 458 OFFCURVE",
"480 380 OFFCURVE",
"480 273 CURVE SMOOTH",
"480 256 OFFCURVE",
"479 245 OFFCURVE",
"478 235 CURVE",
"576 235 LINE",
"577 245 OFFCURVE",
"577 256 OFFCURVE",
"577 266 CURVE SMOOTH",
"577 431 OFFCURVE",
"477 546 OFFCURVE",
"313 546 CURVE SMOOTH",
"151 546 OFFCURVE",
"44 430 OFFCURVE",
"44 266 CURVE SMOOTH",
"44 104 OFFCURVE",
"151 -10 OFFCURVE",
"321 -10 CURVE SMOOTH"
);
},
{
closed = 1;
nodes = (
"576 235 LINE",
"546 309 LINE",
"106 309 LINE",
"106 235 LINE"
);
}
);
width = 621;
}
);
leftKerningGroup = o;
leftMetricsKey = o;
rightKerningGroup = o;
unicode = 0065;
},
{
glyphname = eogonek;
lastChange = "2018-03-20 15:33:33 +0000";
layers = (
{
components = (
{
name = e;
},
{
name = ogonekcomb.alt;
transform = "{1, 0, 0, 1, 248, -3}";
}
);
layerId = "67AEAADB-8447-4819-9D92-8BB76BD22042";
width = 610;
},
{
components = (
{
name = e;
},
{
name = ogonekcomb.alt;
transform = "{1, 0, 0, 1, 272, 0}";
}
);
layerId = "2C5E45D0-97E8-45AA-A5B2-946753DF54E1";
width = 628;
},
{
components = (
{
name = e;
},
{
name = ogonekcomb.alt;
transform = "{1, 0, 0, 1, 318, -8}";
}
);
layerId = "BE4E587A-F76C-447B-AA28-A45E40876AAF";
width = 700;
},
{
anchors = (
{
name = _ogonek;
position = "{438, 13}";
},
{
name = ogonek;
position = "{438, 13}";
},
{
name = top;
position = "{311, 536}";
}
);
associatedMasterId = "2C5E45D0-97E8-45AA-A5B2-946753DF54E1";
layerId = "CDAB1D54-CB17-4AD7-B07D-E3A299D06F49";
name = "Jan 4 18, 23:30";
paths = (
{
closed = 1;
nodes = (
"438 -143 LINE",
"430 -143 LINE SMOOTH",
"384 -143 OFFCURVE",
"359 -123 OFFCURVE",
"359 -84 CURVE SMOOTH",
"359 -39 OFFCURVE",
"387 -9 OFFCURVE",
"438 13 CURVE",
"389 31 LINE",
"389 -7 LINE",
"325 -20 OFFCURVE",
"295 -49 OFFCURVE",
"295 -99 CURVE SMOOTH",
"295 -164 OFFCURVE",
"347 -201 OFFCURVE",
"426 -201 CURVE SMOOTH",
"438 -201 LINE"
);
},
{
closed = 1;
nodes = (
"364 -10 OFFCURVE",
"403 -2 OFFCURVE",
"438 13 CURVE SMOOTH",
"492 36 OFFCURVE",
"534 75 OFFCURVE",
"562 126 CURVE",
"471 161 LINE",
"440 110 OFFCURVE",
"387 78 OFFCURVE",
"321 78 CURVE SMOOTH",
"210 78 OFFCURVE",
"143 156 OFFCURVE",
"143 266 CURVE SMOOTH",
"143 380 OFFCURVE",
"211 458 OFFCURVE",
"313 458 CURVE SMOOTH",
"419 458 OFFCURVE",
"480 380 OFFCURVE",
"480 273 CURVE SMOOTH",
"480 256 OFFCURVE",
"479 245 OFFCURVE",
"478 235 CURVE",
"576 235 LINE",
"577 245 OFFCURVE",
"577 256 OFFCURVE",
"577 266 CURVE SMOOTH",
"577 431 OFFCURVE",
"477 546 OFFCURVE",
"313 546 CURVE SMOOTH",
"151 546 OFFCURVE",
"44 430 OFFCURVE",
"44 266 CURVE SMOOTH",
"44 104 OFFCURVE",
"151 -10 OFFCURVE",
"321 -10 CURVE SMOOTH"
);
},
{
closed = 1;
nodes = (
"576 235 LINE",
"546 309 LINE",
"106 309 LINE",
"106 235 LINE"
);
}
);
width = 621;
}
);
leftKerningGroup = o;
rightKerningGroup = o;
unicode = 0119;
},
{
color = 4;
glyphname = f;
lastChange = "2018-03-27 16:09:52 +0000";
layers = (
{
layerId = "67AEAADB-8447-4819-9D92-8BB76BD22042";
rightMetricsKey = "=|n-110";
paths = (
{
closed = 1;
nodes = (
"319 0 LINE",
"319 5 LINE",
"174 5 LINE",
"174 519 LINE",
"375 519 LINE",
"375 524 LINE",
"174 524 LINE",
"174 638 LINE SMOOTH",
"174 744 OFFCURVE",
"236 792 OFFCURVE",
"329 792 CURVE SMOOTH",
"416 792 OFFCURVE",
"464 752 OFFCURVE",
"483 671 CURVE",
"488 672 LINE",
"471 753 OFFCURVE",
"419 797 OFFCURVE",
"329 797 CURVE SMOOTH",
"233 797 OFFCURVE",
"169 747 OFFCURVE",
"169 638 CURVE SMOOTH",
"169 524 LINE",
"55 524 LINE",
"55 519 LINE",
"169 519 LINE",
"169 5 LINE",
"55 5 LINE",
"55 0 LINE"
);
}
);
width = 433;
},
{
associatedMasterId = "67AEAADB-8447-4819-9D92-8BB76BD22042";
backgroundImage = {
crop = "{{0, 0}, {2448, 3264}}";
imagePath = "../Reference/Bruce/Bruce1848/1848 George Bruce & Co. type specimen book..jpg";
locked = "1";
transform = "{6.16431, 0, 0, 6.16431, -3842, -14088}";
};
layerId = "79B3B9FF-9A06-4F89-B827-3296CCDDD8C6";
name = "Dec 8 17, 15:51";
paths = (
{
closed = 1;
nodes = (
"535 738 OFFCURVE",
"465 801 OFFCURVE",
"340 801 CURVE SMOOTH",
"203 801 OFFCURVE",
"117 724 OFFCURVE",
"117 580 CURVE SMOOTH",
"117 552 LINE",
"23 552 LINE",
"23 406 LINE",
"116 406 LINE",
"116 146 LINE",
"23 146 LINE",
"23 0 LINE",
"372 0 LINE",
"372 146 LINE",
"287 146 LINE",
"287 406 LINE",
"402 406 LINE",
"402 552 LINE",
"287 552 LINE",
"287 584 LINE SMOOTH",
"287 628 OFFCURVE",
"322 662 OFFCURVE",
"394 662 CURVE SMOOTH",
"461 662 OFFCURVE",
"501 644 OFFCURVE",
"516 619 CURVE",
"535 619 LINE"
);
}
);
width = 422;
},
{
associatedMasterId = "67AEAADB-8447-4819-9D92-8BB76BD22042";
backgroundImage = {
crop = "{{0, 0}, {2448, 3264}}";
imagePath = "../Reference/Bruce/Bruce1848/1848 George Bruce & Co. type specimen book..jpg";
locked = "1";
transform = "{6.16431, 0, 0, 6.16431, -3842, -14088}";
};
layerId = "0CAEAC39-57A6-47AF-928C-E8B67783A302";
name = "Dec 10 17, 21:39";
paths = (
{
closed = 1;
nodes = (
"287 605 LINE SMOOTH",
"287 634 OFFCURVE",
"303 650 OFFCURVE",
"335 650 CURVE SMOOTH",
"366 650 OFFCURVE",
"381 635 OFFCURVE",
"381 609 CURVE",
"535 609 LINE",
"535 731 OFFCURVE",
"476 801 OFFCURVE",
"332 801 CURVE SMOOTH",
"185 801 OFFCURVE",
"117 726 OFFCURVE",
"117 605 CURVE SMOOTH",
"117 554 LINE",
"23 554 LINE",
"23 408 LINE",
"116 408 LINE",
"116 146 LINE",
"23 146 LINE",
"23 0 LINE",
"372 0 LINE",
"372 146 LINE",
"287 146 LINE",
"287 408 LINE",
"412 408 LINE",
"412 554 LINE",
"287 554 LINE"
);
}
);
width = 440;
},
{
associatedMasterId = "67AEAADB-8447-4819-9D92-8BB76BD22042";
backgroundImage = {
crop = "{{0, 0}, {2448, 3264}}";
imagePath = "../Reference/Bruce/Bruce1848/1848 George Bruce & Co. type specimen book..jpg";
locked = "1";
transform = "{6.16431, 0, 0, 6.16431, -3852, -14088}";
};
layerId = "2214ED82-5822-4037-94AA-E449E18DBE6F";
name = "Dec 10 17, 22:57";
paths = (
{
closed = 1;
nodes = (
"277 585 LINE SMOOTH",
"277 629 OFFCURVE",
"307 654 OFFCURVE",
"371 654 CURVE SMOOTH",
"407 654 OFFCURVE",
"442 646 OFFCURVE",
"482 634 CURVE",
"482 780 LINE",
"435 792 OFFCURVE",
"387 801 OFFCURVE",
"336 801 CURVE SMOOTH",
"182 799 OFFCURVE",
"107 718 OFFCURVE",
"107 585 CURVE SMOOTH",
"107 554 LINE",
"23 554 LINE",
"23 408 LINE",
"106 408 LINE",
"106 146 LINE",
"23 146 LINE",
"23 0 LINE",
"390 0 LINE",
"390 146 LINE",
"277 146 LINE",
"277 408 LINE",
"422 408 LINE",
"422 554 LINE",
"277 554 LINE"
);
}
);
width = 450;
},
{
associatedMasterId = "2C5E45D0-97E8-45AA-A5B2-946753DF54E1";
layerId = "EA442F27-1256-48DD-ACF5-73F26FD9C8CA";
rightMetricsKey = "=|n-120";
name = Serif;
paths = (
{
closed = 1;
nodes = (
"432 688 LINE",
"399 688 LINE",
"388 761 OFFCURVE",
"357 800 OFFCURVE",
"284 800 CURVE SMOOTH",
"184 800 OFFCURVE",
"135 726 OFFCURVE",
"135 606 CURVE SMOOTH",
"135 536 LINE",
"32 536 LINE",
"32 452 LINE",
"134 452 LINE",
"134 84 LINE",
"32 84 LINE",
"32 0 LINE",
"367 0 LINE",
"367 84 LINE",
"232 84 LINE",
"232 452 LINE",
"400 452 LINE",
"400 536 LINE",
"232 536 LINE",
"232 606 LINE SMOOTH",
"232 677 OFFCURVE",
"262 711 OFFCURVE",
"318 711 CURVE SMOOTH",
"366 711 OFFCURVE",
"396 685 OFFCURVE",
"403 632 CURVE"
);
},
{
closed = 1;
nodes = (
"403 632 LINE",
"501 632 LINE",
"501 790 LINE",
"403 790 LINE"
);
}
);
width = 413;
},
{
associatedMasterId = "2C5E45D0-97E8-45AA-A5B2-946753DF54E1";
layerId = "7C68D5C0-36A9-4110-96EC-41617AB24DAF";
rightMetricsKey = "=|n-120";
name = "Feb 9 18, 10:36";
paths = (
{
closed = 1;
nodes = (
"343 0 LINE",
"343 84 LINE",
"232 84 LINE",
"232 452 LINE",
"370 452 LINE",
"370 536 LINE",
"232 536 LINE",
"232 596 LINE SMOOTH",
"232 674 OFFCURVE",
"274 711 OFFCURVE",
"365 711 CURVE SMOOTH",
"440 711 OFFCURVE",
"494 686 OFFCURVE",
"513 636 CURVE",
"519 636 LINE",
"498 742 OFFCURVE",
"437 800 OFFCURVE",
"325 800 CURVE SMOOTH",
"192 800 OFFCURVE",
"134 722 OFFCURVE",
"134 596 CURVE SMOOTH",
"134 536 LINE",
"32 536 LINE",
"32 452 LINE",
"134 452 LINE",
"134 84 LINE",
"32 84 LINE",
"32 0 LINE"
);
}
);
width = 413;
},
{
associatedMasterId = "BE4E587A-F76C-447B-AA28-A45E40876AAF";
layerId = "2394B750-9F89-4C7D-BC88-2E7775F44F80";
leftMetricsKey = "=n-2";
name = "Feb 9 18, 11:03";
paths = (
{
closed = 1;
nodes = (
"480 0 LINE",
"480 203 LINE",
"345 203 LINE",
"345 377 LINE",
"556 377 LINE",
"556 580 LINE",
"345 580 LINE",
"345 583 LINE SMOOTH",
"345 612 OFFCURVE",
"362 626 OFFCURVE",
"392 626 CURVE SMOOTH",
"415 626 OFFCURVE",
"430 618 OFFCURVE",
"435 604 CURVE",
"454 627 LINE",
"427 627 LINE",
"421 750 OFFCURVE",
"374 804 OFFCURVE",
"280 804 CURVE SMOOTH",
"163 804 OFFCURVE",
"91 720 OFFCURVE",
"91 583 CURVE SMOOTH",
"91 580 LINE",
"16 580 LINE",
"16 377 LINE",
"91 377 LINE",
"91 203 LINE",
"16 203 LINE",
"16 0 LINE"
);
},
{
closed = 1;
nodes = (
"689 604 LINE",
"689 790 LINE",
"435 790 LINE",
"435 604 LINE"
);
}
);
width = 699;
},
{
associatedMasterId = "BE4E587A-F76C-447B-AA28-A45E40876AAF";
layerId = "40940AEF-ACDD-4500-A158-AE70C741334E";
leftMetricsKey = "=n-2";
name = "Feb 9 18, 11:05";
paths = (
{
closed = 1;
nodes = (
"549 636 LINE",
"529 753 OFFCURVE",
"450 804 OFFCURVE",
"328 804 CURVE SMOOTH",
"171 804 OFFCURVE",
"91 720 OFFCURVE",
"91 583 CURVE SMOOTH",
"91 580 LINE",
"16 580 LINE",
"16 377 LINE",
"91 377 LINE",
"91 203 LINE",
"16 203 LINE",
"16 0 LINE",
"480 0 LINE",
"480 203 LINE",
"345 203 LINE",
"345 377 LINE",
"556 377 LINE",
"556 580 LINE",
"345 580 LINE",
"345 583 LINE SMOOTH",
"345 612 OFFCURVE",
"362 626 OFFCURVE",
"412 626 CURVE SMOOTH",
"444 626 OFFCURVE",
"486 626 OFFCURVE",
"542 626 CURVE"
);
}
);
width = 566;
},
{
layerId = "BE4E587A-F76C-447B-AA28-A45E40876AAF";
leftMetricsKey = "=n-2";
paths = (
{
closed = 1;
nodes = (
"496 0 LINE",
"496 203 LINE",
"361 203 LINE",
"361 377 LINE",
"572 377 LINE",
"572 580 LINE",
"361 580 LINE",
"361 583 LINE SMOOTH",
"361 614 OFFCURVE",
"374 629 OFFCURVE",
"398 629 CURVE SMOOTH",
"418 629 OFFCURVE",
"431 618 OFFCURVE",
"435 597 CURVE",
"633 630 LINE",
"611 751 OFFCURVE",
"528 804 OFFCURVE",
"377 804 CURVE SMOOTH",
"186 804 OFFCURVE",
"107 720 OFFCURVE",
"107 583 CURVE SMOOTH",
"107 580 LINE",
"18 580 LINE",
"18 377 LINE",
"107 377 LINE",
"107 203 LINE",
"18 203 LINE",
"18 0 LINE"
);
}
);
width = 584;
},
{
associatedMasterId = "2C5E45D0-97E8-45AA-A5B2-946753DF54E1";
layerId = "29A6E879-6439-49E8-8A75-6B5B66C51CF2";
rightMetricsKey = "=|n-120";
name = "Feb 9 18, 11:05";
paths = (
{
closed = 1;
nodes = (
"481 636 LINE",
"466 743 OFFCURVE",
"422 800 OFFCURVE",
"315 800 CURVE SMOOTH",
"192 800 OFFCURVE",
"135 726 OFFCURVE",
"135 606 CURVE SMOOTH",
"135 536 LINE",
"32 536 LINE",
"32 452 LINE",
"134 452 LINE",
"134 84 LINE",
"32 84 LINE",
"32 0 LINE",
"348 0 LINE",
"348 84 LINE",
"232 84 LINE",
"232 452 LINE",
"400 452 LINE",
"400 536 LINE",
"232 536 LINE",
"232 606 LINE SMOOTH",
"232 682 OFFCURVE",
"272 718 OFFCURVE",
"350 718 CURVE SMOOTH",
"413 718 OFFCURVE",
"450 695 OFFCURVE",
"473 636 CURVE"
);
}
);
width = 413;
},
{
layerId = "2C5E45D0-97E8-45AA-A5B2-946753DF54E1";
rightMetricsKey = "=|n-109";
paths = (
{
closed = 1;
nodes = (
"366 0 LINE",
"366 84 LINE",
"245 84 LINE",
"245 452 LINE",
"413 452 LINE",
"413 536 LINE",
"245 536 LINE",
"245 606 LINE SMOOTH",
"245 677 OFFCURVE",
"275 711 OFFCURVE",
"331 711 CURVE SMOOTH",
"374 711 OFFCURVE",
"402 690 OFFCURVE",
"412 648 CURVE",
"500 675 LINE",
"482 756 OFFCURVE",
"429 800 OFFCURVE",
"330 800 CURVE SMOOTH",
"203 800 OFFCURVE",
"147 726 OFFCURVE",
"147 606 CURVE SMOOTH",
"147 536 LINE",
"45 536 LINE",
"45 452 LINE",
"147 452 LINE",
"147 84 LINE",
"45 84 LINE",
"45 0 LINE"
);
}
);
width = 436;
}
);
leftKerningGroup = n;
leftMetricsKey = n;
rightKerningGroup = f;
unicode = 0066;
},
{
color = 6;
glyphname = f.ss01;
lastChange = "2018-03-27 15:26:46 +0000";
layers = (
{
layerId = "67AEAADB-8447-4819-9D92-8BB76BD22042";
rightMetricsKey = "=n-110";
paths = (
{
closed = 1;
nodes = (
"174 636 LINE SMOOTH",
"174 730 OFFCURVE",
"226 785 OFFCURVE",
"324 785 CURVE",
"436 785 LINE",
"436 790 LINE",
"324 790 LINE",
"223 790 OFFCURVE",
"169 733 OFFCURVE",
"169 636 CURVE SMOOTH",
"169 524 LINE",
"55 524 LINE",
"55 519 LINE",
"169 519 LINE",
"169 5 LINE",
"55 5 LINE",
"55 0 LINE",
"304 0 LINE",
"304 5 LINE",
"174 5 LINE",
"174 519 LINE",
"349 519 LINE",
"349 524 LINE",
"174 524 LINE"
);
}
);
width = 347;
},
{
layerId = "BE4E587A-F76C-447B-AA28-A45E40876AAF";
paths = (
{
closed = 1;
nodes = (
"349 583 LINE SMOOTH",
"349 598 OFFCURVE",
"362 608 OFFCURVE",
"387 608 CURVE SMOOTH",
"540 608 LINE",
"540 790 LINE",
"366 790 LINE SMOOTH",
"181 790 OFFCURVE",
"95 720 OFFCURVE",
"95 583 CURVE SMOOTH",
"95 580 LINE",
"20 580 LINE",
"20 377 LINE",
"95 377 LINE",
"95 203 LINE",
"20 203 LINE",
"20 0 LINE",
"442 0 LINE",
"442 203 LINE",
"349 203 LINE",
"349 377 LINE",
"490 377 LINE",
"490 580 LINE",
"349 580 LINE"
);
}
);
width = 511;
},
{
associatedMasterId = "67AEAADB-8447-4819-9D92-8BB76BD22042";
backgroundImage = {
crop = "{{0, 0}, {2448, 3264}}";
imagePath = "../Reference/Bruce/Bruce1848/1848 George Bruce & Co. type specimen book..jpg";
locked = "1";
transform = "{6.16431, 0, 0, 6.16431, -3842, -14088}";
};
layerId = "79B3B9FF-9A06-4F89-B827-3296CCDDD8C6";
name = "Dec 8 17, 15:51";
paths = (
{
closed = 1;
nodes = (
"535 738 OFFCURVE",
"465 801 OFFCURVE",
"340 801 CURVE SMOOTH",
"203 801 OFFCURVE",
"117 724 OFFCURVE",
"117 580 CURVE SMOOTH",
"117 552 LINE",
"23 552 LINE",
"23 406 LINE",
"116 406 LINE",
"116 146 LINE",
"23 146 LINE",
"23 0 LINE",
"372 0 LINE",
"372 146 LINE",
"287 146 LINE",
"287 406 LINE",
"402 406 LINE",
"402 552 LINE",
"287 552 LINE",
"287 584 LINE SMOOTH",
"287 628 OFFCURVE",
"322 662 OFFCURVE",
"394 662 CURVE SMOOTH",
"461 662 OFFCURVE",
"501 644 OFFCURVE",
"516 619 CURVE",
"535 619 LINE"
);
}
);
width = 422;
},
{
associatedMasterId = "67AEAADB-8447-4819-9D92-8BB76BD22042";
backgroundImage = {
crop = "{{0, 0}, {2448, 3264}}";
imagePath = "../Reference/Bruce/Bruce1848/1848 George Bruce & Co. type specimen book..jpg";
locked = "1";
transform = "{6.16431, 0, 0, 6.16431, -3842, -14088}";
};
layerId = "0CAEAC39-57A6-47AF-928C-E8B67783A302";
name = "Dec 10 17, 21:39";
paths = (
{
closed = 1;
nodes = (
"287 605 LINE SMOOTH",
"287 634 OFFCURVE",
"303 650 OFFCURVE",
"335 650 CURVE SMOOTH",
"366 650 OFFCURVE",
"381 635 OFFCURVE",
"381 609 CURVE",
"535 609 LINE",
"535 731 OFFCURVE",
"476 801 OFFCURVE",
"332 801 CURVE SMOOTH",
"185 801 OFFCURVE",
"117 726 OFFCURVE",
"117 605 CURVE SMOOTH",
"117 554 LINE",
"23 554 LINE",
"23 408 LINE",
"116 408 LINE",
"116 146 LINE",
"23 146 LINE",
"23 0 LINE",
"372 0 LINE",
"372 146 LINE",
"287 146 LINE",
"287 408 LINE",
"412 408 LINE",
"412 554 LINE",
"287 554 LINE"
);
}
);
width = 440;
},
{
associatedMasterId = "67AEAADB-8447-4819-9D92-8BB76BD22042";
backgroundImage = {
crop = "{{0, 0}, {2448, 3264}}";
imagePath = "../Reference/Bruce/Bruce1848/1848 George Bruce & Co. type specimen book..jpg";
locked = "1";
transform = "{6.16431, 0, 0, 6.16431, -3852, -14088}";
};
layerId = "2214ED82-5822-4037-94AA-E449E18DBE6F";
name = "Dec 10 17, 22:57";
paths = (
{
closed = 1;
nodes = (
"277 585 LINE SMOOTH",
"277 629 OFFCURVE",
"307 654 OFFCURVE",
"371 654 CURVE SMOOTH",
"407 654 OFFCURVE",
"442 646 OFFCURVE",
"482 634 CURVE",
"482 780 LINE",
"435 792 OFFCURVE",
"387 801 OFFCURVE",
"336 801 CURVE SMOOTH",
"182 799 OFFCURVE",
"107 718 OFFCURVE",
"107 585 CURVE SMOOTH",
"107 554 LINE",
"23 554 LINE",
"23 408 LINE",
"106 408 LINE",
"106 146 LINE",
"23 146 LINE",
"23 0 LINE",
"390 0 LINE",
"390 146 LINE",
"277 146 LINE",
"277 408 LINE",
"422 408 LINE",
"422 554 LINE",
"277 554 LINE"
);
}
);
width = 450;
},
{
associatedMasterId = "2C5E45D0-97E8-45AA-A5B2-946753DF54E1";
layerId = "3F865A77-270D-4F46-9C9B-B7A697C9068F";
name = AntiLig;
paths = (
{
closed = 1;
nodes = (
"427 790 LINE",
"392 796 OFFCURVE",
"357 800 OFFCURVE",
"325 800 CURVE SMOOTH",
"191 800 OFFCURVE",
"129 717 OFFCURVE",
"129 584 CURVE SMOOTH",
"129 536 LINE",
"30 536 LINE",
"30 452 LINE",
"128 452 LINE",
"128 84 LINE",
"30 84 LINE",
"30 0 LINE",
"361 0 LINE",
"361 84 LINE",
"226 84 LINE",
"226 452 LINE",
"394 452 LINE",
"394 536 LINE",
"226 536 LINE",
"226 584 LINE SMOOTH",
"226 675 OFFCURVE",
"264 711 OFFCURVE",
"349 711 CURVE SMOOTH",
"376 711 OFFCURVE",
"401 709 OFFCURVE",
"427 706 CURVE"
);
}
);
width = 402;
},
{
associatedMasterId = "2C5E45D0-97E8-45AA-A5B2-946753DF54E1";
layerId = "883921FD-9ADC-4BA6-A5C9-6DAB5A8FB23E";
rightMetricsKey = "=|n-109";
name = "Dec 17 17, 15:29";
paths = (
{
closed = 1;
nodes = (
"485 675 LINE",
"467 756 OFFCURVE",
"414 800 OFFCURVE",
"315 800 CURVE SMOOTH",
"189 800 OFFCURVE",
"133 726 OFFCURVE",
"133 606 CURVE SMOOTH",
"133 536 LINE",
"30 536 LINE",
"30 452 LINE",
"132 452 LINE",
"132 84 LINE",
"30 84 LINE",
"30 0 LINE",
"365 0 LINE",
"365 84 LINE",
"230 84 LINE",
"230 452 LINE",
"398 452 LINE",
"398 536 LINE",
"230 536 LINE",
"230 606 LINE SMOOTH",
"230 677 OFFCURVE",
"260 711 OFFCURVE",
"316 711 CURVE SMOOTH",
"359 711 OFFCURVE",
"387 690 OFFCURVE",
"397 648 CURVE"
);
}
);
width = 406;
},
{
layerId = "2C5E45D0-97E8-45AA-A5B2-946753DF54E1";
rightMetricsKey = "=|n-92";
paths = (
{
closed = 1;
nodes = (
"245 574 LINE SMOOTH",
"245 669 OFFCURVE",
"283 706 OFFCURVE",
"368 706 CURVE SMOOTH",
"469 706 LINE",
"469 790 LINE",
"368 790 LINE SMOOTH",
"217 790 OFFCURVE",
"147 707 OFFCURVE",
"147 574 CURVE SMOOTH",
"147 536 LINE",
"45 536 LINE",
"45 452 LINE",
"147 452 LINE",
"147 84 LINE",
"45 84 LINE",
"45 0 LINE",
"360 0 LINE",
"360 84 LINE",
"245 84 LINE",
"245 452 LINE",
"406 452 LINE",
"406 536 LINE",
"245 536 LINE"
);
}
);
width = 422;
}
);
leftKerningGroup = n;
leftMetricsKey = n;
},
